<?xml version="1.0" encoding="UTF-8" standalone="no"?><!DOCTYPE svg PUBLIC "-//W3C//DTD SVG 1.1//EN" "http://www.w3.org/Graphics/SVG/1.1/DTD/svg11.dtd"><svg width="100%" height="100%" viewBox="0 0 272 272" version="1.1" xmlns="http://www.w3.org/2000/svg" xmlns:xlink="http://www.w3.org/1999/xlink" xml:space="preserve" xmlns:serif="http://www.serif.com/" style="fill-rule:evenodd;clip-rule:evenodd;stroke-linejoin:round;stroke-miterlimit:2;"><g id="Layer1"><rect x="-348" y="-636" width="1251.32" height="1272.9" style="fill:#222;"/></g><g id="Layer-1" serif:id="Layer 1"><path d="M-38.954,-298.275c-12.6,0.035 -25.022,5.39 -37.111,10.688c-27.035,11.848 -54.068,23.696 -81.104,35.545c-9.745,4.269 -19.979,8.964 -26.802,19.496c-7.983,12.32 -9.612,29.902 -13.912,45.343c-4.818,17.306 -13.146,32.219 -20.123,48.055c-6.977,15.835 -12.802,33.765 -11.693,52.247c1.362,22.687 21.86,48.08 39.936,62.215l163.966,0l-0,-271.603c-2.767,-0.817 -5.564,-1.425 -8.404,-1.736c-1.506,-0.166 -3.007,-0.246 -4.509,-0.25l-0.244,0Z" style="fill:url(#_Linear1);fill-rule:nonzero;"/><path d="M-38.313,-172.142c-11.23,1.261 -20.511,8.058 -29.49,14.733c-17.836,13.259 -35.672,26.52 -53.509,39.779c-6.429,4.779 -13.132,9.953 -15.852,18.829c-3.183,10.388 -0.273,23.563 0.092,35.615c0.41,13.457 -2.398,25.76 -3.987,38.5l115.262,0l-0,-146.997c-2.814,-0.417 -5.603,-0.683 -8.347,-0.683c-1.402,0 -2.793,0.069 -4.169,0.224Z" style="fill:url(#_Linear2);fill-rule:nonzero;"/><path d="M-40.448,-145.625c-17.838,13.259 -35.674,26.52 -53.51,39.778c-6.429,4.779 -13.133,9.954 -15.853,18.831c-3.182,10.388 -0.272,23.561 0.094,35.616c0.282,9.278 -0.967,18.01 -2.289,26.714l86.209,0l0,-130.746c-5.128,2.754 -9.931,6.298 -14.651,9.807Z" style="fill:url(#_Linear3);fill-rule:nonzero;"/><path d="M85.463,71.048l60.623,-21.271l-48.665,-42.055l-11.958,63.326Zm12.98,-60.391l44.598,38.541l-55.555,19.493l10.957,-58.034Z" style="fill:url(#_Linear4);fill-rule:nonzero;"/><path d="M226.132,23.852l19.546,17.353l5.201,-25.665l-24.747,8.312Zm1.234,0.252l22.679,-7.618l-4.767,23.521l-17.912,-15.903Z" style="fill:url(#_Linear5);fill-rule:nonzero;"/><path d="M3.325,42.725l19.547,17.352l5.2,-25.664l-24.747,8.312Zm1.234,0.252l22.679,-7.618l-4.767,23.52l-17.912,-15.902Z" style="fill:url(#_Linear6);fill-rule:nonzero;"/><rect x="-0.767" y="0.449" width="273.265" height="274.261" style="fill:#fff;"/><g><clipPath id="_clip7"><rect x="-0.767" y="0.448" width="273.264" height="274.261" clip-rule="nonzero"/></clipPath><g clip-path="url(#_clip7)"><rect x="-0.767" y="0.448" width="273.264" height="274.261" style="fill:url(#_Radial8);"/><g opacity="0.4"><path d="M45.334,85.563l76.732,23.479l3.474,-106.59l-80.206,83.111Z" style="fill:url(#_Linear9);fill-rule:nonzero;"/><path d="M63.119,128.781l58.947,-19.739l-76.732,-23.479l17.785,43.218Z" style="fill:url(#_Linear10);fill-rule:nonzero;"/><path d="M122.066,109.042l48.53,-23.272l-45.056,-83.318l-3.474,106.59Z" style="fill:url(#_Linear11);fill-rule:nonzero;"/><path d="M40.375,160.557l99.985,-47.567l-18.294,-3.948l-81.691,51.515Z" style="fill:url(#_Linear12);fill-rule:nonzero;"/><path d="M63.119,128.781l-22.744,31.776l81.691,-51.515l-58.947,19.739Z" style="fill:url(#_Linear13);fill-rule:nonzero;"/><path d="M140.36,112.99l30.236,-27.22l-48.53,23.272l18.294,3.948Z" style="fill:url(#_Linear14);fill-rule:nonzero;"/><path d="M140.36,112.99l107.99,-67.091l-77.754,39.871l-30.236,27.22Z" style="fill:url(#_Linear15);fill-rule:nonzero;"/><path d="M177.71,150.599l70.64,-104.7l-107.99,67.091l37.35,37.609Z" style="fill:url(#_Linear16);fill-rule:nonzero;"/><path d="M40.375,160.557l137.335,-9.958l-37.35,-37.609l-99.985,47.567Z" style="fill:url(#_Linear17);fill-rule:nonzero;"/><path d="M154.335,187.379l23.375,-36.78l-137.335,9.958l113.96,26.822Z" style="fill:url(#_Linear18);fill-rule:nonzero;"/><path d="M54.359,192.13l99.976,-4.751l-113.96,-26.822l13.984,31.573Z" style="fill:url(#_Linear19);fill-rule:nonzero;"/><path d="M162.466,227.064l90.025,-38.979l-98.156,-0.706l8.131,39.685Z" style="fill:url(#_Linear20);fill-rule:nonzero;"/><path d="M252.491,188.085l-24.98,-30.837l-49.801,-6.649l74.781,37.486Z" style="fill:url(#_Linear21);fill-rule:nonzero;"/><path d="M177.71,150.599l49.801,6.649l20.839,-111.349l-70.64,104.7Z" style="fill:url(#_Linear22);fill-rule:nonzero;"/><path d="M111.741,274.415l42.594,-87.036l-99.976,4.751l57.382,82.285Z" style="fill:url(#_Linear23);fill-rule:nonzero;"/><path d="M154.335,187.379l98.156,0.706l-74.781,-37.486l-23.375,36.78Z" style="fill:url(#_Linear24);fill-rule:nonzero;"/><path d="M57.53,242.235l54.211,32.18l-57.382,-82.285l3.171,50.105Z" style="fill:url(#_Linear25);fill-rule:nonzero;"/><path d="M111.741,274.415l50.725,-47.351l-8.131,-39.685l-42.594,87.036Z" style="fill:url(#_Linear26);fill-rule:nonzero;"/><path d="M162.466,227.064l61.488,21.404l28.537,-60.383l-90.025,38.979Z" style="fill:url(#_Linear27);fill-rule:nonzero;"/><path d="M111.741,274.415l112.213,-25.947l-61.488,-21.404l-50.725,47.351Z" style="fill:url(#_Linear28);fill-rule:nonzero;"/></g><path d="M12.638,254.938l40.191,-14.103l-32.264,-27.883l-7.927,41.986Zm8.605,-40.039l29.568,25.553l-36.832,12.922l7.264,-38.475Z" style="fill:url(#_Linear29);fill-rule:nonzero;"/><path d="M56.64,223.124c-0,40.26 -32.637,72.895 -72.896,72.895c-40.259,-0 -72.897,-32.635 -72.897,-72.895c-0,-40.26 32.638,-72.895 72.897,-72.895c40.259,-0 72.896,32.635 72.896,72.895" style="fill:#344f6a;fill-rule:nonzero;"/><g opacity="0.5"><path d="M348.426,-5.794c-0,40.26 -32.637,72.895 -72.896,72.895c-40.26,0 -72.897,-32.635 -72.897,-72.895c-0,-40.26 32.637,-72.895 72.897,-72.895c40.259,0 72.896,32.635 72.896,72.895" style="fill:#344f6a;fill-rule:nonzero;"/></g><g opacity="0.5"><path d="M-33.756,25.852l96.79,53.378l9.832,-89.635l-106.622,36.257Z" style="fill:#f4466b;fill-rule:nonzero;"/><path d="M72.866,-10.405l-29.792,40.153l19.96,49.482l9.832,-89.635Z" style="fill:#ff7d9f;fill-rule:nonzero;"/><path d="M43.074,29.749l29.792,-40.153l-106.622,36.257l76.83,3.896Z" style="fill:#c92d56;fill-rule:nonzero;"/></g><g opacity="0.5"><path d="M21.443,238.756l145.154,80.047l14.746,-134.418l-159.9,54.371Z" style="fill:#f4466b;fill-rule:nonzero;"/><path d="M181.344,184.385l-44.679,60.213l29.933,74.205l14.746,-134.418Z" style="fill:#ff7d9f;fill-rule:nonzero;"/><path d="M136.665,244.598l44.679,-60.213l-159.901,54.371l115.222,5.842Z" style="fill:#c92d56;fill-rule:nonzero;"/></g><g opacity="0.5"><path d="M203.651,231.35l69.708,90.866l-10.848,-110.881l-58.86,20.015Z" style="fill:#f4466b;fill-rule:nonzero;"/><path d="M262.512,211.336l-16.448,22.166l27.296,88.715l-10.848,-110.881Z" style="fill:#ff7d9f;fill-rule:nonzero;"/><path d="M246.064,233.502l16.448,-22.166l-58.861,20.015l42.413,2.151Z" style="fill:#c92d56;fill-rule:nonzero;"/></g><path d="M78.773,129.473l121.372,-47.553l-88.174,-78.314l-33.198,125.867Z" style="fill:#40637f;fill-rule:nonzero;"/><path d="M111.972,3.606l22.466,58.38l65.708,19.934l-88.174,-78.314Z" style="fill:#4b728c;fill-rule:nonzero;"/><path d="M134.437,61.986l-22.466,-58.38l-33.198,125.867l55.664,-67.487Z" style="fill:#344f6a;fill-rule:nonzero;"/><path d="M213.098,217.832l-23.508,-80.252l-55.041,51.904l78.549,28.348Z" style="fill:#40637f;fill-rule:nonzero;"/><path d="M134.549,189.484l38.579,-11.047l16.462,-40.857l-55.041,51.904Z" style="fill:#4b728c;fill-rule:nonzero;"/><path d="M173.128,178.437l-38.579,11.047l78.549,28.348l-39.97,-39.395Z" style="fill:#344f6a;fill-rule:nonzero;"/><path d="M243.84,41.206c0,17.647 -14.303,31.95 -31.95,31.95c-17.645,0 -31.95,-14.303 -31.95,-31.95c0,-17.646 14.305,-31.952 31.95,-31.952c17.647,0 31.95,14.306 31.95,31.952" style="fill:#f4466b;fill-rule:nonzero;"/><path d="M169.736,153.772l0.401,0.401l-34.829,34.829l-0.401,-0.401l34.829,-34.829Z" style="fill:#fff;"/><path d="M177.205,131.382l0.399,0.399l-64.688,64.688l-0.399,-0.399l64.688,-64.688Z" style="fill:#fff;"/><path d="M97.987,196.478l-0.398,-0.4l79.625,-79.629l0.399,0.403l-79.626,79.626Z" style="fill:#fff;fill-rule:nonzero;"/><path d="M85.543,193.998l-0.401,-0.4l89.6,-89.6l0.402,0.402l-89.601,89.598Z" style="fill:#fff;fill-rule:nonzero;"/><path d="M73.079,191.541l-0.397,-0.403l99.631,-99.633l0.403,0.399l-99.637,99.637Z" style="fill:#fff;fill-rule:nonzero;"/><path d="M63.088,186.607l-0.397,-0.398l105.151,-105.157l0.402,0.401l-105.156,105.154Z" style="fill:#fff;fill-rule:nonzero;"/><path d="M51.995,182.777l-0.397,-0.398l109.427,-109.429l0.398,0.401l-109.428,109.426Z" style="fill:#fff;fill-rule:nonzero;"/><path d="M44.535,175.319l-0.397,-0.403l109.425,-109.424l0.399,0.398l-109.427,109.429Z" style="fill:#fff;fill-rule:nonzero;"/><path d="M37.073,167.856l-0.397,-0.401l109.429,-109.426l0.397,0.398l-109.429,109.429Z" style="fill:#fff;fill-rule:nonzero;"/><path d="M137.998,51.206l0.404,0.404l-105.155,105.155l-0.404,-0.404l105.155,-105.155Z" style="fill:#fff;"/><path d="M28.316,146.772l-0.403,-0.398l99.637,-99.633l0.399,0.396l-99.633,99.635Z" style="fill:#fff;fill-rule:nonzero;"/><path d="M117.558,41.807l0.399,0.399l-94.6,94.6l-0.399,-0.399l94.6,-94.6Z" style="fill:#fff;"/><path d="M20.888,124.358l-0.403,-0.401l84.611,-84.608l0.402,0.396l-84.61,84.613Z" style="fill:#fff;fill-rule:nonzero;"/><path d="M87.673,41.849l0.4,0.4l-64.688,64.689l-0.401,-0.401l64.689,-64.688Z" style="fill:#fff;"/><path d="M28.365,87.036l-0.4,-0.401l39.805,-39.804l0.399,0.397l-39.804,39.808Z" style="fill:#fff;fill-rule:nonzero;"/><path d="M234.099,233.091l0.135,0.133l-15.397,15.484l-0.134,-0.134l15.396,-15.483Z" style="fill:#fff;"/><path d="M237.412,223.164l0.176,0.176l-28.678,28.678l-0.176,-0.176l28.678,-28.678Z" style="fill:#fff;"/><path d="M202.291,252.02l-0.176,-0.174l35.302,-35.302l0.176,0.18l-35.302,35.296Z" style="fill:#fff;fill-rule:nonzero;"/><path d="M196.775,250.923l-0.179,-0.178l39.723,-39.72l0.179,0.178l-39.723,39.72Z" style="fill:#fff;fill-rule:nonzero;"/><path d="M191.249,249.833l-0.176,-0.18l44.17,-44.169l0.178,0.18l-44.172,44.169Z" style="fill:#fff;fill-rule:nonzero;"/><path d="M186.82,247.645l-0.177,-0.176l46.618,-46.619l0.178,0.18l-46.619,46.615Z" style="fill:#fff;fill-rule:nonzero;"/><path d="M181.902,245.948l-0.177,-0.176l48.515,-48.512l0.176,0.177l-48.514,48.511Z" style="fill:#fff;fill-rule:nonzero;"/><path d="M178.594,242.641l-0.177,-0.178l48.512,-48.51l0.177,0.176l-48.512,48.512Z" style="fill:#fff;fill-rule:nonzero;"/><path d="M175.287,239.333l-0.177,-0.176l48.514,-48.514l0.176,0.179l-48.513,48.511Z" style="fill:#fff;fill-rule:nonzero;"/><path d="M173.589,234.417l-0.177,-0.18l46.617,-46.618l0.179,0.179l-46.619,46.619Z" style="fill:#fff;fill-rule:nonzero;"/><path d="M215.398,185.64l0.175,0.176l-44.169,44.169l-0.176,-0.175l44.17,-44.17Z" style="fill:#fff;"/><path d="M169.206,225.569l-0.177,-0.178l41.939,-41.939l0.177,0.178l-41.939,41.939Z" style="fill:#fff;fill-rule:nonzero;"/><path d="M168.109,220.049l-0.176,-0.178l37.509,-37.51l0.178,0.177l-37.511,37.511Z" style="fill:#fff;fill-rule:nonzero;"/><path d="M169.216,212.327l-0.177,-0.178l28.679,-28.677l0.178,0.177l-28.68,28.678Z" style="fill:#fff;fill-rule:nonzero;"/><path d="M171.426,203.505l-0.178,-0.179l17.647,-17.646l0.177,0.178l-17.646,17.647Z" style="fill:#fff;fill-rule:nonzero;"/><path d="M250.851,87.591l0.14,0.14l-12.18,12.18l-0.14,-0.14l12.18,-12.18Z" style="fill:#fff;"/><path d="M230.98,102.522l-0.139,-0.14l22.624,-22.621l0.139,0.137l-22.624,22.624Z" style="fill:#fff;fill-rule:nonzero;"/><path d="M225.759,102.524l-0.139,-0.138l27.849,-27.849l0.139,0.142l-27.849,27.845Z" style="fill:#fff;fill-rule:nonzero;"/><path d="M221.407,101.657l-0.141,-0.14l31.336,-31.334l0.141,0.14l-31.336,31.334Z" style="fill:#fff;fill-rule:nonzero;"/><path d="M217.048,100.798l-0.139,-0.142l34.845,-34.844l0.14,0.141l-34.846,34.845Z" style="fill:#fff;fill-rule:nonzero;"/><path d="M213.554,99.073l-0.139,-0.14l36.776,-36.776l0.139,0.142l-36.776,36.774Z" style="fill:#fff;fill-rule:nonzero;"/><path d="M209.674,97.733l-0.14,-0.138l38.272,-38.271l0.139,0.14l-38.271,38.269Z" style="fill:#fff;fill-rule:nonzero;"/><path d="M245.195,56.715l0.14,0.14l-38.27,38.269l-0.139,-0.139l38.269,-38.27Z" style="fill:#fff;"/><path d="M242.587,54.104l0.14,0.14l-38.271,38.271l-0.14,-0.14l38.271,-38.271Z" style="fill:#fff;"/><path d="M203.117,88.637l-0.14,-0.142l36.774,-36.776l0.142,0.142l-36.776,36.776Z" style="fill:#fff;fill-rule:nonzero;"/><path d="M236.099,50.158l0.139,0.139l-34.845,34.844l-0.138,-0.138l34.844,-34.845Z" style="fill:#fff;"/><path d="M232.603,48.432l0.141,0.14l-33.085,33.085l-0.14,-0.141l33.084,-33.084Z" style="fill:#fff;"/><path d="M228.245,47.572l0.14,0.14l-29.591,29.591l-0.14,-0.14l29.591,-29.591Z" style="fill:#fff;"/><path d="M222.151,48.448l0.139,0.139l-22.623,22.623l-0.139,-0.139l22.623,-22.623Z" style="fill:#fff;"/><path d="M201.411,64.251l-0.14,-0.141l13.92,-13.921l0.139,0.14l-13.919,13.922Z" style="fill:#fff;fill-rule:nonzero;"/></g></g><path d="M291.856,70.88l-0,55.503l35.52,8.126l19.608,-61.904l-53.056,-7.304l-2.072,5.579Z" style="fill:url(#_Linear30);fill-rule:nonzero;"/></g><defs><linearGradient id="_Linear1" x1="0" y1="0" x2="1" y2="0" gradientUnits="userSpaceOnUse" gradientTransform="matrix(48.4215,54.8503,-54.8503,48.4215,-158.971,-259.054)"><stop offset="0" style="stop-color:#89bdff;stop-opacity:1"/><stop offset="1" style="stop-color:#1f00ff;stop-opacity:1"/></linearGradient><linearGradient id="_Linear2" x1="0" y1="0" x2="1" y2="0" gradientUnits="userSpaceOnUse" gradientTransform="matrix(50.2938,35.621,-35.621,50.2938,-117.569,-123.154)"><stop offset="0" style="stop-color:#89bdff;stop-opacity:1"/><stop offset="1" style="stop-color:#1f00ff;stop-opacity:1"/></linearGradient><linearGradient id="_Linear3" x1="0" y1="0" x2="1" y2="0" gradientUnits="userSpaceOnUse" gradientTransform="matrix(64.3671,49.8116,-49.8116,64.3671,-93.8936,-119.079)"><stop offset="0" style="stop-color:#89bdff;stop-opacity:1"/><stop offset="1" style="stop-color:#1f00ff;stop-opacity:1"/></linearGradient><linearGradient id="_Linear4" x1="0" y1="0" x2="1" y2="0" gradientUnits="userSpaceOnUse" gradientTransform="matrix(55.94,26.9601,-26.9601,55.94,83.9092,35.7545)"><stop offset="0" style="stop-color:#00ffb4;stop-opacity:1"/><stop offset="1" style="stop-color:#0f2fff;stop-opacity:1"/></linearGradient><linearGradient id="_Linear5" x1="0" y1="0" x2="1" y2="0" gradientUnits="userSpaceOnUse" gradientTransform="matrix(1.54561,25.2521,-25.2521,1.54561,238.298,16.3102)"><stop offset="0" style="stop-color:#00ffb4;stop-opacity:1"/><stop offset="1" style="stop-color:#0f2fff;stop-opacity:1"/></linearGradient><linearGradient id="_Linear6" x1="0" y1="0" x2="1" y2="0" gradientUnits="userSpaceOnUse" gradientTransform="matrix(1.54561,25.2521,-25.2521,1.54561,15.4912,35.1822)"><stop offset="0" style="stop-color:#00ffb4;stop-opacity:1"/><stop offset="1" style="stop-color:#0f2fff;stop-opacity:1"/></linearGradient><radialGradient id="_Radial8" cx="0" cy="0" r="1" gradientUnits="userSpaceOnUse" gradientTransform="matrix(162.965,0,0,163.56,138.052,135.934)"><stop offset="0" style="stop-color:#1f3d52;stop-opacity:1"/><stop offset="1" style="stop-color:#050a12;stop-opacity:1"/></radialGradient><linearGradient id="_Linear9" x1="0" y1="0" x2="1" y2="0" gradientUnits="userSpaceOnUse" gradientTransform="matrix(95.0751,95.0751,-95.0751,95.0751,75.5864,34.1573)"><stop offset="0" style="stop-color:#142836;stop-opacity:1"/><stop offset="1" style="stop-color:#050a12;stop-opacity:1"/></linearGradient><linearGradient id="_Linear10" x1="0" y1="0" x2="1" y2="0" gradientUnits="userSpaceOnUse" gradientTransform="matrix(107.736,107.736,-107.736,107.736,18.833,45.152)"><stop offset="0" style="stop-color:#142836;stop-opacity:1"/><stop offset="1" style="stop-color:#050a12;stop-opacity:1"/></linearGradient><linearGradient id="_Linear11" x1="0" y1="0" x2="1" y2="0" gradientUnits="userSpaceOnUse" gradientTransform="matrix(-6e-06,137.469,-137.469,-6e-06,146.332,-38.0199)"><stop offset="0" style="stop-color:#142836;stop-opacity:1"/><stop offset="1" style="stop-color:#050a12;stop-opacity:1"/></linearGradient><linearGradient id="_Linear12" x1="0" y1="0" x2="1" y2="0" gradientUnits="userSpaceOnUse" gradientTransform="matrix(99.9854,0,0,99.9854,40.375,134.799)"><stop offset="0" style="stop-color:#142836;stop-opacity:1"/><stop offset="1" style="stop-color:#050a12;stop-opacity:1"/></linearGradient><linearGradient id="_Linear13" x1="0" y1="0" x2="1" y2="0" gradientUnits="userSpaceOnUse" gradientTransform="matrix(-123.168,123.168,-123.168,-123.168,126.686,84.8194)"><stop offset="0" style="stop-color:#142836;stop-opacity:1"/><stop offset="1" style="stop-color:#050a12;stop-opacity:1"/></linearGradient><linearGradient id="_Linear14" x1="0" y1="0" x2="1" y2="0" gradientUnits="userSpaceOnUse" gradientTransform="matrix(-1.8e-06,41.6773,-41.6773,-1.8e-06,146.332,73.0768)"><stop offset="0" style="stop-color:#142836;stop-opacity:1"/><stop offset="1" style="stop-color:#050a12;stop-opacity:1"/></linearGradient><linearGradient id="_Linear15" x1="0" y1="0" x2="1" y2="0" gradientUnits="userSpaceOnUse" gradientTransform="matrix(107.989,0,0,107.989,140.36,79.4444)"><stop offset="0" style="stop-color:#142836;stop-opacity:1"/><stop offset="1" style="stop-color:#050a12;stop-opacity:1"/></linearGradient><linearGradient id="_Linear16" x1="0" y1="0" x2="1" y2="0" gradientUnits="userSpaceOnUse" gradientTransform="matrix(107.989,0,0,107.989,140.36,98.2486)"><stop offset="0" style="stop-color:#142836;stop-opacity:1"/><stop offset="1" style="stop-color:#050a12;stop-opacity:1"/></linearGradient><linearGradient id="_Linear17" x1="0" y1="0" x2="1" y2="0" gradientUnits="userSpaceOnUse" gradientTransform="matrix(-2.7e-06,62.106,-62.106,-2.7e-06,109.042,94.046)"><stop offset="0" style="stop-color:#142836;stop-opacity:1"/><stop offset="1" style="stop-color:#050a12;stop-opacity:1"/></linearGradient><linearGradient id="_Linear18" x1="0" y1="0" x2="1" y2="0" gradientUnits="userSpaceOnUse" gradientTransform="matrix(-3.4e-06,77.1788,-77.1788,-3.4e-06,109.042,109.091)"><stop offset="0" style="stop-color:#142836;stop-opacity:1"/><stop offset="1" style="stop-color:#050a12;stop-opacity:1"/></linearGradient><linearGradient id="_Linear19" x1="0" y1="0" x2="1" y2="0" gradientUnits="userSpaceOnUse" gradientTransform="matrix(113.96,0,0,113.96,40.375,176.343)"><stop offset="0" style="stop-color:#142836;stop-opacity:1"/><stop offset="1" style="stop-color:#050a12;stop-opacity:1"/></linearGradient><linearGradient id="_Linear20" x1="0" y1="0" x2="1" y2="0" gradientUnits="userSpaceOnUse" gradientTransform="matrix(98.1562,0,0,98.1562,154.335,207.221)"><stop offset="0" style="stop-color:#142836;stop-opacity:1"/><stop offset="1" style="stop-color:#050a12;stop-opacity:1"/></linearGradient><linearGradient id="_Linear21" x1="0" y1="0" x2="1" y2="0" gradientUnits="userSpaceOnUse" gradientTransform="matrix(74.7808,0,0,74.7808,177.71,169.342)"><stop offset="0" style="stop-color:#142836;stop-opacity:1"/><stop offset="1" style="stop-color:#050a12;stop-opacity:1"/></linearGradient><linearGradient id="_Linear22" x1="0" y1="0" x2="1" y2="0" gradientUnits="userSpaceOnUse" gradientTransform="matrix(70.6392,0,0,70.6392,177.71,101.573)"><stop offset="0" style="stop-color:#142836;stop-opacity:1"/><stop offset="1" style="stop-color:#050a12;stop-opacity:1"/></linearGradient><linearGradient id="_Linear23" x1="0" y1="0" x2="1" y2="0" gradientUnits="userSpaceOnUse" gradientTransform="matrix(-141.822,-1.24e-05,1.24e-05,-141.822,210.812,230.897)"><stop offset="0" style="stop-color:#142836;stop-opacity:1"/><stop offset="1" style="stop-color:#050a12;stop-opacity:1"/></linearGradient><linearGradient id="_Linear24" x1="0" y1="0" x2="1" y2="0" gradientUnits="userSpaceOnUse" gradientTransform="matrix(98.1562,0,0,98.1562,154.335,169.342)"><stop offset="0" style="stop-color:#142836;stop-opacity:1"/><stop offset="1" style="stop-color:#050a12;stop-opacity:1"/></linearGradient><linearGradient id="_Linear25" x1="0" y1="0" x2="1" y2="0" gradientUnits="userSpaceOnUse" gradientTransform="matrix(257.729,257.729,-257.729,257.729,-62.9932,98.2447)"><stop offset="0" style="stop-color:#142836;stop-opacity:1"/><stop offset="1" style="stop-color:#050a12;stop-opacity:1"/></linearGradient><linearGradient id="_Linear26" x1="0" y1="0" x2="1" y2="0" gradientUnits="userSpaceOnUse" gradientTransform="matrix(57.786,57.786,-57.786,57.786,103.157,201.015)"><stop offset="0" style="stop-color:#142836;stop-opacity:1"/><stop offset="1" style="stop-color:#050a12;stop-opacity:1"/></linearGradient><linearGradient id="_Linear27" x1="0" y1="0" x2="1" y2="0" gradientUnits="userSpaceOnUse" gradientTransform="matrix(-3.2e-06,73.4345,-73.4345,-3.2e-06,207.478,189.314)"><stop offset="0" style="stop-color:#142836;stop-opacity:1"/><stop offset="1" style="stop-color:#050a12;stop-opacity:1"/></linearGradient><linearGradient id="_Linear28" x1="0" y1="0" x2="1" y2="0" gradientUnits="userSpaceOnUse" gradientTransform="matrix(112.212,0,0,112.212,111.741,250.739)"><stop offset="0" style="stop-color:#142836;stop-opacity:1"/><stop offset="1" style="stop-color:#050a12;stop-opacity:1"/></linearGradient><linearGradient id="_Linear29" x1="0" y1="0" x2="1" y2="0" gradientUnits="userSpaceOnUse" gradientTransform="matrix(37.0881,17.8745,-17.8745,37.0881,11.6074,231.539)"><stop offset="0" style="stop-color:#00ffb4;stop-opacity:1"/><stop offset="1" style="stop-color:#0f2fff;stop-opacity:1"/></linearGradient><linearGradient id="_Linear30" x1="0" y1="0" x2="1" y2="0" gradientUnits="userSpaceOnUse" gradientTransform="matrix(42.1893,80.089,-80.089,42.1893,279.339,39.2657)"><stop offset="0" style="stop-color:#ffd956;stop-opacity:1"/><stop offset="1" style="stop-color:#fc8e0c;stop-opacity:1"/></linearGradient></defs></svg>