<?xml version="1.0" encoding="UTF-8" standalone="no"?><!DOCTYPE svg PUBLIC "-//W3C//DTD SVG 1.1//EN" "http://www.w3.org/Graphics/SVG/1.1/DTD/svg11.dtd"><svg width="100%" height="100%" viewBox="0 0 272 272" version="1.1" xmlns="http://www.w3.org/2000/svg" xmlns:xlink="http://www.w3.org/1999/xlink" xml:space="preserve" xmlns:serif="http://www.serif.com/" style="fill-rule:evenodd;clip-rule:evenodd;stroke-linejoin:round;stroke-miterlimit:2;"><g id="Layer1"><rect x="-640" y="-636" width="1251.32" height="1272.9" style="fill:#222;"/></g><g id="Layer-1" serif:id="Layer 1"><path d="M86.085,71.048l60.623,-21.271l-48.665,-42.055l-11.958,63.326Zm12.981,-60.391l44.597,38.541l-55.555,19.493l10.958,-58.034Z" style="fill:url(#_Linear1);fill-rule:nonzero;"/><path d="M226.753,23.852l19.547,17.353l5.201,-25.665l-24.748,8.312Zm1.235,0.252l22.679,-7.618l-4.766,23.521l-17.913,-15.903Z" style="fill:url(#_Linear2);fill-rule:nonzero;"/><path d="M3.947,42.725l19.546,17.352l5.202,-25.664l-24.748,8.312Zm1.233,0.252l22.68,-7.618l-4.766,23.52l-17.914,-15.902Z" style="fill:url(#_Linear3);fill-rule:nonzero;"/><rect x="-0.145" y="0.449" width="273.265" height="274.261" style="fill:#fff;"/><rect x="-0.144" y="0.448" width="273.264" height="274.261" style="fill:url(#_Radial4);"/><g opacity="0.4"><path d="M45.956,85.563l76.733,23.479l3.473,-106.59l-80.206,83.111Z" style="fill:url(#_Linear5);fill-rule:nonzero;"/><path d="M63.742,128.782l58.947,-19.74l-76.733,-23.479l17.786,43.219Z" style="fill:url(#_Linear6);fill-rule:nonzero;"/><path d="M122.689,109.042l48.529,-23.272l-45.056,-83.318l-3.473,106.59Z" style="fill:url(#_Linear7);fill-rule:nonzero;"/><path d="M40.997,160.557l99.985,-47.567l-18.293,-3.948l-81.692,51.515Z" style="fill:url(#_Linear8);fill-rule:nonzero;"/><path d="M63.742,128.782l-22.745,31.775l81.692,-51.515l-58.947,19.74Z" style="fill:url(#_Linear9);fill-rule:nonzero;"/><path d="M122.689,109.042l18.293,3.948l30.236,-27.22l-48.529,23.272Z" style="fill:url(#_Linear10);fill-rule:nonzero;"/><path d="M171.218,85.77l-30.236,27.22l107.989,-67.091l-77.753,39.871Z" style="fill:url(#_Linear11);fill-rule:nonzero;"/><path d="M140.982,112.99l37.351,37.609l70.638,-104.7l-107.989,67.091Z" style="fill:url(#_Linear12);fill-rule:nonzero;"/><path d="M40.997,160.557l137.336,-9.958l-37.351,-37.609l-99.985,47.567Z" style="fill:url(#_Linear13);fill-rule:nonzero;"/><path d="M40.997,160.557l113.96,26.822l23.376,-36.78l-137.336,9.958Z" style="fill:url(#_Linear14);fill-rule:nonzero;"/><path d="M54.982,192.131l99.975,-4.752l-113.96,-26.822l13.985,31.574Z" style="fill:url(#_Linear15);fill-rule:nonzero;"/><path d="M163.088,227.064l90.024,-38.979l-98.155,-0.706l8.131,39.685Z" style="fill:url(#_Linear16);fill-rule:nonzero;"/><path d="M253.112,188.085l-24.979,-30.836l-49.8,-6.65l74.779,37.486Z" style="fill:url(#_Linear17);fill-rule:nonzero;"/><path d="M178.333,150.599l49.8,6.65l20.838,-111.35l-70.638,104.7Z" style="fill:url(#_Linear18);fill-rule:nonzero;"/><path d="M54.982,192.131l57.381,82.284l42.594,-87.036l-99.975,4.752Z" style="fill:url(#_Linear19);fill-rule:nonzero;"/><path d="M154.957,187.379l98.155,0.706l-74.779,-37.486l-23.376,36.78Z" style="fill:url(#_Linear20);fill-rule:nonzero;"/><path d="M58.152,242.235l54.211,32.18l-57.381,-82.284l3.17,50.104Z" style="fill:url(#_Linear21);fill-rule:nonzero;"/><path d="M112.363,274.415l50.725,-47.351l-8.131,-39.685l-42.594,87.036Z" style="fill:url(#_Linear22);fill-rule:nonzero;"/><path d="M163.088,227.064l61.487,21.404l28.537,-60.383l-90.024,38.979Z" style="fill:url(#_Linear23);fill-rule:nonzero;"/><path d="M112.363,274.415l112.212,-25.947l-61.487,-21.404l-50.725,47.351Z" style="fill:url(#_Linear24);fill-rule:nonzero;"/></g><g><clipPath id="_clip25"><rect x="-0.144" y="0.448" width="273.264" height="274.261" clip-rule="nonzero"/></clipPath><g clip-path="url(#_clip25)"><path d="M13.26,254.938l40.191,-14.103l-32.263,-27.883l-7.928,41.986Zm8.605,-40.039l29.567,25.553l-36.831,12.922l7.264,-38.475Z" style="fill:url(#_Linear26);fill-rule:nonzero;"/><path d="M57.262,223.124c-0,40.26 -32.637,72.895 -72.896,72.895c-40.259,-0 -72.897,-32.635 -72.897,-72.895c-0,-40.26 32.638,-72.895 72.897,-72.895c40.259,-0 72.896,32.635 72.896,72.895" style="fill:#344f6a;fill-rule:nonzero;"/><path d="M349.048,-5.794c-0,40.26 -32.637,72.895 -72.896,72.895c-40.26,0 -72.897,-32.635 -72.897,-72.895c-0,-40.26 32.637,-72.895 72.897,-72.895c40.259,0 72.896,32.635 72.896,72.895" style="fill:#344f6a;fill-rule:nonzero;"/><g opacity="0.4"><path d="M55.521,16.111l33.5,25.754l-32.51,33.245l-34.805,-22.561l33.815,-36.438Z" style="fill:url(#_Linear27);fill-rule:nonzero;"/><path d="M41.924,-9.772l13.597,25.883l33.5,25.754l-15.464,-26.368l-31.633,-25.269Z" style="fill:url(#_Linear28);fill-rule:nonzero;"/><path d="M10.647,24.985l31.276,-34.757l13.597,25.883l-33.814,36.438l-11.059,-27.564Z" style="fill:#f53a55;fill-rule:nonzero;"/></g><path d="M198.706,193.549l34.804,22.561l32.51,-33.245l-33.5,-25.754l-33.814,36.438Z" style="fill:url(#_Linear29);fill-rule:nonzero;"/></g></g><path d="M232.52,157.111l33.5,25.754l-15.464,-26.368l-31.632,-25.269l13.596,25.883Z" style="fill:url(#_Linear30);fill-rule:nonzero;"/><g><clipPath id="_clip31"><rect x="-0.144" y="0.448" width="273.264" height="274.261" clip-rule="nonzero"/></clipPath><g clip-path="url(#_clip31)"><path d="M187.647,165.985l31.276,-34.757l13.597,25.883l-33.814,36.438l-11.059,-27.564Z" style="fill:#f53a55;fill-rule:nonzero;"/><path d="M76.939,11.762l71.618,97.886l101.413,-48.883l-71.557,-84.347l-101.474,35.344Z" style="fill:#45c4db;fill-rule:nonzero;"/><path d="M123.276,168.539l25.28,-58.891l101.413,-48.882l-38.679,61.822l-88.014,45.951Z" style="fill:#5396a8;fill-rule:nonzero;"/><path d="M76.938,11.762l71.618,97.886l-25.28,58.891l-53.234,-86.027l6.897,-70.75Z" style="fill:#05acc7;fill-rule:nonzero;"/><g opacity="0.4"><path d="M26.678,195.427l24.688,33.744l34.96,-16.851l-24.667,-29.078l-34.981,12.185Z" style="fill:#45c4db;fill-rule:nonzero;"/><path d="M42.651,249.472l8.715,-20.301l34.96,-16.851l-13.334,21.312l-30.341,15.84Z" style="fill:#5396a8;fill-rule:nonzero;"/><path d="M26.678,195.427l24.688,33.744l-8.714,20.301l-18.351,-29.655l2.377,-24.39Z" style="fill:#05acc7;fill-rule:nonzero;"/></g></g></g><path d="M-0.144,70.88l-0,55.503l35.52,8.126l19.608,-61.904l-53.056,-7.304l-2.072,5.579Z" style="fill:url(#_Linear32);fill-rule:nonzero;"/><g><clipPath id="_clip33"><rect x="-0.144" y="0.448" width="273.264" height="274.261" clip-rule="nonzero"/></clipPath><g clip-path="url(#_clip33)"><path d="M58.983,150.663l-23.607,-16.153l19.607,-61.905l21.152,24.283l-17.152,53.775Z" style="fill:#cc6c00;fill-rule:nonzero;"/><path d="M-19.141,122.037l28.106,16.968l50.018,11.658l-23.607,-16.153l-54.517,-12.473Z" style="fill:#9d4f00;fill-rule:nonzero;"/><g opacity="0.4"><path d="M129.859,281.037l21.069,-56.736l53.055,7.304l-19.607,61.904l-54.517,-12.472Z" style="fill:url(#_Linear34);fill-rule:nonzero;"/><path d="M207.983,309.663l-23.607,-16.153l19.607,-61.905l21.152,24.283l-17.152,53.775Z" style="fill:#cc6c00;fill-rule:nonzero;"/><path d="M129.859,281.037l28.106,16.968l50.018,11.658l-23.607,-16.153l-54.517,-12.473Z" style="fill:#9d4f00;fill-rule:nonzero;"/></g><path d="M118.242,169.242l-28.101,4.562l8.575,-18.878l22.709,-3.86l-3.183,18.176Z" style="fill:#3b6374;fill-rule:nonzero;"/><path d="M101.963,194.915l-11.821,-21.11l28.1,-4.563l10.899,23.683l-27.178,1.99Z" style="fill:#325a6d;fill-rule:nonzero;"/><path d="M121.425,151.066l-3.183,18.176l10.899,23.682l1.105,-21.338l-8.821,-20.52Z" style="fill:#1a3644;fill-rule:nonzero;"/><g opacity="0.4"><path d="M235.862,48.558l-31.802,5.164l9.704,-21.366l25.7,-4.368l-3.602,20.57Z" style="fill:#3b6374;fill-rule:nonzero;"/><path d="M217.439,77.612l-13.379,-23.891l31.803,-5.163l12.334,26.802l-30.758,2.252Z" style="fill:#325a6d;fill-rule:nonzero;"/><path d="M239.464,27.988l-3.602,20.57l12.334,26.802l1.251,-24.15l-9.983,-23.222Z" style="fill:#1a3644;fill-rule:nonzero;"/></g><path d="M112.446,59.989l-4.338,41.591l25.481,42.826l48.513,-24.26l20.312,-36.312l-35.562,-42.796l-54.406,18.951Z" style="fill:#45c4db;fill-rule:nonzero;"/><path d="M166.852,41.038l-11.592,42.658l-47.152,17.884l4.338,-41.591l54.406,-18.951Z" style="fill:#5396a8;fill-rule:nonzero;"/><path d="M166.852,41.038l35.562,42.796l-20.312,36.312l-26.842,-36.45l11.592,-42.658Z" style="fill:#05acc7;fill-rule:nonzero;"/><path d="M128.776,66.088l22.675,30.991l32.107,-15.477l-22.655,-26.704l-32.127,11.19Z" style="fill:#45c4db;fill-rule:nonzero;"/><path d="M143.447,115.723l8.004,-18.644l32.107,-15.477l-12.245,19.573l-27.866,14.548Z" style="fill:#5396a8;fill-rule:nonzero;"/><path d="M128.776,66.088l22.675,30.991l-8.004,18.644l-16.854,-27.235l2.183,-22.4Z" style="fill:#05acc7;fill-rule:nonzero;"/><path d="M166.636,72.838l10.123,13.836l14.335,-6.909l-10.115,-11.923l-14.343,4.996Z" style="fill:#45c4db;fill-rule:nonzero;"/><path d="M173.185,94.998l3.574,-8.324l14.335,-6.91l-5.468,8.739l-12.441,6.495Z" style="fill:#5396a8;fill-rule:nonzero;"/><path d="M166.636,72.838l10.123,13.836l-3.574,8.325l-7.525,-12.161l0.976,-10Z" style="fill:#05acc7;fill-rule:nonzero;"/><path d="M158.752,54.493l7.528,10.29l10.66,-5.139l-7.521,-8.866l-10.667,3.715Z" style="fill:#45c4db;fill-rule:nonzero;"/><path d="M163.623,70.974l2.657,-6.191l10.66,-5.138l-4.066,6.498l-9.251,4.831Z" style="fill:#5396a8;fill-rule:nonzero;"/><path d="M158.752,54.493l7.528,10.29l-2.657,6.19l-5.596,-9.043l0.725,-7.437Z" style="fill:#05acc7;fill-rule:nonzero;"/></g></g></g><defs><linearGradient id="_Linear1" x1="0" y1="0" x2="1" y2="0" gradientUnits="userSpaceOnUse" gradientTransform="matrix(55.94,26.9601,-26.9601,55.94,84.5332,35.7545)"><stop offset="0" style="stop-color:#00ffb4;stop-opacity:1"/><stop offset="1" style="stop-color:#0f2fff;stop-opacity:1"/></linearGradient><linearGradient id="_Linear2" x1="0" y1="0" x2="1" y2="0" gradientUnits="userSpaceOnUse" gradientTransform="matrix(1.54561,25.2521,-25.2521,1.54561,238.919,16.3082)"><stop offset="0" style="stop-color:#00ffb4;stop-opacity:1"/><stop offset="1" style="stop-color:#0f2fff;stop-opacity:1"/></linearGradient><linearGradient id="_Linear3" x1="0" y1="0" x2="1" y2="0" gradientUnits="userSpaceOnUse" gradientTransform="matrix(1.54561,25.2521,-25.2521,1.54561,16.1133,35.1812)"><stop offset="0" style="stop-color:#00ffb4;stop-opacity:1"/><stop offset="1" style="stop-color:#0f2fff;stop-opacity:1"/></linearGradient><radialGradient id="_Radial4" cx="0" cy="0" r="1" gradientUnits="userSpaceOnUse" gradientTransform="matrix(162.965,0,0,163.56,138.673,135.934)"><stop offset="0" style="stop-color:#1f3d52;stop-opacity:1"/><stop offset="1" style="stop-color:#050a12;stop-opacity:1"/></radialGradient><linearGradient id="_Linear5" x1="0" y1="0" x2="1" y2="0" gradientUnits="userSpaceOnUse" gradientTransform="matrix(95.0751,95.0751,-95.0751,95.0751,76.209,34.1573)"><stop offset="0" style="stop-color:#142836;stop-opacity:1"/><stop offset="1" style="stop-color:#050a12;stop-opacity:1"/></linearGradient><linearGradient id="_Linear6" x1="0" y1="0" x2="1" y2="0" gradientUnits="userSpaceOnUse" gradientTransform="matrix(107.738,107.738,-107.738,107.738,19.4541,45.1505)"><stop offset="0" style="stop-color:#142836;stop-opacity:1"/><stop offset="1" style="stop-color:#050a12;stop-opacity:1"/></linearGradient><linearGradient id="_Linear7" x1="0" y1="0" x2="1" y2="0" gradientUnits="userSpaceOnUse" gradientTransform="matrix(-6e-06,137.469,-137.469,-6e-06,146.953,-38.0199)"><stop offset="0" style="stop-color:#142836;stop-opacity:1"/><stop offset="1" style="stop-color:#050a12;stop-opacity:1"/></linearGradient><linearGradient id="_Linear8" x1="0" y1="0" x2="1" y2="0" gradientUnits="userSpaceOnUse" gradientTransform="matrix(99.9854,0,0,99.9854,40.9971,134.799)"><stop offset="0" style="stop-color:#142836;stop-opacity:1"/><stop offset="1" style="stop-color:#050a12;stop-opacity:1"/></linearGradient><linearGradient id="_Linear9" x1="0" y1="0" x2="1" y2="0" gradientUnits="userSpaceOnUse" gradientTransform="matrix(-123.168,123.168,-123.168,-123.168,127.308,84.8194)"><stop offset="0" style="stop-color:#142836;stop-opacity:1"/><stop offset="1" style="stop-color:#050a12;stop-opacity:1"/></linearGradient><linearGradient id="_Linear10" x1="0" y1="0" x2="1" y2="0" gradientUnits="userSpaceOnUse" gradientTransform="matrix(-1.8e-06,41.6773,-41.6773,-1.8e-06,146.953,73.0768)"><stop offset="0" style="stop-color:#142836;stop-opacity:1"/><stop offset="1" style="stop-color:#050a12;stop-opacity:1"/></linearGradient><linearGradient id="_Linear11" x1="0" y1="0" x2="1" y2="0" gradientUnits="userSpaceOnUse" gradientTransform="matrix(107.989,0,0,107.989,140.982,79.4444)"><stop offset="0" style="stop-color:#142836;stop-opacity:1"/><stop offset="1" style="stop-color:#050a12;stop-opacity:1"/></linearGradient><linearGradient id="_Linear12" x1="0" y1="0" x2="1" y2="0" gradientUnits="userSpaceOnUse" gradientTransform="matrix(107.989,0,0,107.989,140.982,98.2486)"><stop offset="0" style="stop-color:#142836;stop-opacity:1"/><stop offset="1" style="stop-color:#050a12;stop-opacity:1"/></linearGradient><linearGradient id="_Linear13" x1="0" y1="0" x2="1" y2="0" gradientUnits="userSpaceOnUse" gradientTransform="matrix(-2.7e-06,62.106,-62.106,-2.7e-06,109.665,94.046)"><stop offset="0" style="stop-color:#142836;stop-opacity:1"/><stop offset="1" style="stop-color:#050a12;stop-opacity:1"/></linearGradient><linearGradient id="_Linear14" x1="0" y1="0" x2="1" y2="0" gradientUnits="userSpaceOnUse" gradientTransform="matrix(-3.4e-06,77.1788,-77.1788,-3.4e-06,109.665,109.091)"><stop offset="0" style="stop-color:#142836;stop-opacity:1"/><stop offset="1" style="stop-color:#050a12;stop-opacity:1"/></linearGradient><linearGradient id="_Linear15" x1="0" y1="0" x2="1" y2="0" gradientUnits="userSpaceOnUse" gradientTransform="matrix(113.96,0,0,113.96,40.9971,176.343)"><stop offset="0" style="stop-color:#142836;stop-opacity:1"/><stop offset="1" style="stop-color:#050a12;stop-opacity:1"/></linearGradient><linearGradient id="_Linear16" x1="0" y1="0" x2="1" y2="0" gradientUnits="userSpaceOnUse" gradientTransform="matrix(98.1553,0,0,98.1553,154.957,207.221)"><stop offset="0" style="stop-color:#142836;stop-opacity:1"/><stop offset="1" style="stop-color:#050a12;stop-opacity:1"/></linearGradient><linearGradient id="_Linear17" x1="0" y1="0" x2="1" y2="0" gradientUnits="userSpaceOnUse" gradientTransform="matrix(74.7793,0,0,74.7793,178.333,169.342)"><stop offset="0" style="stop-color:#142836;stop-opacity:1"/><stop offset="1" style="stop-color:#050a12;stop-opacity:1"/></linearGradient><linearGradient id="_Linear18" x1="0" y1="0" x2="1" y2="0" gradientUnits="userSpaceOnUse" gradientTransform="matrix(70.6387,0,0,70.6387,178.333,101.573)"><stop offset="0" style="stop-color:#142836;stop-opacity:1"/><stop offset="1" style="stop-color:#050a12;stop-opacity:1"/></linearGradient><linearGradient id="_Linear19" x1="0" y1="0" x2="1" y2="0" gradientUnits="userSpaceOnUse" gradientTransform="matrix(-141.822,-1.24e-05,1.24e-05,-141.822,211.435,230.896)"><stop offset="0" style="stop-color:#142836;stop-opacity:1"/><stop offset="1" style="stop-color:#050a12;stop-opacity:1"/></linearGradient><linearGradient id="_Linear20" x1="0" y1="0" x2="1" y2="0" gradientUnits="userSpaceOnUse" gradientTransform="matrix(98.1553,0,0,98.1553,154.957,169.342)"><stop offset="0" style="stop-color:#142836;stop-opacity:1"/><stop offset="1" style="stop-color:#050a12;stop-opacity:1"/></linearGradient><linearGradient id="_Linear21" x1="0" y1="0" x2="1" y2="0" gradientUnits="userSpaceOnUse" gradientTransform="matrix(257.729,257.729,-257.729,257.729,-62.3711,98.2447)"><stop offset="0" style="stop-color:#142836;stop-opacity:1"/><stop offset="1" style="stop-color:#050a12;stop-opacity:1"/></linearGradient><linearGradient id="_Linear22" x1="0" y1="0" x2="1" y2="0" gradientUnits="userSpaceOnUse" gradientTransform="matrix(57.786,57.786,-57.786,57.786,103.778,201.015)"><stop offset="0" style="stop-color:#142836;stop-opacity:1"/><stop offset="1" style="stop-color:#050a12;stop-opacity:1"/></linearGradient><linearGradient id="_Linear23" x1="0" y1="0" x2="1" y2="0" gradientUnits="userSpaceOnUse" gradientTransform="matrix(-3.2e-06,73.4345,-73.4345,-3.2e-06,208.1,189.314)"><stop offset="0" style="stop-color:#142836;stop-opacity:1"/><stop offset="1" style="stop-color:#050a12;stop-opacity:1"/></linearGradient><linearGradient id="_Linear24" x1="0" y1="0" x2="1" y2="0" gradientUnits="userSpaceOnUse" gradientTransform="matrix(112.212,0,0,112.212,112.363,250.739)"><stop offset="0" style="stop-color:#142836;stop-opacity:1"/><stop offset="1" style="stop-color:#050a12;stop-opacity:1"/></linearGradient><linearGradient id="_Linear26" x1="0" y1="0" x2="1" y2="0" gradientUnits="userSpaceOnUse" gradientTransform="matrix(37.0872,17.8741,-17.8741,37.0872,12.2295,231.538)"><stop offset="0" style="stop-color:#00ffb4;stop-opacity:1"/><stop offset="1" style="stop-color:#0f2fff;stop-opacity:1"/></linearGradient><linearGradient id="_Linear27" x1="0" y1="0" x2="1" y2="0" gradientUnits="userSpaceOnUse" gradientTransform="matrix(5.22814,-58.4425,58.4425,5.22814,52.8975,74.7857)"><stop offset="0" style="stop-color:#b6283d;stop-opacity:1"/><stop offset="1" style="stop-color:#f53b56;stop-opacity:1"/></linearGradient><linearGradient id="_Linear28" x1="0" y1="0" x2="1" y2="0" gradientUnits="userSpaceOnUse" gradientTransform="matrix(-47.6658,-48.6593,48.6593,-47.6658,88.6602,40.4298)"><stop offset="0" style="stop-color:#b6283d;stop-opacity:1"/><stop offset="1" style="stop-color:#f53b56;stop-opacity:1"/></linearGradient><linearGradient id="_Linear29" x1="0" y1="0" x2="1" y2="0" gradientUnits="userSpaceOnUse" gradientTransform="matrix(5.22814,-58.4425,58.4425,5.22814,229.896,215.786)"><stop offset="0" style="stop-color:#b6283d;stop-opacity:1"/><stop offset="1" style="stop-color:#f53b56;stop-opacity:1"/></linearGradient><linearGradient id="_Linear30" x1="0" y1="0" x2="1" y2="0" gradientUnits="userSpaceOnUse" gradientTransform="matrix(-47.6651,-48.6586,48.6586,-47.6651,265.66,181.429)"><stop offset="0" style="stop-color:#b6283d;stop-opacity:1"/><stop offset="1" style="stop-color:#f53b56;stop-opacity:1"/></linearGradient><linearGradient id="_Linear32" x1="0" y1="0" x2="1" y2="0" gradientUnits="userSpaceOnUse" gradientTransform="matrix(42.1893,80.089,-80.089,42.1893,-12.6611,39.2657)"><stop offset="0" style="stop-color:#ffd956;stop-opacity:1"/><stop offset="1" style="stop-color:#fc8e0c;stop-opacity:1"/></linearGradient><linearGradient id="_Linear34" x1="0" y1="0" x2="1" y2="0" gradientUnits="userSpaceOnUse" gradientTransform="matrix(42.1888,80.088,-80.088,42.1888,136.338,198.266)"><stop offset="0" style="stop-color:#ffd956;stop-opacity:1"/><stop offset="1" style="stop-color:#fc8e0c;stop-opacity:1"/></linearGradient></defs></svg>