<?xml version="1.0" encoding="UTF-8" standalone="no"?><!DOCTYPE svg PUBLIC "-//W3C//DTD SVG 1.1//EN" "http://www.w3.org/Graphics/SVG/1.1/DTD/svg11.dtd"><svg width="100%" height="100%" viewBox="0 0 272 272" version="1.1" xmlns="http://www.w3.org/2000/svg" xmlns:xlink="http://www.w3.org/1999/xlink" xml:space="preserve" xmlns:serif="http://www.serif.com/" style="fill-rule:evenodd;clip-rule:evenodd;stroke-linejoin:round;stroke-miterlimit:2;"><g id="Layer1"><rect x="-348" y="-933" width="1251.32" height="1272.9" style="fill:#222;"/></g><g id="Layer-1" serif:id="Layer 1"><g><clipPath id="_clip1"><rect x="-0.796" y="-0.982" width="273.323" height="273.323" clip-rule="nonzero"/></clipPath><g clip-path="url(#_clip1)"><rect x="-0.796" y="-0.982" width="273.322" height="273.322" style="fill:#784acf;"/><path d="M272.526,-0.982l-15.28,0l-186.874,186.874l1.836,60.607l200.318,-200.317l0,-47.164Z" style="fill:#8e5ce9;fill-rule:nonzero;"/><path d="M140.756,-0.982l-141.552,0l0,141.552l141.552,-141.552Z" style="fill:#8e5ce9;fill-rule:nonzero;"/><path d="M249.971,-59.681l2.613,2.613l-123.931,123.883l-2.612,-2.613l123.93,-123.883Z" style="fill:#5b37a6;"/><path d="M6.009,197.716l-3.591,-3.591l88.306,-88.307l3.592,3.592l-88.307,88.306Z" style="fill:#fff;"/><path d="M-1.727,189.981l-3.58,-3.579l88.295,-88.319l3.58,3.578l-88.295,88.32Z" style="fill:#fff;"/><path d="M-9.464,182.244l-3.615,-3.617l88.331,-88.282l3.615,3.617l-88.331,88.282Z" style="fill:#fff;"/><path d="M262.201,166.287l9.58,9.579l-98.065,98.075l-9.58,-9.579l98.065,-98.075Z" style="fill:#8e5ce9;"/><path d="M282.848,186.933l9.581,9.579l-98.066,98.077l-9.581,-9.58l98.066,-98.076Z" style="fill:#8e5ce9;"/><path d="M303.494,207.58l9.59,9.591l-98.075,98.065l-9.59,-9.591l98.075,-98.065Z" style="fill:#8e5ce9;"/><path d="M324.14,228.225l9.581,9.58l-98.065,98.076l-9.582,-9.581l98.066,-98.075Z" style="fill:#8e5ce9;"/><path d="M66.699,232.725c-0,5.071 -4.111,9.183 -9.183,9.183c-5.072,0 -9.183,-4.112 -9.183,-9.183c-0,-5.071 4.111,-9.183 9.183,-9.183c5.072,0 9.183,4.112 9.183,9.183" style="fill:#ff5a25;fill-rule:nonzero;"/><path d="M139.304,307.736c3.869,-11.008 5.25,-22.944 5.309,-34.677c0.113,-22.732 -5.425,-47.194 -22.598,-62.089c-18.928,-16.417 -46.436,-17.01 -71.49,-16.752c-15.159,0.159 -30.319,0.315 -45.478,0.472c-15.36,0.159 -30.928,0.295 -45.805,-3.529c-4.285,-1.102 -8.521,-2.588 -12.576,-4.446l-0,121.021l192.638,-0Z" style="fill:#00b5f6;fill-rule:nonzero;"/><path d="M125.556,-27.285c-3.869,11.008 -5.25,22.944 -5.309,34.677c-0.113,22.732 5.424,47.194 22.598,62.089c18.928,16.417 46.436,17.01 71.49,16.752c15.159,-0.159 30.319,-0.315 45.477,-0.472c15.36,-0.159 30.928,-0.295 45.805,3.529c4.285,1.102 8.522,2.588 12.576,4.446l0,-121.021l-192.637,0Z" style="fill:#00b5f6;fill-rule:nonzero;"/><path d="M242.04,180.699c-0.27,-0 -0.541,-0.103 -0.747,-0.309c-0.413,-0.413 -0.413,-1.082 -0,-1.495l38.603,-38.603c0.412,-0.413 1.082,-0.413 1.494,-0c0.413,0.413 0.413,1.082 -0,1.495l-38.602,38.603c-0.207,0.206 -0.477,0.309 -0.748,0.309" style="fill:#68eddf;fill-rule:nonzero;"/><path d="M-4.759,79.244c-0.27,-0 -0.541,-0.103 -0.747,-0.309c-0.413,-0.413 -0.413,-1.082 -0,-1.495l38.603,-38.603c0.413,-0.413 1.082,-0.413 1.495,-0c0.413,0.413 0.413,1.082 -0,1.495l-38.603,38.603c-0.207,0.206 -0.477,0.309 -0.748,0.309" style="fill:#68eddf;fill-rule:nonzero;"/><path d="M202.14,117.936c-0.271,0 -0.541,-0.104 -0.748,-0.31c-0.412,-0.413 -0.412,-1.082 0,-1.494l38.604,-38.603c0.413,-0.413 1.082,-0.413 1.495,0c0.413,0.412 0.413,1.081 0,1.494l-38.604,38.603c-0.206,0.206 -0.476,0.31 -0.747,0.31" style="fill:#68eddf;fill-rule:nonzero;"/><path d="M215.87,95.957c-0.271,-0 -0.541,-0.103 -0.748,-0.31c-0.412,-0.412 -0.412,-1.081 0,-1.494l38.603,-38.603c0.414,-0.413 1.083,-0.413 1.495,-0c0.413,0.413 0.413,1.082 0,1.495l-38.603,38.602c-0.206,0.207 -0.476,0.31 -0.747,0.31" style="fill:#68eddf;fill-rule:nonzero;"/><path d="M167.205,210.564c0,4.348 -3.524,7.872 -7.872,7.872c-4.348,0 -7.873,-3.524 -7.873,-7.872c0,-4.348 3.525,-7.873 7.873,-7.873c4.348,0 7.872,3.525 7.872,7.873" style="fill:#fff;fill-rule:nonzero;"/><path d="M132.931,267.287c0,4.349 -3.524,7.873 -7.872,7.873c-4.348,-0 -7.873,-3.524 -7.873,-7.873c0,-4.348 3.525,-7.872 7.873,-7.872c4.348,-0 7.872,3.524 7.872,7.872" style="fill:#ffd350;fill-rule:nonzero;"/><path d="M236.238,211.088l-6.944,-0l0,-6.943l-7.265,-0l0,6.943l-6.944,-0l0,7.267l6.944,-0l0,6.943l7.265,-0l0,-6.943l6.944,-0l0,-7.267Z" style="fill:#00b5f6;fill-rule:nonzero;"/><path d="M177.12,142.623l-6.944,-0l0,-6.943l-7.265,-0l0,6.943l-6.944,-0l0,7.267l6.944,-0l0,6.943l7.265,-0l0,-6.943l6.944,-0l0,-7.267Z" style="fill:#00b5f6;fill-rule:nonzero;"/><path d="M117.825,104.522l-6.944,0l0,-6.944l-7.265,0l0,6.944l-6.945,0l0,7.265l6.945,0l0,6.945l7.265,0l0,-6.945l6.944,0l0,-7.265Z" style="fill:#ffe63e;fill-rule:nonzero;"/><path d="M33.43,257.22c-14.24,0 -25.785,-11.543 -25.785,-25.785c0,-14.24 11.545,-25.785 25.785,-25.785c14.241,0 25.785,11.545 25.785,25.785c0,14.242 -11.544,25.785 -25.785,25.785m0,-69.051c-23.895,0 -43.266,19.371 -43.266,43.266c0,23.896 19.371,43.266 43.266,43.266c23.896,0 43.267,-19.37 43.267,-43.266c0,-23.895 -19.371,-43.266 -43.267,-43.266" style="fill:#ffe63e;"/><path d="M240.374,37.22c-14.24,0 -25.785,-11.543 -25.785,-25.785c-0,-14.24 11.545,-25.785 25.785,-25.785c14.241,0 25.785,11.545 25.785,25.785c-0,14.242 -11.544,25.785 -25.785,25.785m-0,-69.051c-23.895,0 -43.266,19.371 -43.266,43.266c-0,23.896 19.371,43.266 43.266,43.266c23.895,0 43.266,-19.37 43.266,-43.266c-0,-23.895 -19.371,-43.266 -43.266,-43.266" style="fill:#ffe63e;"/><path d="M166.694,3.133c-0.492,0.492 -1.29,0.492 -1.782,0c-0.491,-0.492 -0.491,-1.289 -0,-1.781c0.492,-0.492 1.29,-0.492 1.782,0c0.492,0.492 0.492,1.289 -0,1.781" style="fill:#ffd350;fill-rule:nonzero;"/><path d="M172.362,8.802c-0.492,0.491 -1.29,0.491 -1.782,0c-0.491,-0.493 -0.491,-1.289 -0,-1.782c0.492,-0.491 1.29,-0.491 1.782,0c0.492,0.493 0.492,1.289 -0,1.782" style="fill:#ffd350;fill-rule:nonzero;"/><path d="M178.03,14.469c-0.491,0.493 -1.29,0.493 -1.781,0c-0.492,-0.491 -0.492,-1.289 -0,-1.78c0.491,-0.492 1.29,-0.492 1.781,0c0.492,0.491 0.492,1.289 -0,1.78" style="fill:#ffd350;fill-rule:nonzero;"/><path d="M157.058,1.433c-0.492,0.492 -1.29,0.492 -1.782,0c-0.491,-0.492 -0.491,-1.289 0,-1.781c0.492,-0.492 1.29,-0.492 1.782,0c0.491,0.492 0.491,1.289 0,1.781" style="fill:#ffd350;fill-rule:nonzero;"/><path d="M162.726,7.101c-0.492,0.492 -1.29,0.492 -1.782,0c-0.491,-0.491 -0.491,-1.289 0,-1.781c0.492,-0.492 1.29,-0.492 1.782,0c0.492,0.492 0.492,1.29 0,1.781" style="fill:#ffd350;fill-rule:nonzero;"/><path d="M168.394,12.77c-0.492,0.491 -1.29,0.491 -1.781,0c-0.492,-0.493 -0.492,-1.29 -0,-1.782c0.491,-0.491 1.289,-0.491 1.781,0c0.492,0.492 0.492,1.289 -0,1.782" style="fill:#ffd350;fill-rule:nonzero;"/><path d="M174.062,18.437c-0.492,0.493 -1.29,0.493 -1.781,0c-0.492,-0.491 -0.492,-1.289 -0,-1.78c0.491,-0.492 1.289,-0.492 1.781,0c0.492,0.491 0.492,1.289 -0,1.78" style="fill:#ffd350;fill-rule:nonzero;"/><path d="M147.422,-0.267c-0.492,0.491 -1.29,0.491 -1.782,0c-0.491,-0.492 -0.491,-1.29 -0,-1.781c0.492,-0.492 1.29,-0.492 1.782,0c0.492,0.491 0.492,1.289 -0,1.781" style="fill:#ffd350;fill-rule:nonzero;"/><path d="M153.09,5.401c-0.492,0.492 -1.29,0.492 -1.781,0c-0.492,-0.492 -0.492,-1.29 0,-1.781c0.491,-0.492 1.289,-0.492 1.781,0c0.491,0.491 0.491,1.289 0,1.781" style="fill:#ffd350;fill-rule:nonzero;"/><path d="M158.758,11.069c-0.492,0.492 -1.29,0.492 -1.781,-0c-0.492,-0.491 -0.492,-1.29 0,-1.781c0.491,-0.492 1.289,-0.492 1.781,-0c0.492,0.491 0.492,1.29 0,1.781" style="fill:#ffd350;fill-rule:nonzero;"/><path d="M164.426,16.738c-0.492,0.491 -1.29,0.491 -1.781,-0c-0.492,-0.493 -0.492,-1.29 0,-1.782c0.491,-0.491 1.289,-0.491 1.781,-0c0.492,0.492 0.492,1.289 0,1.782" style="fill:#ffd350;fill-rule:nonzero;"/><path d="M170.094,22.405c-0.492,0.493 -1.29,0.493 -1.781,-0c-0.491,-0.491 -0.491,-1.289 0,-1.78c0.491,-0.492 1.289,-0.492 1.781,-0c0.492,0.491 0.492,1.289 0,1.78" style="fill:#ffd350;fill-rule:nonzero;"/><path d="M143.454,3.701c-0.492,0.491 -1.29,0.491 -1.782,-0c-0.491,-0.492 -0.491,-1.29 0,-1.781c0.492,-0.492 1.29,-0.492 1.782,-0c0.492,0.491 0.492,1.289 0,1.781" style="fill:#ffd350;fill-rule:nonzero;"/><path d="M149.122,9.369c-0.491,0.492 -1.289,0.492 -1.781,-0c-0.492,-0.492 -0.492,-1.29 0,-1.781c0.492,-0.492 1.29,-0.492 1.781,-0c0.492,0.491 0.492,1.289 0,1.781" style="fill:#ffd350;fill-rule:nonzero;"/><path d="M154.79,15.037c-0.492,0.492 -1.29,0.492 -1.781,-0c-0.492,-0.491 -0.492,-1.29 0,-1.781c0.491,-0.492 1.289,-0.492 1.781,-0c0.492,0.491 0.492,1.29 0,1.781" style="fill:#ffd350;fill-rule:nonzero;"/><path d="M160.458,20.706c-0.492,0.491 -1.289,0.491 -1.781,-0c-0.492,-0.493 -0.492,-1.29 0,-1.782c0.492,-0.491 1.289,-0.491 1.781,-0c0.492,0.492 0.492,1.289 0,1.782" style="fill:#ffd350;fill-rule:nonzero;"/><path d="M166.127,26.373c-0.492,0.492 -1.29,0.492 -1.782,-0c-0.491,-0.491 -0.491,-1.289 -0,-1.781c0.492,-0.491 1.29,-0.491 1.782,-0c0.492,0.492 0.492,1.29 -0,1.781" style="fill:#ffd350;fill-rule:nonzero;"/><path d="M133.818,2c-0.492,0.492 -1.29,0.492 -1.782,-0c-0.491,-0.491 -0.491,-1.289 0,-1.781c0.492,-0.491 1.29,-0.491 1.782,-0c0.492,0.492 0.492,1.29 0,1.781" style="fill:#ffd350;fill-rule:nonzero;"/><path d="M139.486,7.669c-0.492,0.491 -1.29,0.491 -1.782,-0c-0.491,-0.492 -0.491,-1.29 0,-1.782c0.492,-0.491 1.29,-0.491 1.782,-0c0.492,0.492 0.492,1.29 0,1.782" style="fill:#ffd350;fill-rule:nonzero;"/><path d="M145.154,13.337c-0.491,0.492 -1.289,0.492 -1.781,-0c-0.492,-0.492 -0.492,-1.29 0,-1.782c0.492,-0.491 1.29,-0.491 1.781,-0c0.492,0.492 0.492,1.29 0,1.782" style="fill:#ffd350;fill-rule:nonzero;"/><path d="M150.823,19.005c-0.492,0.492 -1.29,0.492 -1.782,-0c-0.492,-0.491 -0.492,-1.29 0,-1.781c0.492,-0.492 1.29,-0.492 1.782,-0c0.492,0.491 0.492,1.29 0,1.781" style="fill:#ffd350;fill-rule:nonzero;"/><path d="M156.491,24.673c-0.492,0.491 -1.29,0.491 -1.782,0c-0.492,-0.493 -0.492,-1.29 0,-1.782c0.492,-0.491 1.29,-0.491 1.782,0c0.492,0.492 0.492,1.289 0,1.782" style="fill:#ffd350;fill-rule:nonzero;"/><path d="M162.159,30.341c-0.492,0.491 -1.29,0.491 -1.782,0c-0.491,-0.492 -0.491,-1.29 0,-1.782c0.492,-0.491 1.29,-0.491 1.782,0c0.492,0.492 0.492,1.29 0,1.782" style="fill:#ffd350;fill-rule:nonzero;"/><path d="M124.182,0.3c-0.492,0.491 -1.29,0.491 -1.781,0c-0.492,-0.493 -0.492,-1.29 0,-1.783c0.491,-0.491 1.289,-0.491 1.781,0c0.492,0.493 0.492,1.29 0,1.783" style="fill:#ffd350;fill-rule:nonzero;"/><path d="M129.851,5.967c-0.492,0.492 -1.29,0.492 -1.782,0c-0.491,-0.491 -0.491,-1.29 -0,-1.781c0.492,-0.491 1.29,-0.491 1.782,0c0.492,0.491 0.492,1.29 -0,1.781" style="fill:#ffd350;fill-rule:nonzero;"/><path d="M135.519,11.636c-0.492,0.491 -1.29,0.491 -1.781,0c-0.492,-0.492 -0.492,-1.29 -0,-1.782c0.491,-0.491 1.289,-0.491 1.781,0c0.492,0.492 0.492,1.29 -0,1.782" style="fill:#ffd350;fill-rule:nonzero;"/><path d="M141.186,17.304c-0.492,0.492 -1.29,0.492 -1.781,0c-0.492,-0.492 -0.492,-1.29 0,-1.782c0.491,-0.491 1.289,-0.491 1.781,0c0.492,0.492 0.492,1.29 0,1.782" style="fill:#ffd350;fill-rule:nonzero;"/><path d="M146.856,22.972c-0.493,0.492 -1.291,0.492 -1.782,0c-0.492,-0.491 -0.492,-1.29 -0,-1.781c0.492,-0.492 1.29,-0.492 1.782,0c0.492,0.491 0.492,1.29 -0,1.781" style="fill:#ffd350;fill-rule:nonzero;"/><path d="M152.523,28.64c-0.492,0.492 -1.29,0.492 -1.782,0c-0.491,-0.491 -0.491,-1.289 0,-1.781c0.492,-0.492 1.29,-0.492 1.782,0c0.492,0.492 0.492,1.29 0,1.781" style="fill:#ffd350;fill-rule:nonzero;"/><path d="M158.191,34.308c-0.492,0.492 -1.29,0.492 -1.782,0c-0.491,-0.491 -0.491,-1.289 0,-1.781c0.492,-0.492 1.29,-0.492 1.782,0c0.492,0.492 0.492,1.29 0,1.781" style="fill:#ffd350;fill-rule:nonzero;"/><path d="M114.546,-1.401c-0.492,0.492 -1.29,0.492 -1.781,0c-0.492,-0.491 -0.492,-1.29 0,-1.781c0.491,-0.492 1.289,-0.492 1.781,0c0.492,0.491 0.492,1.29 0,1.781" style="fill:#ffd350;fill-rule:nonzero;"/><path d="M120.214,4.267c-0.492,0.492 -1.289,0.492 -1.781,0c-0.492,-0.492 -0.492,-1.289 0,-1.782c0.492,-0.491 1.289,-0.491 1.781,0c0.492,0.493 0.492,1.29 0,1.782" style="fill:#ffd350;fill-rule:nonzero;"/><path d="M125.883,9.935c-0.492,0.492 -1.29,0.492 -1.781,0c-0.492,-0.491 -0.492,-1.289 -0,-1.781c0.491,-0.492 1.289,-0.492 1.781,0c0.492,0.492 0.492,1.29 -0,1.781" style="fill:#ffd350;fill-rule:nonzero;"/><path d="M131.551,15.603c-0.492,0.492 -1.29,0.492 -1.781,0c-0.492,-0.491 -0.492,-1.289 -0,-1.781c0.491,-0.492 1.289,-0.492 1.781,0c0.492,0.492 0.492,1.29 -0,1.781" style="fill:#ffd350;fill-rule:nonzero;"/><path d="M137.219,21.272c-0.492,0.491 -1.289,0.491 -1.781,0c-0.492,-0.492 -0.492,-1.29 -0,-1.782c0.492,-0.491 1.289,-0.491 1.781,0c0.492,0.492 0.492,1.29 -0,1.782" style="fill:#ffd350;fill-rule:nonzero;"/><path d="M142.887,26.94c-0.492,0.492 -1.289,0.492 -1.781,0c-0.492,-0.491 -0.492,-1.29 0,-1.781c0.492,-0.493 1.289,-0.493 1.781,0c0.492,0.491 0.492,1.29 0,1.781" style="fill:#ffd350;fill-rule:nonzero;"/><path d="M148.556,32.608c-0.492,0.491 -1.29,0.491 -1.782,0c-0.491,-0.491 -0.491,-1.289 -0,-1.781c0.492,-0.492 1.29,-0.492 1.782,0c0.492,0.492 0.492,1.29 -0,1.781" style="fill:#ffd350;fill-rule:nonzero;"/><path d="M154.224,38.276c-0.492,0.492 -1.29,0.492 -1.781,0c-0.492,-0.491 -0.492,-1.289 -0,-1.781c0.491,-0.492 1.289,-0.492 1.781,0c0.492,0.492 0.492,1.29 -0,1.781" style="fill:#ffd350;fill-rule:nonzero;"/><path d="M110.579,2.567c-0.492,0.491 -1.29,0.491 -1.782,0c-0.492,-0.491 -0.492,-1.29 0,-1.781c0.492,-0.493 1.29,-0.493 1.782,0c0.491,0.491 0.491,1.29 0,1.781" style="fill:#ffd350;fill-rule:nonzero;"/><path d="M116.247,8.235c-0.492,0.491 -1.29,0.491 -1.782,0c-0.491,-0.492 -0.491,-1.289 0,-1.781c0.492,-0.492 1.29,-0.492 1.782,0c0.492,0.492 0.492,1.289 0,1.781" style="fill:#ffd350;fill-rule:nonzero;"/><path d="M121.915,13.903c-0.492,0.492 -1.29,0.492 -1.781,-0c-0.492,-0.491 -0.492,-1.289 -0,-1.781c0.491,-0.492 1.289,-0.492 1.781,-0c0.492,0.492 0.492,1.29 -0,1.781" style="fill:#ffd350;fill-rule:nonzero;"/><path d="M127.583,19.571c-0.492,0.492 -1.29,0.492 -1.782,-0c-0.492,-0.491 -0.492,-1.289 0,-1.781c0.492,-0.492 1.29,-0.492 1.782,-0c0.492,0.492 0.492,1.29 0,1.781" style="fill:#ffd350;fill-rule:nonzero;"/><path d="M133.251,25.24c-0.492,0.491 -1.29,0.491 -1.781,-0c-0.492,-0.492 -0.492,-1.289 0,-1.782c0.491,-0.491 1.289,-0.491 1.781,-0c0.492,0.493 0.492,1.29 0,1.782" style="fill:#ffd350;fill-rule:nonzero;"/><path d="M138.919,30.908c-0.491,0.492 -1.289,0.492 -1.781,-0c-0.492,-0.492 -0.492,-1.29 0,-1.781c0.492,-0.492 1.29,-0.492 1.781,-0c0.492,0.491 0.492,1.289 0,1.781" style="fill:#ffd350;fill-rule:nonzero;"/><path d="M144.588,36.576c-0.492,0.491 -1.29,0.491 -1.781,-0c-0.492,-0.492 -0.492,-1.289 -0,-1.781c0.491,-0.492 1.289,-0.492 1.781,-0c0.492,0.492 0.492,1.289 -0,1.781" style="fill:#ffd350;fill-rule:nonzero;"/><path d="M150.256,42.244c-0.492,0.492 -1.29,0.492 -1.781,-0c-0.492,-0.492 -0.492,-1.289 -0,-1.781c0.491,-0.491 1.289,-0.491 1.781,-0c0.492,0.492 0.492,1.289 -0,1.781" style="fill:#ffd350;fill-rule:nonzero;"/><path d="M100.943,0.866c-0.492,0.492 -1.29,0.492 -1.782,-0c-0.491,-0.491 -0.491,-1.289 -0,-1.781c0.492,-0.491 1.29,-0.491 1.782,-0c0.492,0.492 0.492,1.29 -0,1.781" style="fill:#ffd350;fill-rule:nonzero;"/><path d="M106.611,6.535c-0.492,0.492 -1.29,0.492 -1.781,-0c-0.492,-0.492 -0.492,-1.29 -0,-1.781c0.491,-0.493 1.289,-0.493 1.781,-0c0.492,0.491 0.492,1.289 -0,1.781" style="fill:#ffd350;fill-rule:nonzero;"/><path d="M112.279,12.203c-0.492,0.491 -1.29,0.491 -1.782,-0c-0.491,-0.492 -0.491,-1.289 0,-1.781c0.492,-0.492 1.29,-0.492 1.782,-0c0.492,0.492 0.492,1.289 0,1.781" style="fill:#ffd350;fill-rule:nonzero;"/><path d="M117.947,17.871c-0.492,0.492 -1.29,0.492 -1.781,-0c-0.492,-0.492 -0.492,-1.289 0,-1.781c0.491,-0.492 1.289,-0.492 1.781,-0c0.492,0.492 0.492,1.289 0,1.781" style="fill:#ffd350;fill-rule:nonzero;"/><path d="M123.616,23.539c-0.492,0.492 -1.29,0.492 -1.782,-0c-0.491,-0.492 -0.491,-1.289 -0,-1.78c0.492,-0.493 1.29,-0.493 1.782,-0c0.492,0.491 0.492,1.288 -0,1.78" style="fill:#ffd350;fill-rule:nonzero;"/><path d="M129.284,29.208c-0.492,0.491 -1.29,0.491 -1.781,-0c-0.492,-0.492 -0.492,-1.289 -0,-1.782c0.491,-0.491 1.289,-0.491 1.781,-0c0.492,0.493 0.492,1.29 -0,1.782" style="fill:#ffd350;fill-rule:nonzero;"/><path d="M134.952,34.875c-0.492,0.493 -1.29,0.493 -1.782,-0c-0.492,-0.491 -0.492,-1.289 0,-1.78c0.492,-0.492 1.29,-0.492 1.782,-0c0.492,0.491 0.492,1.289 0,1.78" style="fill:#ffd350;fill-rule:nonzero;"/><path d="M140.62,40.544c-0.492,0.491 -1.29,0.491 -1.781,-0c-0.492,-0.492 -0.492,-1.289 0,-1.781c0.491,-0.492 1.289,-0.492 1.781,-0c0.492,0.492 0.492,1.289 0,1.781" style="fill:#ffd350;fill-rule:nonzero;"/><path d="M146.289,46.212c-0.492,0.492 -1.29,0.492 -1.782,-0c-0.492,-0.492 -0.492,-1.289 -0,-1.781c0.492,-0.491 1.29,-0.491 1.782,-0c0.492,0.492 0.492,1.289 -0,1.781" style="fill:#ffd350;fill-rule:nonzero;"/><path d="M91.307,-0.834c-0.492,0.492 -1.29,0.492 -1.781,-0c-0.492,-0.492 -0.492,-1.289 -0,-1.781c0.491,-0.492 1.289,-0.492 1.781,-0c0.492,0.492 0.492,1.289 -0,1.781" style="fill:#ffd350;fill-rule:nonzero;"/><path d="M96.975,4.834c-0.492,0.492 -1.29,0.492 -1.781,-0c-0.492,-0.492 -0.492,-1.288 0,-1.781c0.491,-0.491 1.289,-0.491 1.781,-0c0.492,0.493 0.492,1.289 0,1.781" style="fill:#ffd350;fill-rule:nonzero;"/><path d="M102.643,10.502c-0.492,0.493 -1.29,0.493 -1.781,-0c-0.492,-0.491 -0.492,-1.289 0,-1.78c0.491,-0.493 1.289,-0.493 1.781,-0c0.492,0.491 0.492,1.289 0,1.78" style="fill:#ffd350;fill-rule:nonzero;"/><path d="M108.311,16.171c-0.492,0.491 -1.29,0.491 -1.782,-0c-0.491,-0.492 -0.491,-1.289 0,-1.781c0.492,-0.492 1.29,-0.492 1.782,-0c0.492,0.492 0.492,1.289 0,1.781" style="fill:#ffd350;fill-rule:nonzero;"/><path d="M113.979,21.839c-0.492,0.492 -1.29,0.492 -1.781,-0c-0.492,-0.492 -0.492,-1.289 0,-1.781c0.491,-0.492 1.289,-0.492 1.781,-0c0.492,0.492 0.492,1.289 0,1.781" style="fill:#ffd350;fill-rule:nonzero;"/><path d="M119.648,27.506c-0.492,0.492 -1.29,0.492 -1.782,0c-0.491,-0.491 -0.491,-1.289 -0,-1.78c0.492,-0.493 1.29,-0.493 1.782,0c0.492,0.491 0.492,1.289 -0,1.78" style="fill:#ffd350;fill-rule:nonzero;"/><path d="M125.316,33.175c-0.492,0.491 -1.29,0.491 -1.782,0c-0.491,-0.492 -0.491,-1.289 -0,-1.782c0.492,-0.491 1.29,-0.491 1.782,0c0.492,0.493 0.492,1.29 -0,1.782" style="fill:#ffd350;fill-rule:nonzero;"/><path d="M130.984,38.842c-0.492,0.493 -1.29,0.493 -1.782,0c-0.491,-0.491 -0.491,-1.289 0,-1.78c0.492,-0.492 1.29,-0.492 1.782,0c0.492,0.491 0.492,1.289 0,1.78" style="fill:#ffd350;fill-rule:nonzero;"/><path d="M136.652,44.511c-0.492,0.492 -1.29,0.492 -1.781,0c-0.492,-0.492 -0.492,-1.289 0,-1.781c0.491,-0.492 1.289,-0.492 1.781,0c0.492,0.492 0.492,1.289 0,1.781" style="fill:#ffd350;fill-rule:nonzero;"/><path d="M142.321,50.179c-0.492,0.492 -1.29,0.492 -1.782,0c-0.491,-0.492 -0.491,-1.289 -0,-1.781c0.492,-0.491 1.29,-0.491 1.782,0c0.492,0.492 0.492,1.289 -0,1.781" style="fill:#ffd350;fill-rule:nonzero;"/><path d="M87.339,3.133c-0.492,0.492 -1.29,0.492 -1.782,0c-0.491,-0.492 -0.491,-1.289 0,-1.781c0.492,-0.492 1.29,-0.492 1.782,0c0.492,0.492 0.492,1.289 0,1.781" style="fill:#ffd350;fill-rule:nonzero;"/><path d="M93.007,8.802c-0.492,0.491 -1.29,0.491 -1.781,0c-0.492,-0.493 -0.492,-1.289 0,-1.782c0.491,-0.491 1.289,-0.491 1.781,0c0.492,0.493 0.492,1.289 0,1.782" style="fill:#ffd350;fill-rule:nonzero;"/><path d="M98.675,14.469c-0.492,0.493 -1.29,0.493 -1.781,0c-0.492,-0.491 -0.492,-1.289 0,-1.78c0.491,-0.492 1.289,-0.492 1.781,0c0.492,0.491 0.492,1.289 0,1.78" style="fill:#ffd350;fill-rule:nonzero;"/><path d="M104.344,20.138c-0.492,0.491 -1.29,0.491 -1.781,0c-0.492,-0.492 -0.492,-1.289 -0,-1.781c0.491,-0.492 1.289,-0.492 1.781,0c0.492,0.492 0.492,1.289 -0,1.781" style="fill:#ffd350;fill-rule:nonzero;"/><path d="M110.012,25.806c-0.492,0.492 -1.29,0.492 -1.781,0c-0.492,-0.492 -0.492,-1.289 -0,-1.781c0.491,-0.491 1.289,-0.491 1.781,0c0.492,0.492 0.492,1.289 -0,1.781" style="fill:#ffd350;fill-rule:nonzero;"/><path d="M115.68,31.474c-0.492,0.492 -1.29,0.492 -1.781,0c-0.492,-0.491 -0.492,-1.289 0,-1.78c0.491,-0.493 1.289,-0.493 1.781,0c0.492,0.491 0.492,1.289 0,1.78" style="fill:#ffd350;fill-rule:nonzero;"/><path d="M121.348,37.143c-0.492,0.491 -1.29,0.491 -1.781,0c-0.492,-0.493 -0.492,-1.29 0,-1.782c0.491,-0.491 1.289,-0.491 1.781,0c0.492,0.492 0.492,1.289 0,1.782" style="fill:#ffd350;fill-rule:nonzero;"/><path d="M127.016,42.81c-0.492,0.493 -1.289,0.493 -1.781,0c-0.492,-0.491 -0.492,-1.289 0,-1.78c0.492,-0.492 1.289,-0.492 1.781,0c0.492,0.491 0.492,1.289 0,1.78" style="fill:#ffd350;fill-rule:nonzero;"/><path d="M132.685,48.479c-0.492,0.492 -1.29,0.492 -1.782,0c-0.491,-0.492 -0.491,-1.29 -0,-1.781c0.492,-0.492 1.29,-0.492 1.782,0c0.492,0.491 0.492,1.289 -0,1.781" style="fill:#ffd350;fill-rule:nonzero;"/><path d="M138.353,54.147c-0.492,0.492 -1.29,0.492 -1.782,0c-0.491,-0.492 -0.491,-1.289 0,-1.781c0.492,-0.491 1.29,-0.491 1.782,0c0.492,0.492 0.492,1.289 0,1.781" style="fill:#ffd350;fill-rule:nonzero;"/><path d="M77.703,1.433c-0.492,0.492 -1.289,0.492 -1.781,0c-0.492,-0.492 -0.492,-1.289 0,-1.781c0.492,-0.492 1.289,-0.492 1.781,0c0.492,0.492 0.492,1.289 0,1.781" style="fill:#ffd350;fill-rule:nonzero;"/><path d="M83.372,7.101c-0.492,0.492 -1.29,0.492 -1.782,0c-0.491,-0.491 -0.491,-1.289 -0,-1.781c0.492,-0.492 1.29,-0.492 1.782,0c0.492,0.492 0.492,1.29 -0,1.781" style="fill:#ffd350;fill-rule:nonzero;"/><path d="M89.04,12.77c-0.492,0.491 -1.289,0.491 -1.781,0c-0.492,-0.493 -0.492,-1.29 -0,-1.782c0.492,-0.491 1.289,-0.491 1.781,0c0.492,0.492 0.492,1.289 -0,1.782" style="fill:#ffd350;fill-rule:nonzero;"/><path d="M94.708,18.437c-0.492,0.493 -1.29,0.493 -1.782,0c-0.491,-0.491 -0.491,-1.289 -0,-1.78c0.492,-0.492 1.29,-0.492 1.782,0c0.492,0.491 0.492,1.289 -0,1.78" style="fill:#ffd350;fill-rule:nonzero;"/><path d="M100.376,24.106c-0.492,0.492 -1.29,0.492 -1.781,0c-0.492,-0.492 -0.492,-1.29 -0,-1.781c0.491,-0.492 1.289,-0.492 1.781,0c0.492,0.491 0.492,1.289 -0,1.781" style="fill:#ffd350;fill-rule:nonzero;"/><path d="M106.044,29.774c-0.492,0.492 -1.29,0.492 -1.782,0c-0.492,-0.492 -0.492,-1.29 0,-1.781c0.492,-0.491 1.29,-0.491 1.782,0c0.492,0.491 0.492,1.289 0,1.781" style="fill:#ffd350;fill-rule:nonzero;"/><path d="M111.712,35.442c-0.492,0.492 -1.29,0.492 -1.781,0c-0.492,-0.491 -0.492,-1.289 0,-1.78c0.491,-0.493 1.289,-0.493 1.781,0c0.492,0.491 0.492,1.289 0,1.78" style="fill:#ffd350;fill-rule:nonzero;"/><path d="M117.38,41.111c-0.492,0.491 -1.29,0.491 -1.781,-0c-0.492,-0.493 -0.492,-1.29 0,-1.782c0.491,-0.491 1.289,-0.491 1.781,-0c0.492,0.492 0.492,1.289 0,1.782" style="fill:#ffd350;fill-rule:nonzero;"/><path d="M123.048,46.779c-0.491,0.492 -1.289,0.492 -1.781,-0c-0.492,-0.492 -0.492,-1.29 0,-1.781c0.492,-0.492 1.29,-0.492 1.781,-0c0.492,0.491 0.492,1.289 0,1.781" style="fill:#ffd350;fill-rule:nonzero;"/><path d="M128.717,52.447c-0.492,0.492 -1.29,0.492 -1.781,-0c-0.492,-0.492 -0.492,-1.29 -0,-1.781c0.491,-0.492 1.289,-0.492 1.781,-0c0.492,0.491 0.492,1.289 -0,1.781" style="fill:#ffd350;fill-rule:nonzero;"/><path d="M134.385,58.116c-0.492,0.491 -1.29,0.491 -1.781,-0c-0.492,-0.493 -0.492,-1.29 -0,-1.782c0.491,-0.491 1.289,-0.491 1.781,-0c0.492,0.492 0.492,1.289 -0,1.782" style="fill:#ffd350;fill-rule:nonzero;"/><path d="M68.067,-0.267c-0.492,0.491 -1.29,0.491 -1.782,0c-0.491,-0.492 -0.491,-1.29 0,-1.781c0.492,-0.492 1.29,-0.492 1.782,0c0.492,0.491 0.492,1.289 0,1.781" style="fill:#ffd350;fill-rule:nonzero;"/><path d="M73.735,5.401c-0.492,0.492 -1.29,0.492 -1.781,0c-0.492,-0.492 -0.492,-1.29 0,-1.781c0.491,-0.492 1.289,-0.492 1.781,0c0.492,0.491 0.492,1.289 0,1.781" style="fill:#ffd350;fill-rule:nonzero;"/><path d="M79.404,11.069c-0.492,0.492 -1.29,0.492 -1.782,-0c-0.491,-0.491 -0.491,-1.29 -0,-1.781c0.492,-0.492 1.29,-0.492 1.782,-0c0.492,0.491 0.492,1.29 -0,1.781" style="fill:#ffd350;fill-rule:nonzero;"/><path d="M85.072,16.738c-0.492,0.491 -1.29,0.491 -1.781,-0c-0.492,-0.493 -0.492,-1.29 -0,-1.782c0.491,-0.491 1.289,-0.491 1.781,-0c0.492,0.492 0.492,1.289 -0,1.782" style="fill:#ffd350;fill-rule:nonzero;"/><path d="M90.74,22.405c-0.492,0.493 -1.29,0.493 -1.782,-0c-0.491,-0.491 -0.491,-1.289 0,-1.78c0.492,-0.492 1.29,-0.492 1.782,-0c0.492,0.491 0.492,1.289 0,1.78" style="fill:#ffd350;fill-rule:nonzero;"/><path d="M96.408,28.074c-0.492,0.492 -1.29,0.492 -1.781,-0c-0.492,-0.492 -0.492,-1.29 0,-1.781c0.491,-0.492 1.289,-0.492 1.781,-0c0.492,0.491 0.492,1.289 0,1.781" style="fill:#ffd350;fill-rule:nonzero;"/><path d="M102.077,33.742c-0.492,0.492 -1.29,0.492 -1.782,-0c-0.491,-0.492 -0.491,-1.29 -0,-1.781c0.492,-0.492 1.29,-0.492 1.782,-0c0.492,0.491 0.492,1.289 -0,1.781" style="fill:#ffd350;fill-rule:nonzero;"/><path d="M107.745,39.41c-0.492,0.492 -1.29,0.492 -1.781,-0c-0.492,-0.491 -0.492,-1.289 -0,-1.781c0.491,-0.492 1.289,-0.492 1.781,-0c0.492,0.492 0.492,1.29 -0,1.781" style="fill:#ffd350;fill-rule:nonzero;"/><path d="M113.413,45.079c-0.492,0.491 -1.29,0.491 -1.782,-0c-0.492,-0.492 -0.492,-1.29 0,-1.782c0.492,-0.491 1.29,-0.491 1.782,-0c0.492,0.492 0.492,1.29 0,1.782" style="fill:#ffd350;fill-rule:nonzero;"/><path d="M119.081,50.747c-0.492,0.492 -1.29,0.492 -1.781,-0c-0.492,-0.492 -0.492,-1.29 0,-1.782c0.491,-0.491 1.289,-0.491 1.781,-0c0.492,0.492 0.492,1.29 0,1.782" style="fill:#ffd350;fill-rule:nonzero;"/><path d="M124.75,56.415c-0.492,0.492 -1.29,0.492 -1.782,-0c-0.492,-0.492 -0.492,-1.29 -0,-1.781c0.492,-0.492 1.29,-0.492 1.782,-0c0.492,0.491 0.492,1.289 -0,1.781" style="fill:#ffd350;fill-rule:nonzero;"/><path d="M130.417,62.084c-0.492,0.491 -1.29,0.491 -1.781,-0c-0.492,-0.493 -0.492,-1.29 0,-1.782c0.491,-0.492 1.289,-0.492 1.781,-0c0.492,0.492 0.492,1.289 0,1.782" style="fill:#ffd350;fill-rule:nonzero;"/><path d="M64.1,3.701c-0.492,0.491 -1.29,0.491 -1.781,-0c-0.492,-0.492 -0.492,-1.29 -0,-1.781c0.491,-0.492 1.289,-0.492 1.781,-0c0.492,0.491 0.492,1.289 -0,1.781" style="fill:#ffd350;fill-rule:nonzero;"/><path d="M69.768,9.369c-0.492,0.492 -1.29,0.492 -1.781,-0c-0.492,-0.492 -0.492,-1.29 -0,-1.781c0.491,-0.492 1.289,-0.492 1.781,-0c0.492,0.491 0.492,1.289 -0,1.781" style="fill:#ffd350;fill-rule:nonzero;"/><path d="M75.436,15.037c-0.492,0.492 -1.29,0.492 -1.781,-0c-0.492,-0.491 -0.492,-1.29 -0,-1.781c0.491,-0.492 1.289,-0.492 1.781,-0c0.492,0.491 0.492,1.29 -0,1.781" style="fill:#ffd350;fill-rule:nonzero;"/><path d="M81.104,20.706c-0.492,0.491 -1.29,0.491 -1.781,-0c-0.492,-0.493 -0.492,-1.29 0,-1.782c0.491,-0.491 1.289,-0.491 1.781,-0c0.492,0.492 0.492,1.289 0,1.782" style="fill:#ffd350;fill-rule:nonzero;"/><path d="M86.772,26.373c-0.492,0.492 -1.29,0.492 -1.782,-0c-0.491,-0.491 -0.491,-1.289 0,-1.781c0.492,-0.491 1.29,-0.491 1.782,-0c0.492,0.492 0.492,1.29 0,1.781" style="fill:#ffd350;fill-rule:nonzero;"/><path d="M92.44,32.042c-0.492,0.492 -1.29,0.492 -1.782,-0c-0.491,-0.492 -0.491,-1.29 0,-1.782c0.492,-0.491 1.29,-0.491 1.782,-0c0.492,0.492 0.492,1.29 0,1.782" style="fill:#ffd350;fill-rule:nonzero;"/><path d="M98.109,37.71c-0.492,0.492 -1.29,0.492 -1.782,-0c-0.491,-0.492 -0.491,-1.29 -0,-1.782c0.492,-0.491 1.29,-0.491 1.782,-0c0.492,0.492 0.492,1.29 -0,1.782" style="fill:#ffd350;fill-rule:nonzero;"/><path d="M103.777,43.378c-0.492,0.492 -1.29,0.492 -1.782,-0c-0.491,-0.491 -0.491,-1.29 -0,-1.781c0.492,-0.491 1.29,-0.491 1.782,-0c0.492,0.491 0.492,1.29 -0,1.781" style="fill:#ffd350;fill-rule:nonzero;"/><path d="M109.445,49.047c-0.492,0.491 -1.29,0.491 -1.782,-0c-0.491,-0.492 -0.491,-1.29 0,-1.782c0.492,-0.491 1.29,-0.491 1.782,-0c0.492,0.492 0.492,1.29 0,1.782" style="fill:#ffd350;fill-rule:nonzero;"/><path d="M115.113,54.715c-0.492,0.492 -1.29,0.492 -1.782,-0c-0.491,-0.492 -0.491,-1.29 0,-1.782c0.492,-0.491 1.29,-0.491 1.782,-0c0.492,0.492 0.492,1.29 0,1.782" style="fill:#ffd350;fill-rule:nonzero;"/><path d="M120.782,60.382c-0.492,0.492 -1.29,0.492 -1.782,0c-0.491,-0.491 -0.491,-1.29 -0,-1.781c0.492,-0.492 1.29,-0.492 1.782,0c0.492,0.491 0.492,1.29 -0,1.781" style="fill:#ffd350;fill-rule:nonzero;"/><path d="M126.45,66.05c-0.492,0.492 -1.29,0.492 -1.782,0c-0.491,-0.492 -0.491,-1.289 -0,-1.781c0.492,-0.492 1.29,-0.492 1.782,0c0.492,0.492 0.492,1.289 -0,1.781" style="fill:#ffd350;fill-rule:nonzero;"/><path d="M60.132,7.669c-0.492,0.491 -1.29,0.491 -1.781,-0c-0.492,-0.492 -0.492,-1.29 -0,-1.782c0.491,-0.491 1.289,-0.491 1.781,-0c0.492,0.492 0.492,1.29 -0,1.782" style="fill:#ffd350;fill-rule:nonzero;"/><path d="M65.8,13.337c-0.492,0.492 -1.29,0.492 -1.781,-0c-0.492,-0.492 -0.492,-1.29 -0,-1.782c0.491,-0.491 1.289,-0.491 1.781,-0c0.492,0.492 0.492,1.29 -0,1.782" style="fill:#ffd350;fill-rule:nonzero;"/><path d="M71.468,19.005c-0.492,0.492 -1.29,0.492 -1.781,-0c-0.492,-0.491 -0.492,-1.29 0,-1.781c0.491,-0.492 1.289,-0.492 1.781,-0c0.492,0.491 0.492,1.29 0,1.781" style="fill:#ffd350;fill-rule:nonzero;"/><path d="M77.136,24.673c-0.492,0.491 -1.29,0.491 -1.781,0c-0.492,-0.493 -0.492,-1.29 0,-1.782c0.491,-0.491 1.289,-0.491 1.781,0c0.492,0.492 0.492,1.289 0,1.782" style="fill:#ffd350;fill-rule:nonzero;"/><path d="M82.805,30.341c-0.492,0.491 -1.29,0.491 -1.781,0c-0.492,-0.492 -0.492,-1.29 -0,-1.782c0.491,-0.491 1.289,-0.491 1.781,0c0.492,0.492 0.492,1.29 -0,1.782" style="fill:#ffd350;fill-rule:nonzero;"/><path d="M88.473,36.009c-0.492,0.492 -1.29,0.492 -1.781,0c-0.492,-0.492 -0.492,-1.29 -0,-1.782c0.491,-0.491 1.289,-0.491 1.781,0c0.492,0.492 0.492,1.29 -0,1.782" style="fill:#ffd350;fill-rule:nonzero;"/><path d="M94.141,41.677c-0.492,0.492 -1.29,0.492 -1.781,0c-0.492,-0.492 -0.492,-1.289 0,-1.782c0.491,-0.491 1.289,-0.491 1.781,0c0.492,0.493 0.492,1.29 0,1.782" style="fill:#ffd350;fill-rule:nonzero;"/><path d="M99.809,47.345c-0.492,0.492 -1.29,0.492 -1.781,0c-0.492,-0.491 -0.492,-1.29 0,-1.781c0.491,-0.492 1.289,-0.492 1.781,0c0.492,0.491 0.492,1.29 0,1.781" style="fill:#ffd350;fill-rule:nonzero;"/><path d="M105.477,53.013c-0.492,0.492 -1.289,0.492 -1.781,0c-0.492,-0.491 -0.492,-1.289 0,-1.781c0.492,-0.492 1.289,-0.492 1.781,0c0.492,0.492 0.492,1.29 0,1.781" style="fill:#ffd350;fill-rule:nonzero;"/><path d="M111.146,58.682c-0.492,0.491 -1.29,0.491 -1.782,0c-0.491,-0.492 -0.491,-1.29 -0,-1.782c0.492,-0.492 1.29,-0.492 1.782,0c0.492,0.492 0.492,1.29 -0,1.782" style="fill:#ffd350;fill-rule:nonzero;"/><path d="M116.813,64.35c-0.492,0.491 -1.289,0.491 -1.781,0c-0.492,-0.491 -0.492,-1.29 0,-1.781c0.492,-0.493 1.289,-0.493 1.781,0c0.492,0.491 0.492,1.29 0,1.781" style="fill:#ffd350;fill-rule:nonzero;"/><path d="M122.482,70.018c-0.492,0.491 -1.29,0.491 -1.782,0c-0.491,-0.492 -0.491,-1.289 -0,-1.782c0.492,-0.491 1.29,-0.491 1.782,0c0.492,0.493 0.492,1.29 -0,1.782" style="fill:#ffd350;fill-rule:nonzero;"/><path d="M56.165,11.636c-0.492,0.491 -1.29,0.491 -1.782,0c-0.492,-0.492 -0.492,-1.29 -0,-1.782c0.492,-0.491 1.29,-0.491 1.782,0c0.491,0.492 0.491,1.29 -0,1.782" style="fill:#ffd350;fill-rule:nonzero;"/><path d="M61.833,17.304c-0.492,0.492 -1.29,0.492 -1.782,0c-0.492,-0.492 -0.492,-1.29 -0,-1.782c0.492,-0.491 1.29,-0.491 1.782,0c0.492,0.492 0.492,1.29 -0,1.782" style="fill:#ffd350;fill-rule:nonzero;"/><path d="M67.501,22.972c-0.493,0.492 -1.29,0.492 -1.782,0c-0.492,-0.491 -0.492,-1.29 0,-1.781c0.492,-0.492 1.289,-0.492 1.781,0c0.492,0.491 0.492,1.29 0,1.781" style="fill:#ffd350;fill-rule:nonzero;"/><path d="M73.169,28.64c-0.492,0.492 -1.289,0.492 -1.781,0c-0.492,-0.491 -0.492,-1.289 -0,-1.781c0.492,-0.492 1.289,-0.492 1.781,0c0.492,0.492 0.492,1.29 -0,1.781" style="fill:#ffd350;fill-rule:nonzero;"/><path d="M78.837,34.308c-0.492,0.492 -1.29,0.492 -1.781,0c-0.492,-0.491 -0.492,-1.289 -0,-1.781c0.491,-0.492 1.289,-0.492 1.781,0c0.492,0.492 0.492,1.29 -0,1.781" style="fill:#ffd350;fill-rule:nonzero;"/><path d="M84.505,39.977c-0.492,0.491 -1.29,0.491 -1.781,0c-0.492,-0.492 -0.492,-1.29 -0,-1.781c0.491,-0.493 1.289,-0.493 1.781,0c0.492,0.491 0.492,1.289 -0,1.781" style="fill:#ffd350;fill-rule:nonzero;"/><path d="M90.173,45.645c-0.492,0.491 -1.29,0.491 -1.781,0c-0.492,-0.492 -0.492,-1.289 0,-1.782c0.491,-0.491 1.289,-0.491 1.781,0c0.492,0.493 0.492,1.29 0,1.782" style="fill:#ffd350;fill-rule:nonzero;"/><path d="M95.841,51.313c-0.492,0.492 -1.29,0.492 -1.781,0c-0.492,-0.491 -0.492,-1.29 0,-1.781c0.491,-0.492 1.289,-0.492 1.781,0c0.492,0.491 0.492,1.29 0,1.781" style="fill:#ffd350;fill-rule:nonzero;"/><path d="M101.509,56.981c-0.491,0.491 -1.289,0.491 -1.781,0c-0.492,-0.491 -0.492,-1.289 0,-1.781c0.492,-0.492 1.29,-0.492 1.781,0c0.492,0.492 0.492,1.29 0,1.781" style="fill:#ffd350;fill-rule:nonzero;"/><path d="M107.178,62.65c-0.492,0.491 -1.29,0.491 -1.781,0c-0.492,-0.492 -0.492,-1.29 -0,-1.782c0.491,-0.491 1.289,-0.491 1.781,0c0.492,0.492 0.492,1.29 -0,1.782" style="fill:#ffd350;fill-rule:nonzero;"/><path d="M112.846,68.318c-0.492,0.491 -1.29,0.491 -1.781,0c-0.492,-0.492 -0.492,-1.29 -0,-1.781c0.491,-0.493 1.289,-0.493 1.781,0c0.492,0.491 0.492,1.289 -0,1.781" style="fill:#ffd350;fill-rule:nonzero;"/><path d="M118.514,73.986c-0.492,0.491 -1.29,0.491 -1.781,-0c-0.492,-0.492 -0.492,-1.289 0,-1.781c0.491,-0.492 1.289,-0.492 1.781,-0c0.492,0.492 0.492,1.289 0,1.781" style="fill:#ffd350;fill-rule:nonzero;"/><path d="M52.196,15.603c-0.492,0.492 -1.29,0.492 -1.781,0c-0.492,-0.491 -0.492,-1.289 0,-1.781c0.491,-0.492 1.289,-0.492 1.781,0c0.492,0.492 0.492,1.29 0,1.781" style="fill:#ffd350;fill-rule:nonzero;"/><path d="M57.865,21.272c-0.492,0.491 -1.29,0.491 -1.782,0c-0.491,-0.492 -0.491,-1.29 -0,-1.782c0.492,-0.491 1.29,-0.491 1.782,0c0.492,0.492 0.492,1.29 -0,1.782" style="fill:#ffd350;fill-rule:nonzero;"/><path d="M63.533,26.94c-0.492,0.492 -1.29,0.492 -1.781,0c-0.492,-0.491 -0.492,-1.29 -0,-1.781c0.491,-0.493 1.289,-0.493 1.781,0c0.492,0.491 0.492,1.29 -0,1.781" style="fill:#ffd350;fill-rule:nonzero;"/><path d="M69.201,32.608c-0.492,0.491 -1.29,0.491 -1.782,0c-0.492,-0.491 -0.492,-1.289 0,-1.781c0.492,-0.492 1.29,-0.492 1.782,0c0.492,0.492 0.492,1.29 0,1.781" style="fill:#ffd350;fill-rule:nonzero;"/><path d="M74.869,38.276c-0.492,0.492 -1.29,0.492 -1.781,0c-0.492,-0.491 -0.492,-1.289 0,-1.781c0.491,-0.492 1.289,-0.492 1.781,0c0.492,0.492 0.492,1.29 0,1.781" style="fill:#ffd350;fill-rule:nonzero;"/><path d="M80.538,43.945c-0.492,0.491 -1.29,0.491 -1.782,-0c-0.492,-0.492 -0.492,-1.29 -0,-1.781c0.492,-0.493 1.29,-0.493 1.782,-0c0.492,0.491 0.492,1.289 -0,1.781" style="fill:#ffd350;fill-rule:nonzero;"/><path d="M86.206,49.613c-0.492,0.491 -1.29,0.491 -1.782,-0c-0.491,-0.492 -0.491,-1.289 -0,-1.782c0.492,-0.491 1.29,-0.491 1.782,-0c0.492,0.493 0.492,1.29 -0,1.782" style="fill:#ffd350;fill-rule:nonzero;"/><path d="M91.873,55.281c-0.492,0.492 -1.289,0.492 -1.781,-0c-0.492,-0.492 -0.492,-1.29 0,-1.781c0.492,-0.492 1.289,-0.492 1.781,-0c0.492,0.491 0.492,1.289 0,1.781" style="fill:#ffd350;fill-rule:nonzero;"/><path d="M97.542,60.949c-0.492,0.492 -1.29,0.492 -1.781,-0c-0.492,-0.492 -0.492,-1.289 0,-1.781c0.491,-0.492 1.289,-0.492 1.781,-0c0.492,0.492 0.492,1.289 0,1.781" style="fill:#ffd350;fill-rule:nonzero;"/><path d="M103.21,66.617c-0.492,0.492 -1.29,0.492 -1.781,-0c-0.492,-0.491 -0.492,-1.289 -0,-1.781c0.491,-0.491 1.289,-0.491 1.781,-0c0.492,0.492 0.492,1.29 -0,1.781" style="fill:#ffd350;fill-rule:nonzero;"/><path d="M108.878,72.285c-0.492,0.493 -1.29,0.493 -1.781,-0c-0.492,-0.491 -0.492,-1.289 0,-1.78c0.491,-0.493 1.289,-0.493 1.781,-0c0.492,0.491 0.492,1.289 0,1.78" style="fill:#ffd350;fill-rule:nonzero;"/><path d="M114.546,77.954c-0.492,0.491 -1.29,0.491 -1.781,-0c-0.492,-0.492 -0.492,-1.289 0,-1.781c0.491,-0.492 1.289,-0.492 1.781,-0c0.492,0.492 0.492,1.289 0,1.781" style="fill:#ffd350;fill-rule:nonzero;"/><path d="M48.228,19.571c-0.492,0.492 -1.29,0.492 -1.781,-0c-0.492,-0.491 -0.492,-1.289 0,-1.781c0.491,-0.492 1.289,-0.492 1.781,-0c0.492,0.492 0.492,1.29 0,1.781" style="fill:#ffd350;fill-rule:nonzero;"/><path d="M53.897,25.24c-0.492,0.491 -1.29,0.491 -1.782,-0c-0.491,-0.492 -0.491,-1.289 0,-1.782c0.492,-0.491 1.29,-0.491 1.782,-0c0.492,0.493 0.492,1.29 0,1.782" style="fill:#ffd350;fill-rule:nonzero;"/><path d="M59.565,30.908c-0.492,0.492 -1.29,0.492 -1.781,-0c-0.492,-0.492 -0.492,-1.29 -0,-1.781c0.491,-0.492 1.289,-0.492 1.781,-0c0.492,0.491 0.492,1.289 -0,1.781" style="fill:#ffd350;fill-rule:nonzero;"/><path d="M65.233,36.576c-0.492,0.491 -1.29,0.491 -1.782,-0c-0.491,-0.492 -0.491,-1.289 0,-1.781c0.492,-0.492 1.29,-0.492 1.782,-0c0.492,0.492 0.492,1.289 0,1.781" style="fill:#ffd350;fill-rule:nonzero;"/><path d="M70.901,42.244c-0.492,0.492 -1.29,0.492 -1.781,-0c-0.492,-0.492 -0.492,-1.289 0,-1.781c0.491,-0.491 1.289,-0.491 1.781,-0c0.492,0.492 0.492,1.289 0,1.781" style="fill:#ffd350;fill-rule:nonzero;"/><path d="M76.57,47.912c-0.492,0.492 -1.29,0.492 -1.782,-0c-0.491,-0.491 -0.491,-1.289 -0,-1.78c0.492,-0.493 1.29,-0.493 1.782,-0c0.492,0.491 0.492,1.289 -0,1.78" style="fill:#ffd350;fill-rule:nonzero;"/><path d="M82.238,53.581c-0.492,0.491 -1.29,0.491 -1.782,-0c-0.491,-0.492 -0.491,-1.289 -0,-1.782c0.492,-0.491 1.29,-0.491 1.782,-0c0.492,0.493 0.492,1.29 -0,1.782" style="fill:#ffd350;fill-rule:nonzero;"/><path d="M87.906,59.249c-0.492,0.492 -1.29,0.492 -1.782,-0c-0.492,-0.492 -0.492,-1.29 0,-1.781c0.492,-0.492 1.29,-0.492 1.782,-0c0.492,0.491 0.492,1.289 0,1.781" style="fill:#ffd350;fill-rule:nonzero;"/><path d="M93.574,64.917c-0.492,0.492 -1.29,0.492 -1.782,-0c-0.491,-0.492 -0.491,-1.289 0,-1.781c0.492,-0.492 1.29,-0.492 1.782,-0c0.492,0.492 0.492,1.289 0,1.781" style="fill:#ffd350;fill-rule:nonzero;"/><path d="M99.242,70.585c-0.492,0.492 -1.289,0.492 -1.781,-0c-0.492,-0.491 -0.492,-1.288 0,-1.781c0.492,-0.491 1.289,-0.491 1.781,-0c0.492,0.493 0.492,1.29 0,1.781" style="fill:#ffd350;fill-rule:nonzero;"/><path d="M104.911,76.253c-0.492,0.493 -1.29,0.493 -1.782,-0c-0.491,-0.491 -0.491,-1.289 -0,-1.78c0.492,-0.493 1.29,-0.493 1.782,-0c0.492,0.491 0.492,1.289 -0,1.78" style="fill:#ffd350;fill-rule:nonzero;"/><path d="M110.579,81.922c-0.492,0.491 -1.29,0.491 -1.782,-0c-0.492,-0.492 -0.492,-1.289 0,-1.781c0.492,-0.492 1.29,-0.492 1.782,-0c0.491,0.492 0.491,1.289 0,1.781" style="fill:#ffd350;fill-rule:nonzero;"/><path d="M190.677,1.824c-0.492,0.491 -1.29,0.491 -1.781,-0c-0.492,-0.493 -0.492,-1.29 0,-1.782c0.491,-0.491 1.289,-0.491 1.781,-0c0.492,0.492 0.492,1.289 0,1.782" style="fill:#ffd350;fill-rule:nonzero;"/><path d="M181.041,0.123c-0.492,0.492 -1.29,0.492 -1.782,-0c-0.491,-0.491 -0.491,-1.29 0,-1.781c0.492,-0.492 1.29,-0.492 1.782,-0c0.492,0.491 0.492,1.29 0,1.781" style="fill:#ffd350;fill-rule:nonzero;"/><path d="M186.709,5.791c-0.491,0.492 -1.289,0.492 -1.781,-0c-0.492,-0.492 -0.492,-1.289 0,-1.781c0.492,-0.492 1.29,-0.492 1.781,-0c0.492,0.492 0.492,1.289 0,1.781" style="fill:#ffd350;fill-rule:nonzero;"/><path d="M171.405,-1.577c-0.492,0.491 -1.29,0.491 -1.782,-0c-0.491,-0.492 -0.491,-1.29 0,-1.782c0.492,-0.491 1.29,-0.491 1.782,-0c0.492,0.492 0.492,1.29 0,1.782" style="fill:#ffd350;fill-rule:nonzero;"/><path d="M177.073,4.09c-0.492,0.491 -1.29,0.491 -1.781,0c-0.492,-0.491 -0.492,-1.29 0,-1.781c0.491,-0.493 1.289,-0.493 1.781,0c0.492,0.491 0.492,1.29 0,1.781" style="fill:#ffd350;fill-rule:nonzero;"/><path d="M182.741,9.758c-0.491,0.491 -1.289,0.491 -1.781,0c-0.492,-0.492 -0.492,-1.289 0,-1.782c0.492,-0.491 1.29,-0.491 1.781,0c0.492,0.493 0.492,1.29 0,1.782" style="fill:#ffd350;fill-rule:nonzero;"/><path d="M77.834,268.204c0.492,-0.491 1.29,-0.491 1.782,-0c0.491,0.492 0.491,1.289 -0,1.781c-0.492,0.492 -1.29,0.492 -1.782,-0c-0.492,-0.492 -0.492,-1.289 -0,-1.781" style="fill:#ffd350;fill-rule:nonzero;"/><path d="M72.166,262.536c0.492,-0.492 1.29,-0.492 1.782,-0c0.491,0.492 0.491,1.289 0,1.781c-0.492,0.491 -1.29,0.491 -1.782,-0c-0.492,-0.492 -0.492,-1.289 0,-1.781" style="fill:#ffd350;fill-rule:nonzero;"/><path d="M66.498,256.868c0.492,-0.492 1.29,-0.492 1.781,-0c0.492,0.491 0.492,1.289 -0,1.78c-0.491,0.493 -1.289,0.493 -1.781,-0c-0.492,-0.491 -0.492,-1.289 -0,-1.78" style="fill:#ffd350;fill-rule:nonzero;"/><path d="M60.83,251.199c0.491,-0.491 1.289,-0.491 1.781,-0c0.492,0.492 0.492,1.289 0,1.782c-0.492,0.491 -1.29,0.491 -1.781,-0c-0.492,-0.493 -0.492,-1.29 0,-1.782" style="fill:#ffd350;fill-rule:nonzero;"/><path d="M55.161,245.531c0.492,-0.492 1.29,-0.492 1.782,-0c0.491,0.492 0.491,1.289 0,1.781c-0.492,0.492 -1.29,0.492 -1.782,-0c-0.492,-0.492 -0.492,-1.289 0,-1.781" style="fill:#ffd350;fill-rule:nonzero;"/><path d="M49.493,239.863c0.492,-0.492 1.29,-0.492 1.782,-0c0.491,0.492 0.491,1.289 0,1.781c-0.492,0.492 -1.29,0.492 -1.782,-0c-0.492,-0.492 -0.492,-1.289 0,-1.781" style="fill:#ffd350;fill-rule:nonzero;"/><path d="M43.825,234.194c0.492,-0.491 1.29,-0.491 1.782,-0c0.491,0.493 0.491,1.289 0,1.782c-0.492,0.491 -1.29,0.491 -1.782,-0c-0.492,-0.493 -0.492,-1.289 0,-1.782" style="fill:#ffd350;fill-rule:nonzero;"/><path d="M38.157,228.527c0.491,-0.493 1.29,-0.493 1.781,-0c0.492,0.491 0.492,1.289 0,1.78c-0.491,0.492 -1.29,0.492 -1.781,-0c-0.492,-0.491 -0.492,-1.289 0,-1.78" style="fill:#ffd350;fill-rule:nonzero;"/><path d="M87.47,269.905c0.492,-0.493 1.29,-0.493 1.781,-0c0.492,0.491 0.492,1.289 0,1.78c-0.491,0.492 -1.289,0.492 -1.781,-0c-0.492,-0.491 -0.492,-1.289 0,-1.78" style="fill:#ffd350;fill-rule:nonzero;"/><path d="M81.802,264.236c0.492,-0.492 1.29,-0.492 1.781,-0c0.492,0.492 0.492,1.289 0,1.781c-0.491,0.492 -1.289,0.492 -1.781,-0c-0.492,-0.492 -0.492,-1.289 0,-1.781" style="fill:#ffd350;fill-rule:nonzero;"/><path d="M76.134,258.568c0.492,-0.492 1.29,-0.492 1.781,0c0.492,0.492 0.492,1.289 -0,1.781c-0.491,0.491 -1.289,0.491 -1.781,0c-0.492,-0.492 -0.492,-1.289 -0,-1.781" style="fill:#ffd350;fill-rule:nonzero;"/><path d="M70.466,252.9c0.492,-0.493 1.29,-0.493 1.781,0c0.492,0.491 0.492,1.289 -0,1.78c-0.491,0.493 -1.289,0.493 -1.781,0c-0.492,-0.491 -0.492,-1.289 -0,-1.78" style="fill:#ffd350;fill-rule:nonzero;"/><path d="M64.798,247.231c0.491,-0.491 1.29,-0.491 1.781,0c0.491,0.492 0.491,1.289 -0,1.781c-0.491,0.492 -1.29,0.492 -1.781,0c-0.492,-0.492 -0.492,-1.289 -0,-1.781" style="fill:#ffd350;fill-rule:nonzero;"/><path d="M59.129,241.563c0.492,-0.492 1.29,-0.492 1.782,0c0.491,0.492 0.491,1.289 -0,1.781c-0.492,0.492 -1.29,0.492 -1.782,0c-0.491,-0.492 -0.491,-1.289 -0,-1.781" style="fill:#ffd350;fill-rule:nonzero;"/><path d="M53.461,235.895c0.492,-0.492 1.29,-0.492 1.782,0c0.491,0.491 0.491,1.289 -0,1.781c-0.492,0.492 -1.29,0.492 -1.782,0c-0.492,-0.492 -0.492,-1.29 -0,-1.781" style="fill:#ffd350;fill-rule:nonzero;"/><path d="M47.793,230.226c0.492,-0.491 1.29,-0.491 1.781,0c0.492,0.493 0.492,1.29 -0,1.782c-0.491,0.491 -1.289,0.491 -1.781,0c-0.492,-0.492 -0.492,-1.289 -0,-1.782" style="fill:#ffd350;fill-rule:nonzero;"/><path d="M42.125,224.559c0.492,-0.493 1.29,-0.493 1.781,0c0.492,0.491 0.492,1.289 0,1.78c-0.491,0.492 -1.289,0.492 -1.781,0c-0.492,-0.491 -0.492,-1.289 0,-1.78" style="fill:#ffd350;fill-rule:nonzero;"/><path d="M97.106,271.604c0.492,-0.491 1.29,-0.491 1.781,0c0.492,0.493 0.492,1.29 -0,1.782c-0.491,0.491 -1.289,0.491 -1.781,0c-0.492,-0.492 -0.492,-1.289 0,-1.782" style="fill:#ffd350;fill-rule:nonzero;"/><path d="M91.437,265.937c0.492,-0.493 1.29,-0.493 1.782,0c0.492,0.491 0.492,1.288 0,1.78c-0.492,0.492 -1.29,0.492 -1.782,0c-0.492,-0.492 -0.492,-1.289 0,-1.78" style="fill:#ffd350;fill-rule:nonzero;"/><path d="M85.77,260.268c0.492,-0.492 1.29,-0.492 1.781,0c0.492,0.492 0.492,1.289 -0,1.781c-0.491,0.492 -1.289,0.492 -1.781,0c-0.492,-0.492 -0.492,-1.289 -0,-1.781" style="fill:#ffd350;fill-rule:nonzero;"/><path d="M80.102,254.6c0.492,-0.492 1.29,-0.492 1.781,0c0.492,0.492 0.492,1.289 -0,1.781c-0.491,0.491 -1.289,0.491 -1.781,0c-0.492,-0.492 -0.492,-1.289 -0,-1.781" style="fill:#ffd350;fill-rule:nonzero;"/><path d="M74.434,248.932c0.492,-0.493 1.289,-0.493 1.781,0c0.492,0.491 0.492,1.289 -0,1.78c-0.492,0.493 -1.289,0.493 -1.781,0c-0.492,-0.491 -0.492,-1.289 -0,-1.78" style="fill:#ffd350;fill-rule:nonzero;"/><path d="M68.765,243.263c0.492,-0.491 1.29,-0.491 1.782,0c0.491,0.492 0.491,1.29 0,1.781c-0.492,0.492 -1.29,0.492 -1.782,0c-0.492,-0.491 -0.492,-1.289 0,-1.781" style="fill:#ffd350;fill-rule:nonzero;"/><path d="M63.097,237.595c0.492,-0.492 1.29,-0.492 1.781,0c0.492,0.492 0.492,1.29 -0,1.781c-0.491,0.492 -1.289,0.492 -1.781,0c-0.491,-0.491 -0.491,-1.289 -0,-1.781" style="fill:#ffd350;fill-rule:nonzero;"/><path d="M57.429,231.927c0.492,-0.492 1.29,-0.492 1.781,0c0.492,0.491 0.492,1.29 -0,1.781c-0.491,0.492 -1.289,0.492 -1.781,0c-0.492,-0.491 -0.492,-1.29 -0,-1.781" style="fill:#ffd350;fill-rule:nonzero;"/><path d="M51.761,226.258c0.492,-0.491 1.29,-0.491 1.781,0c0.492,0.493 0.492,1.29 -0,1.782c-0.491,0.491 -1.289,0.491 -1.781,0c-0.492,-0.492 -0.492,-1.289 -0,-1.782" style="fill:#ffd350;fill-rule:nonzero;"/><path d="M46.093,220.591c0.492,-0.493 1.29,-0.493 1.781,0c0.491,0.491 0.491,1.289 -0,1.78c-0.491,0.492 -1.289,0.492 -1.781,0c-0.492,-0.491 -0.492,-1.289 -0,-1.78" style="fill:#ffd350;fill-rule:nonzero;"/><path d="M101.074,267.636c0.492,-0.491 1.29,-0.491 1.782,0c0.491,0.493 0.491,1.29 -0,1.782c-0.492,0.491 -1.29,0.491 -1.782,0c-0.492,-0.492 -0.492,-1.289 -0,-1.782" style="fill:#ffd350;fill-rule:nonzero;"/><path d="M95.405,261.968c0.492,-0.492 1.29,-0.492 1.782,0c0.491,0.492 0.491,1.29 0,1.781c-0.492,0.492 -1.29,0.492 -1.782,0c-0.492,-0.491 -0.492,-1.289 0,-1.781" style="fill:#ffd350;fill-rule:nonzero;"/><path d="M89.737,256.3c0.492,-0.492 1.29,-0.492 1.782,0c0.491,0.492 0.491,1.29 0,1.781c-0.492,0.492 -1.29,0.492 -1.782,0c-0.492,-0.491 -0.492,-1.289 0,-1.781" style="fill:#ffd350;fill-rule:nonzero;"/><path d="M84.069,250.631c0.492,-0.491 1.29,-0.491 1.782,0c0.492,0.493 0.492,1.29 -0,1.782c-0.492,0.491 -1.29,0.491 -1.782,0c-0.492,-0.492 -0.492,-1.289 -0,-1.782" style="fill:#ffd350;fill-rule:nonzero;"/><path d="M78.401,244.965c0.492,-0.493 1.29,-0.493 1.782,-0c0.491,0.491 0.491,1.289 -0,1.78c-0.492,0.492 -1.29,0.492 -1.782,-0c-0.492,-0.491 -0.492,-1.289 -0,-1.78" style="fill:#ffd350;fill-rule:nonzero;"/><path d="M72.733,239.296c0.492,-0.491 1.29,-0.491 1.782,-0c0.491,0.492 0.491,1.29 -0,1.781c-0.492,0.492 -1.29,0.492 -1.782,-0c-0.492,-0.491 -0.492,-1.289 -0,-1.781" style="fill:#ffd350;fill-rule:nonzero;"/><path d="M67.065,233.628c0.491,-0.492 1.289,-0.492 1.781,-0c0.492,0.492 0.492,1.29 -0,1.781c-0.492,0.492 -1.29,0.492 -1.781,-0c-0.492,-0.492 -0.492,-1.29 -0,-1.781" style="fill:#ffd350;fill-rule:nonzero;"/><path d="M61.396,227.96c0.492,-0.492 1.29,-0.492 1.781,-0c0.492,0.491 0.492,1.29 0,1.781c-0.491,0.492 -1.289,0.492 -1.781,-0c-0.492,-0.491 -0.492,-1.29 0,-1.781" style="fill:#ffd350;fill-rule:nonzero;"/><path d="M55.728,222.291c0.492,-0.491 1.289,-0.491 1.781,-0c0.492,0.493 0.492,1.29 0,1.782c-0.492,0.491 -1.289,0.491 -1.781,-0c-0.492,-0.492 -0.492,-1.289 0,-1.782" style="fill:#ffd350;fill-rule:nonzero;"/><path d="M50.06,216.624c0.492,-0.492 1.29,-0.492 1.782,-0c0.491,0.491 0.491,1.289 0,1.781c-0.492,0.491 -1.29,0.491 -1.782,-0c-0.492,-0.492 -0.492,-1.29 0,-1.781" style="fill:#ffd350;fill-rule:nonzero;"/><path d="M110.71,269.338c0.492,-0.493 1.289,-0.493 1.781,-0c0.492,0.491 0.492,1.29 -0,1.781c-0.492,0.492 -1.289,0.492 -1.781,-0c-0.492,-0.491 -0.492,-1.29 -0,-1.781" style="fill:#ffd350;fill-rule:nonzero;"/><path d="M105.041,263.669c0.492,-0.491 1.29,-0.491 1.782,-0c0.491,0.492 0.491,1.29 0,1.781c-0.492,0.492 -1.29,0.492 -1.782,-0c-0.492,-0.491 -0.492,-1.289 0,-1.781" style="fill:#ffd350;fill-rule:nonzero;"/><path d="M99.373,258.001c0.492,-0.492 1.289,-0.492 1.781,-0c0.492,0.492 0.492,1.29 0,1.781c-0.492,0.492 -1.289,0.492 -1.781,-0c-0.492,-0.491 -0.492,-1.289 0,-1.781" style="fill:#ffd350;fill-rule:nonzero;"/><path d="M93.705,252.333c0.492,-0.492 1.29,-0.492 1.782,-0c0.491,0.492 0.491,1.29 0,1.781c-0.492,0.492 -1.29,0.492 -1.782,-0c-0.492,-0.491 -0.492,-1.289 0,-1.781" style="fill:#ffd350;fill-rule:nonzero;"/><path d="M88.037,246.664c0.492,-0.491 1.29,-0.491 1.782,-0c0.491,0.493 0.491,1.29 -0,1.782c-0.492,0.492 -1.29,0.492 -1.782,-0c-0.492,-0.492 -0.492,-1.289 -0,-1.782" style="fill:#ffd350;fill-rule:nonzero;"/><path d="M82.369,240.997c0.492,-0.492 1.29,-0.492 1.782,-0c0.491,0.491 0.491,1.289 -0,1.781c-0.492,0.491 -1.29,0.491 -1.782,-0c-0.492,-0.492 -0.492,-1.29 -0,-1.781" style="fill:#ffd350;fill-rule:nonzero;"/><path d="M76.701,235.328c0.492,-0.491 1.29,-0.491 1.782,-0c0.491,0.492 0.491,1.29 -0,1.782c-0.492,0.491 -1.29,0.491 -1.782,-0c-0.492,-0.492 -0.492,-1.29 -0,-1.782" style="fill:#ffd350;fill-rule:nonzero;"/><path d="M71.033,229.66c0.491,-0.492 1.289,-0.492 1.781,-0c0.492,0.492 0.492,1.29 -0,1.782c-0.492,0.491 -1.29,0.491 -1.781,-0c-0.492,-0.492 -0.492,-1.29 -0,-1.782" style="fill:#ffd350;fill-rule:nonzero;"/><path d="M65.364,223.992c0.492,-0.492 1.29,-0.492 1.782,-0c0.492,0.491 0.492,1.29 -0,1.781c-0.492,0.492 -1.29,0.492 -1.782,-0c-0.492,-0.491 -0.492,-1.29 -0,-1.781" style="fill:#ffd350;fill-rule:nonzero;"/><path d="M59.696,218.323c0.492,-0.491 1.29,-0.491 1.782,-0c0.492,0.493 0.492,1.29 -0,1.782c-0.492,0.491 -1.29,0.491 -1.782,-0c-0.492,-0.492 -0.492,-1.289 -0,-1.782" style="fill:#ffd350;fill-rule:nonzero;"/><path d="M54.028,212.655c0.492,-0.491 1.29,-0.491 1.782,-0c0.491,0.492 0.491,1.29 -0,1.782c-0.492,0.491 -1.29,0.491 -1.782,-0c-0.492,-0.492 -0.492,-1.29 -0,-1.782" style="fill:#ffd350;fill-rule:nonzero;"/><path d="M120.346,271.038c0.492,-0.492 1.29,-0.492 1.781,-0c0.492,0.492 0.492,1.289 -0,1.781c-0.491,0.492 -1.289,0.492 -1.781,-0c-0.492,-0.492 -0.492,-1.289 -0,-1.781" style="fill:#ffd350;fill-rule:nonzero;"/><path d="M114.678,265.37c0.491,-0.492 1.289,-0.492 1.781,-0c0.492,0.491 0.492,1.29 -0,1.781c-0.492,0.492 -1.29,0.492 -1.781,-0c-0.492,-0.491 -0.492,-1.29 -0,-1.781" style="fill:#ffd350;fill-rule:nonzero;"/><path d="M109.009,259.701c0.492,-0.491 1.29,-0.491 1.781,-0c0.492,0.492 0.492,1.29 0,1.782c-0.491,0.491 -1.289,0.491 -1.781,-0c-0.492,-0.492 -0.492,-1.29 0,-1.782" style="fill:#ffd350;fill-rule:nonzero;"/><path d="M103.341,254.033c0.492,-0.491 1.29,-0.491 1.781,-0c0.492,0.492 0.492,1.29 0,1.782c-0.491,0.491 -1.289,0.491 -1.781,-0c-0.492,-0.492 -0.492,-1.29 0,-1.782" style="fill:#ffd350;fill-rule:nonzero;"/><path d="M97.673,248.365c0.492,-0.492 1.29,-0.492 1.781,-0c0.492,0.491 0.492,1.29 -0,1.781c-0.491,0.492 -1.289,0.492 -1.781,-0c-0.492,-0.491 -0.492,-1.29 -0,-1.781" style="fill:#ffd350;fill-rule:nonzero;"/><path d="M92.005,242.696c0.492,-0.491 1.29,-0.491 1.781,-0c0.492,0.493 0.492,1.29 -0,1.783c-0.491,0.491 -1.289,0.491 -1.781,-0c-0.492,-0.493 -0.492,-1.29 -0,-1.783" style="fill:#ffd350;fill-rule:nonzero;"/><path d="M86.336,237.029c0.492,-0.492 1.29,-0.492 1.782,-0c0.491,0.491 0.491,1.29 0,1.781c-0.492,0.491 -1.29,0.491 -1.782,-0c-0.492,-0.491 -0.492,-1.29 0,-1.781" style="fill:#ffd350;fill-rule:nonzero;"/><path d="M80.669,231.36c0.492,-0.491 1.29,-0.491 1.781,0c0.492,0.492 0.492,1.29 -0.001,1.782c-0.49,0.491 -1.288,0.491 -1.78,0c-0.492,-0.492 -0.492,-1.29 -0,-1.782" style="fill:#ffd350;fill-rule:nonzero;"/><path d="M75,225.692c0.492,-0.492 1.29,-0.492 1.781,0c0.492,0.492 0.492,1.29 0,1.782c-0.491,0.491 -1.289,0.491 -1.781,0c-0.492,-0.492 -0.492,-1.29 0,-1.782" style="fill:#ffd350;fill-rule:nonzero;"/><path d="M69.331,220.024c0.492,-0.492 1.29,-0.492 1.782,0c0.491,0.491 0.491,1.29 0,1.781c-0.492,0.492 -1.29,0.492 -1.782,0c-0.492,-0.491 -0.492,-1.29 0,-1.781" style="fill:#ffd350;fill-rule:nonzero;"/><path d="M63.664,214.356c0.492,-0.492 1.29,-0.492 1.782,0c0.491,0.491 0.491,1.289 -0,1.781c-0.492,0.492 -1.29,0.492 -1.782,0c-0.492,-0.492 -0.492,-1.29 -0,-1.781" style="fill:#ffd350;fill-rule:nonzero;"/><path d="M57.996,208.688c0.492,-0.492 1.29,-0.492 1.782,0c0.491,0.491 0.491,1.289 -0,1.781c-0.492,0.492 -1.29,0.492 -1.782,0c-0.492,-0.492 -0.492,-1.29 -0,-1.781" style="fill:#ffd350;fill-rule:nonzero;"/><path d="M124.313,267.069c0.492,-0.491 1.289,-0.491 1.781,-0c0.492,0.493 0.492,1.29 0,1.783c-0.492,0.491 -1.289,0.491 -1.781,-0c-0.492,-0.493 -0.492,-1.29 0,-1.783" style="fill:#ffd350;fill-rule:nonzero;"/><path d="M118.645,261.402c0.492,-0.492 1.29,-0.492 1.781,0c0.492,0.491 0.492,1.29 0,1.781c-0.491,0.492 -1.289,0.492 -1.781,0c-0.492,-0.491 -0.492,-1.29 0,-1.781" style="fill:#ffd350;fill-rule:nonzero;"/><path d="M112.977,255.733c0.492,-0.491 1.29,-0.491 1.781,0c0.492,0.492 0.492,1.29 0,1.782c-0.491,0.491 -1.289,0.491 -1.781,0c-0.492,-0.492 -0.492,-1.29 0,-1.782" style="fill:#ffd350;fill-rule:nonzero;"/><path d="M107.309,250.065c0.492,-0.491 1.29,-0.491 1.781,0c0.492,0.492 0.492,1.29 -0,1.782c-0.491,0.491 -1.289,0.491 -1.781,0c-0.492,-0.492 -0.492,-1.29 -0,-1.782" style="fill:#ffd350;fill-rule:nonzero;"/><path d="M101.641,244.397c0.492,-0.492 1.29,-0.492 1.781,0c0.492,0.491 0.492,1.29 -0,1.781c-0.491,0.492 -1.289,0.492 -1.781,0c-0.492,-0.491 -0.492,-1.29 -0,-1.781" style="fill:#ffd350;fill-rule:nonzero;"/><path d="M95.973,238.729c0.492,-0.492 1.289,-0.492 1.781,0c0.492,0.492 0.492,1.289 -0,1.782c-0.492,0.491 -1.289,0.491 -1.781,0c-0.492,-0.493 -0.492,-1.29 -0,-1.782" style="fill:#ffd350;fill-rule:nonzero;"/><path d="M90.304,233.061c0.492,-0.492 1.29,-0.492 1.781,0c0.492,0.491 0.492,1.289 0,1.781c-0.491,0.492 -1.289,0.492 -1.781,0c-0.492,-0.492 -0.492,-1.29 0,-1.781" style="fill:#ffd350;fill-rule:nonzero;"/><path d="M84.636,227.393c0.492,-0.492 1.29,-0.492 1.781,0c0.492,0.491 0.492,1.289 0,1.781c-0.491,0.492 -1.289,0.492 -1.781,0c-0.492,-0.492 -0.492,-1.29 0,-1.781" style="fill:#ffd350;fill-rule:nonzero;"/><path d="M78.968,221.724c0.492,-0.491 1.289,-0.491 1.781,0c0.492,0.492 0.492,1.29 0,1.782c-0.492,0.491 -1.289,0.491 -1.781,0c-0.492,-0.492 -0.492,-1.29 0,-1.782" style="fill:#ffd350;fill-rule:nonzero;"/><path d="M73.3,216.056c0.492,-0.492 1.289,-0.492 1.781,0c0.492,0.491 0.492,1.29 -0,1.781c-0.492,0.493 -1.289,0.493 -1.781,0c-0.492,-0.491 -0.492,-1.29 -0,-1.781" style="fill:#ffd350;fill-rule:nonzero;"/><path d="M67.631,210.388c0.492,-0.491 1.29,-0.491 1.782,0c0.491,0.491 0.491,1.289 0,1.781c-0.492,0.492 -1.29,0.492 -1.782,0c-0.492,-0.492 -0.492,-1.29 0,-1.781" style="fill:#ffd350;fill-rule:nonzero;"/><path d="M61.963,204.72c0.492,-0.492 1.29,-0.492 1.781,0c0.492,0.491 0.492,1.289 0,1.781c-0.491,0.492 -1.289,0.492 -1.781,0c-0.492,-0.492 -0.492,-1.29 0,-1.781" style="fill:#ffd350;fill-rule:nonzero;"/><path d="M128.281,263.102c0.492,-0.492 1.29,-0.492 1.782,0c0.492,0.492 0.492,1.289 -0,1.782c-0.492,0.491 -1.29,0.491 -1.782,0c-0.492,-0.493 -0.492,-1.29 -0,-1.782" style="fill:#ffd350;fill-rule:nonzero;"/><path d="M122.613,257.434c0.492,-0.492 1.29,-0.492 1.782,0c0.491,0.491 0.491,1.29 -0,1.781c-0.492,0.492 -1.29,0.492 -1.782,0c-0.492,-0.491 -0.492,-1.29 -0,-1.781" style="fill:#ffd350;fill-rule:nonzero;"/><path d="M116.945,251.766c0.492,-0.492 1.289,-0.492 1.781,0c0.492,0.491 0.492,1.289 -0,1.781c-0.492,0.492 -1.289,0.492 -1.781,0c-0.492,-0.492 -0.492,-1.29 -0,-1.781" style="fill:#ffd350;fill-rule:nonzero;"/><path d="M111.276,246.098c0.492,-0.492 1.29,-0.492 1.782,0c0.491,0.491 0.491,1.289 0,1.781c-0.492,0.491 -1.29,0.491 -1.782,0c-0.492,-0.492 -0.492,-1.29 0,-1.781" style="fill:#ffd350;fill-rule:nonzero;"/><path d="M105.608,240.429c0.492,-0.491 1.29,-0.491 1.782,0c0.492,0.491 0.492,1.29 -0,1.781c-0.492,0.493 -1.29,0.493 -1.782,0c-0.491,-0.491 -0.491,-1.29 -0,-1.781" style="fill:#ffd350;fill-rule:nonzero;"/><path d="M99.94,234.761c0.492,-0.491 1.29,-0.491 1.782,0c0.491,0.492 0.491,1.289 -0,1.781c-0.492,0.492 -1.29,0.492 -1.782,0c-0.492,-0.492 -0.492,-1.289 -0,-1.781" style="fill:#ffd350;fill-rule:nonzero;"/><path d="M94.272,229.093c0.492,-0.492 1.29,-0.492 1.781,0c0.492,0.491 0.492,1.289 0,1.781c-0.491,0.492 -1.289,0.492 -1.781,0c-0.492,-0.492 -0.492,-1.29 0,-1.781" style="fill:#ffd350;fill-rule:nonzero;"/><path d="M88.604,223.425c0.492,-0.492 1.289,-0.492 1.781,0c0.492,0.491 0.492,1.289 0,1.781c-0.492,0.492 -1.29,0.492 -1.782,0c-0.492,-0.492 -0.492,-1.29 0,-1.781" style="fill:#ffd350;fill-rule:nonzero;"/><path d="M82.935,217.756c0.492,-0.491 1.29,-0.491 1.781,0c0.492,0.492 0.492,1.289 0,1.782c-0.491,0.491 -1.289,0.491 -1.781,0c-0.492,-0.493 -0.492,-1.29 0,-1.782" style="fill:#ffd350;fill-rule:nonzero;"/><path d="M77.268,212.089c0.491,-0.492 1.289,-0.492 1.781,-0c0.492,0.492 0.492,1.29 -0,1.781c-0.492,0.492 -1.29,0.492 -1.781,-0c-0.492,-0.491 -0.492,-1.289 -0,-1.781" style="fill:#ffd350;fill-rule:nonzero;"/><path d="M71.599,206.421c0.492,-0.491 1.29,-0.491 1.781,-0c0.492,0.492 0.492,1.289 0,1.781c-0.491,0.492 -1.289,0.492 -1.781,-0c-0.492,-0.492 -0.492,-1.289 0,-1.781" style="fill:#ffd350;fill-rule:nonzero;"/><path d="M65.931,200.753c0.492,-0.492 1.29,-0.492 1.781,-0c0.492,0.492 0.492,1.289 0,1.781c-0.491,0.491 -1.289,0.491 -1.781,-0c-0.492,-0.492 -0.492,-1.289 0,-1.781" style="fill:#ffd350;fill-rule:nonzero;"/><path d="M132.249,259.134c0.492,-0.491 1.289,-0.491 1.781,0c0.492,0.492 0.492,1.289 0,1.782c-0.492,0.491 -1.289,0.491 -1.781,0c-0.492,-0.493 -0.492,-1.29 0,-1.782" style="fill:#ffd350;fill-rule:nonzero;"/><path d="M126.581,253.466c0.492,-0.492 1.29,-0.492 1.782,0c0.491,0.491 0.491,1.29 -0,1.781c-0.492,0.492 -1.29,0.492 -1.782,0c-0.492,-0.491 -0.492,-1.29 -0,-1.781" style="fill:#ffd350;fill-rule:nonzero;"/><path d="M120.913,247.798c0.492,-0.492 1.289,-0.492 1.781,0c0.492,0.491 0.492,1.289 -0,1.781c-0.492,0.492 -1.289,0.492 -1.781,0c-0.492,-0.492 -0.492,-1.29 -0,-1.781" style="fill:#ffd350;fill-rule:nonzero;"/><path d="M115.244,242.131c0.492,-0.492 1.29,-0.492 1.782,-0c0.491,0.491 0.491,1.289 0,1.781c-0.492,0.491 -1.29,0.491 -1.782,-0c-0.492,-0.492 -0.492,-1.29 0,-1.781" style="fill:#ffd350;fill-rule:nonzero;"/><path d="M109.576,236.462c0.492,-0.492 1.29,-0.492 1.781,-0c0.492,0.492 0.492,1.29 0,1.781c-0.491,0.493 -1.289,0.493 -1.781,-0c-0.492,-0.491 -0.492,-1.289 0,-1.781" style="fill:#ffd350;fill-rule:nonzero;"/><path d="M103.908,230.794c0.492,-0.491 1.29,-0.491 1.782,-0c0.491,0.492 0.491,1.289 -0,1.781c-0.492,0.492 -1.29,0.492 -1.782,-0c-0.492,-0.492 -0.492,-1.289 -0,-1.781" style="fill:#ffd350;fill-rule:nonzero;"/><path d="M98.24,225.126c0.492,-0.492 1.29,-0.492 1.781,-0c0.492,0.492 0.492,1.289 -0,1.781c-0.491,0.492 -1.289,0.492 -1.781,-0c-0.492,-0.492 -0.492,-1.289 -0,-1.781" style="fill:#ffd350;fill-rule:nonzero;"/><path d="M92.571,219.458c0.492,-0.492 1.29,-0.492 1.782,-0c0.491,0.492 0.491,1.289 0,1.78c-0.492,0.493 -1.29,0.493 -1.782,-0c-0.492,-0.491 -0.492,-1.288 0,-1.78" style="fill:#ffd350;fill-rule:nonzero;"/><path d="M86.903,213.789c0.492,-0.491 1.29,-0.491 1.781,-0c0.492,0.492 0.492,1.289 0,1.782c-0.491,0.491 -1.289,0.491 -1.781,-0c-0.492,-0.493 -0.492,-1.29 0,-1.782" style="fill:#ffd350;fill-rule:nonzero;"/><path d="M81.235,208.122c0.492,-0.493 1.29,-0.493 1.782,-0c0.492,0.491 0.492,1.289 -0,1.78c-0.492,0.492 -1.29,0.492 -1.782,-0c-0.492,-0.491 -0.492,-1.289 -0,-1.78" style="fill:#ffd350;fill-rule:nonzero;"/><path d="M75.567,202.453c0.492,-0.491 1.29,-0.491 1.781,-0c0.492,0.492 0.492,1.289 -0,1.781c-0.491,0.492 -1.289,0.492 -1.781,-0c-0.492,-0.492 -0.492,-1.289 -0,-1.781" style="fill:#ffd350;fill-rule:nonzero;"/><path d="M69.898,196.785c0.492,-0.492 1.29,-0.492 1.782,-0c0.492,0.492 0.492,1.289 0,1.781c-0.492,0.491 -1.29,0.491 -1.782,-0c-0.492,-0.492 -0.492,-1.289 0,-1.781" style="fill:#ffd350;fill-rule:nonzero;"/><path d="M136.217,255.167c0.491,-0.491 1.29,-0.491 1.781,-0c0.492,0.492 0.492,1.289 -0,1.782c-0.491,0.491 -1.29,0.491 -1.781,-0c-0.492,-0.493 -0.492,-1.29 -0,-1.782" style="fill:#ffd350;fill-rule:nonzero;"/><path d="M130.548,249.499c0.492,-0.492 1.29,-0.492 1.781,-0c0.492,0.492 0.492,1.29 0,1.781c-0.491,0.492 -1.289,0.492 -1.781,-0c-0.492,-0.491 -0.492,-1.289 0,-1.781" style="fill:#ffd350;fill-rule:nonzero;"/><path d="M124.88,243.831c0.492,-0.492 1.29,-0.492 1.781,-0c0.492,0.492 0.492,1.289 0,1.781c-0.491,0.492 -1.289,0.492 -1.781,-0c-0.492,-0.492 -0.492,-1.289 0,-1.781" style="fill:#ffd350;fill-rule:nonzero;"/><path d="M119.212,238.163c0.492,-0.492 1.29,-0.492 1.781,-0c0.492,0.492 0.492,1.288 -0,1.781c-0.491,0.491 -1.289,0.491 -1.781,-0c-0.492,-0.493 -0.492,-1.289 -0,-1.781" style="fill:#ffd350;fill-rule:nonzero;"/><path d="M113.544,232.495c0.492,-0.493 1.29,-0.493 1.781,-0c0.492,0.491 0.492,1.289 -0,1.78c-0.491,0.493 -1.289,0.493 -1.781,-0c-0.492,-0.491 -0.492,-1.289 -0,-1.78" style="fill:#ffd350;fill-rule:nonzero;"/><path d="M107.875,226.826c0.492,-0.491 1.29,-0.491 1.782,-0c0.491,0.492 0.491,1.289 0,1.781c-0.492,0.492 -1.29,0.492 -1.782,-0c-0.492,-0.492 -0.492,-1.289 0,-1.781" style="fill:#ffd350;fill-rule:nonzero;"/><path d="M102.208,221.158c0.492,-0.492 1.29,-0.492 1.781,-0c0.491,0.492 0.491,1.289 -0.001,1.781c-0.49,0.492 -1.288,0.492 -1.781,-0c-0.492,-0.492 -0.492,-1.289 0.001,-1.781" style="fill:#ffd350;fill-rule:nonzero;"/><path d="M96.539,215.49c0.492,-0.492 1.29,-0.492 1.782,-0c0.491,0.491 0.491,1.289 0,1.78c-0.492,0.493 -1.29,0.493 -1.782,-0c-0.492,-0.491 -0.492,-1.289 0,-1.78" style="fill:#ffd350;fill-rule:nonzero;"/><path d="M90.871,209.821c0.492,-0.491 1.29,-0.491 1.782,-0c0.491,0.492 0.491,1.289 0,1.782c-0.492,0.491 -1.29,0.491 -1.782,-0c-0.492,-0.493 -0.492,-1.29 0,-1.782" style="fill:#ffd350;fill-rule:nonzero;"/><path d="M85.203,204.154c0.492,-0.493 1.29,-0.493 1.782,-0c0.491,0.491 0.491,1.289 -0,1.78c-0.492,0.492 -1.29,0.492 -1.782,-0c-0.492,-0.491 -0.492,-1.289 -0,-1.78" style="fill:#ffd350;fill-rule:nonzero;"/><path d="M79.535,198.485c0.492,-0.492 1.29,-0.492 1.781,0c0.492,0.492 0.492,1.289 -0,1.781c-0.491,0.492 -1.289,0.492 -1.781,0c-0.492,-0.492 -0.492,-1.289 -0,-1.781" style="fill:#ffd350;fill-rule:nonzero;"/><path d="M73.866,192.817c0.492,-0.492 1.29,-0.492 1.782,0c0.491,0.492 0.491,1.289 0,1.781c-0.492,0.491 -1.29,0.491 -1.782,0c-0.492,-0.492 -0.492,-1.289 0,-1.781" style="fill:#ffd350;fill-rule:nonzero;"/><path d="M140.184,251.199c0.492,-0.491 1.29,-0.491 1.782,-0c0.491,0.492 0.491,1.289 0,1.782c-0.492,0.491 -1.29,0.491 -1.782,-0c-0.492,-0.493 -0.492,-1.29 0,-1.782" style="fill:#ffd350;fill-rule:nonzero;"/><path d="M134.516,245.531c0.492,-0.492 1.29,-0.492 1.781,-0c0.492,0.492 0.492,1.289 0,1.781c-0.491,0.492 -1.289,0.492 -1.781,-0c-0.492,-0.492 -0.492,-1.289 0,-1.781" style="fill:#ffd350;fill-rule:nonzero;"/><path d="M128.848,239.863c0.492,-0.492 1.29,-0.492 1.782,-0c0.491,0.492 0.491,1.289 -0,1.781c-0.492,0.492 -1.29,0.492 -1.782,-0c-0.492,-0.492 -0.492,-1.289 -0,-1.781" style="fill:#ffd350;fill-rule:nonzero;"/><path d="M123.18,234.194c0.492,-0.491 1.29,-0.491 1.781,-0c0.492,0.493 0.492,1.289 -0,1.782c-0.491,0.491 -1.289,0.491 -1.781,-0c-0.492,-0.493 -0.492,-1.289 -0,-1.782" style="fill:#ffd350;fill-rule:nonzero;"/><path d="M117.512,228.527c0.492,-0.493 1.29,-0.493 1.781,-0c0.492,0.491 0.492,1.289 -0,1.78c-0.491,0.492 -1.289,0.492 -1.781,-0c-0.492,-0.491 -0.492,-1.289 -0,-1.78" style="fill:#ffd350;fill-rule:nonzero;"/><path d="M111.843,222.858c0.492,-0.491 1.29,-0.491 1.781,0c0.492,0.492 0.492,1.289 0,1.781c-0.491,0.492 -1.289,0.492 -1.781,0c-0.492,-0.492 -0.492,-1.289 0,-1.781" style="fill:#ffd350;fill-rule:nonzero;"/><path d="M106.175,217.19c0.492,-0.492 1.29,-0.492 1.781,0c0.492,0.492 0.492,1.289 0,1.781c-0.491,0.491 -1.289,0.491 -1.781,0c-0.492,-0.492 -0.492,-1.289 0,-1.781" style="fill:#ffd350;fill-rule:nonzero;"/><path d="M100.507,211.522c0.492,-0.492 1.29,-0.492 1.781,0c0.492,0.491 0.492,1.289 -0,1.78c-0.491,0.493 -1.289,0.493 -1.781,0c-0.492,-0.491 -0.492,-1.289 -0,-1.78" style="fill:#ffd350;fill-rule:nonzero;"/><path d="M94.839,205.853c0.492,-0.491 1.29,-0.491 1.781,0c0.492,0.493 0.492,1.29 -0,1.782c-0.491,0.491 -1.289,0.491 -1.781,0c-0.492,-0.492 -0.492,-1.289 -0,-1.782" style="fill:#ffd350;fill-rule:nonzero;"/><path d="M89.171,200.186c0.492,-0.493 1.289,-0.493 1.781,0c0.492,0.491 0.492,1.289 -0,1.78c-0.492,0.492 -1.289,0.492 -1.781,0c-0.492,-0.491 -0.492,-1.289 -0,-1.78" style="fill:#ffd350;fill-rule:nonzero;"/><path d="M83.502,194.517c0.492,-0.492 1.29,-0.492 1.782,0c0.491,0.492 0.491,1.29 0,1.781c-0.492,0.492 -1.29,0.492 -1.782,0c-0.492,-0.491 -0.492,-1.289 0,-1.781" style="fill:#ffd350;fill-rule:nonzero;"/><path d="M77.834,188.849c0.492,-0.492 1.29,-0.492 1.782,0c0.491,0.492 0.491,1.289 0,1.781c-0.492,0.491 -1.29,0.491 -1.782,0c-0.492,-0.492 -0.492,-1.289 0,-1.781" style="fill:#ffd350;fill-rule:nonzero;"/><path d="M144.152,247.231c0.492,-0.491 1.29,-0.491 1.782,0c0.491,0.492 0.491,1.289 -0,1.781c-0.492,0.492 -1.29,0.492 -1.782,0c-0.492,-0.492 -0.492,-1.289 -0,-1.781" style="fill:#ffd350;fill-rule:nonzero;"/><path d="M138.484,241.563c0.492,-0.492 1.289,-0.492 1.781,0c0.492,0.492 0.492,1.289 -0,1.781c-0.492,0.492 -1.289,0.492 -1.781,0c-0.492,-0.492 -0.492,-1.289 -0,-1.781" style="fill:#ffd350;fill-rule:nonzero;"/><path d="M132.815,235.895c0.492,-0.492 1.29,-0.492 1.782,0c0.491,0.491 0.491,1.289 0,1.781c-0.492,0.492 -1.29,0.492 -1.782,0c-0.492,-0.492 -0.492,-1.29 0,-1.781" style="fill:#ffd350;fill-rule:nonzero;"/><path d="M127.148,230.226c0.492,-0.491 1.289,-0.491 1.781,0c0.492,0.493 0.492,1.29 -0,1.782c-0.492,0.491 -1.289,0.491 -1.781,0c-0.492,-0.492 -0.492,-1.289 -0,-1.782" style="fill:#ffd350;fill-rule:nonzero;"/><path d="M121.479,224.559c0.492,-0.493 1.29,-0.493 1.782,0c0.491,0.491 0.491,1.289 -0,1.78c-0.492,0.492 -1.29,0.492 -1.782,0c-0.492,-0.491 -0.492,-1.289 -0,-1.78" style="fill:#ffd350;fill-rule:nonzero;"/><path d="M115.811,218.89c0.492,-0.492 1.29,-0.492 1.781,0c0.492,0.492 0.492,1.29 -0,1.781c-0.491,0.492 -1.289,0.492 -1.781,0c-0.492,-0.491 -0.492,-1.289 -0,-1.781" style="fill:#ffd350;fill-rule:nonzero;"/><path d="M110.143,213.222c0.492,-0.492 1.29,-0.492 1.782,0c0.492,0.492 0.492,1.29 -0,1.781c-0.492,0.491 -1.29,0.491 -1.782,0c-0.492,-0.491 -0.492,-1.289 -0,-1.781" style="fill:#ffd350;fill-rule:nonzero;"/><path d="M104.475,207.554c0.492,-0.492 1.29,-0.492 1.781,0c0.492,0.491 0.492,1.289 -0,1.78c-0.491,0.493 -1.289,0.493 -1.781,0c-0.492,-0.491 -0.492,-1.289 -0,-1.78" style="fill:#ffd350;fill-rule:nonzero;"/><path d="M98.807,201.885c0.492,-0.491 1.29,-0.491 1.781,0c0.492,0.493 0.492,1.29 -0,1.782c-0.491,0.491 -1.289,0.491 -1.781,0c-0.492,-0.492 -0.492,-1.289 -0,-1.782" style="fill:#ffd350;fill-rule:nonzero;"/><path d="M93.139,196.217c0.491,-0.492 1.289,-0.492 1.781,0c0.492,0.492 0.492,1.29 -0,1.781c-0.492,0.492 -1.29,0.492 -1.781,0c-0.492,-0.491 -0.492,-1.289 -0,-1.781" style="fill:#ffd350;fill-rule:nonzero;"/><path d="M87.47,190.549c0.492,-0.492 1.29,-0.492 1.781,0c0.492,0.492 0.492,1.29 0,1.781c-0.491,0.492 -1.289,0.492 -1.781,0c-0.492,-0.491 -0.492,-1.289 0,-1.781" style="fill:#ffd350;fill-rule:nonzero;"/><path d="M81.802,184.881c0.492,-0.491 1.29,-0.491 1.781,-0c0.492,0.493 0.492,1.29 0,1.782c-0.491,0.491 -1.289,0.491 -1.781,-0c-0.492,-0.492 -0.492,-1.289 0,-1.782" style="fill:#ffd350;fill-rule:nonzero;"/><path d="M148.12,243.263c0.492,-0.491 1.29,-0.491 1.782,0c0.491,0.492 0.491,1.29 -0,1.781c-0.492,0.492 -1.29,0.492 -1.782,0c-0.492,-0.491 -0.492,-1.289 -0,-1.781" style="fill:#ffd350;fill-rule:nonzero;"/><path d="M142.452,237.595c0.492,-0.492 1.29,-0.492 1.781,0c0.492,0.492 0.492,1.29 -0,1.781c-0.491,0.492 -1.289,0.492 -1.781,0c-0.492,-0.491 -0.492,-1.289 -0,-1.781" style="fill:#ffd350;fill-rule:nonzero;"/><path d="M136.783,231.927c0.492,-0.492 1.29,-0.492 1.782,0c0.491,0.491 0.491,1.29 0,1.781c-0.492,0.492 -1.29,0.492 -1.782,0c-0.492,-0.491 -0.492,-1.29 0,-1.781" style="fill:#ffd350;fill-rule:nonzero;"/><path d="M131.115,226.258c0.492,-0.491 1.29,-0.491 1.781,0c0.492,0.493 0.492,1.29 0,1.782c-0.491,0.491 -1.289,0.491 -1.781,0c-0.492,-0.492 -0.492,-1.289 0,-1.782" style="fill:#ffd350;fill-rule:nonzero;"/><path d="M125.447,220.591c0.492,-0.493 1.29,-0.493 1.782,0c0.491,0.491 0.491,1.289 -0,1.78c-0.492,0.492 -1.29,0.492 -1.782,0c-0.492,-0.491 -0.492,-1.289 -0,-1.78" style="fill:#ffd350;fill-rule:nonzero;"/><path d="M119.779,214.923c0.492,-0.492 1.29,-0.492 1.781,-0c0.492,0.492 0.492,1.29 -0,1.781c-0.491,0.492 -1.289,0.492 -1.781,-0c-0.492,-0.491 -0.492,-1.289 -0,-1.781" style="fill:#ffd350;fill-rule:nonzero;"/><path d="M114.11,209.255c0.492,-0.492 1.29,-0.492 1.782,-0c0.491,0.492 0.491,1.29 0,1.781c-0.492,0.492 -1.29,0.492 -1.782,-0c-0.492,-0.491 -0.492,-1.289 0,-1.781" style="fill:#ffd350;fill-rule:nonzero;"/><path d="M108.442,203.587c0.492,-0.492 1.29,-0.492 1.781,-0c0.492,0.491 0.492,1.289 0,1.781c-0.491,0.492 -1.289,0.492 -1.781,-0c-0.492,-0.492 -0.492,-1.29 0,-1.781" style="fill:#ffd350;fill-rule:nonzero;"/><path d="M102.774,197.918c0.492,-0.491 1.29,-0.491 1.782,-0c0.492,0.492 0.492,1.29 -0,1.782c-0.492,0.491 -1.29,0.491 -1.782,-0c-0.492,-0.492 -0.492,-1.29 -0,-1.782" style="fill:#ffd350;fill-rule:nonzero;"/><path d="M97.106,192.25c0.492,-0.492 1.29,-0.492 1.781,-0c0.492,0.492 0.492,1.29 -0,1.782c-0.491,0.491 -1.289,0.491 -1.781,-0c-0.492,-0.492 -0.492,-1.29 -0,-1.782" style="fill:#ffd350;fill-rule:nonzero;"/><path d="M91.437,186.582c0.492,-0.492 1.29,-0.492 1.782,-0c0.492,0.492 0.492,1.29 0,1.781c-0.492,0.492 -1.29,0.492 -1.782,-0c-0.492,-0.491 -0.492,-1.289 0,-1.781" style="fill:#ffd350;fill-rule:nonzero;"/><path d="M85.77,180.913c0.492,-0.491 1.29,-0.491 1.781,-0c0.492,0.493 0.492,1.29 -0,1.782c-0.491,0.492 -1.289,0.492 -1.781,-0c-0.492,-0.492 -0.492,-1.289 -0,-1.782" style="fill:#ffd350;fill-rule:nonzero;"/><path d="M152.087,239.296c0.492,-0.491 1.29,-0.491 1.781,-0c0.492,0.492 0.492,1.29 0,1.781c-0.491,0.492 -1.289,0.492 -1.781,-0c-0.492,-0.491 -0.492,-1.289 0,-1.781" style="fill:#ffd350;fill-rule:nonzero;"/><path d="M146.419,233.628c0.492,-0.492 1.29,-0.492 1.781,-0c0.492,0.492 0.492,1.29 0,1.781c-0.491,0.492 -1.289,0.492 -1.781,-0c-0.492,-0.492 -0.492,-1.29 0,-1.781" style="fill:#ffd350;fill-rule:nonzero;"/><path d="M140.751,227.96c0.492,-0.492 1.29,-0.492 1.781,-0c0.492,0.491 0.492,1.29 -0,1.781c-0.491,0.492 -1.289,0.492 -1.781,-0c-0.492,-0.491 -0.492,-1.29 0,-1.781" style="fill:#ffd350;fill-rule:nonzero;"/><path d="M135.083,222.291c0.492,-0.491 1.29,-0.491 1.781,-0c0.492,0.493 0.492,1.29 -0,1.782c-0.491,0.491 -1.289,0.491 -1.781,-0c-0.492,-0.492 -0.492,-1.289 -0,-1.782" style="fill:#ffd350;fill-rule:nonzero;"/><path d="M129.415,216.624c0.492,-0.492 1.29,-0.492 1.782,-0c0.491,0.491 0.491,1.289 -0,1.781c-0.492,0.491 -1.29,0.491 -1.782,-0c-0.492,-0.492 -0.492,-1.29 -0,-1.781" style="fill:#ffd350;fill-rule:nonzero;"/><path d="M123.747,210.955c0.492,-0.492 1.29,-0.492 1.782,-0c0.491,0.492 0.491,1.29 -0,1.782c-0.492,0.491 -1.29,0.491 -1.782,-0c-0.492,-0.492 -0.492,-1.29 -0,-1.782" style="fill:#ffd350;fill-rule:nonzero;"/><path d="M118.078,205.287c0.492,-0.492 1.29,-0.492 1.782,-0c0.491,0.492 0.491,1.29 0,1.782c-0.492,0.491 -1.29,0.491 -1.782,-0c-0.492,-0.492 -0.492,-1.29 0,-1.782" style="fill:#ffd350;fill-rule:nonzero;"/><path d="M112.41,199.619c0.492,-0.492 1.29,-0.492 1.782,-0c0.491,0.491 0.491,1.29 0,1.781c-0.492,0.491 -1.29,0.491 -1.782,-0c-0.492,-0.491 -0.492,-1.29 0,-1.781" style="fill:#ffd350;fill-rule:nonzero;"/><path d="M106.742,193.95c0.492,-0.491 1.29,-0.491 1.782,-0c0.491,0.492 0.491,1.29 -0,1.782c-0.492,0.491 -1.29,0.491 -1.782,-0c-0.492,-0.492 -0.492,-1.29 -0,-1.782" style="fill:#ffd350;fill-rule:nonzero;"/><path d="M101.074,188.282c0.492,-0.492 1.29,-0.492 1.782,-0c0.491,0.492 0.491,1.29 -0,1.782c-0.492,0.491 -1.29,0.491 -1.782,-0c-0.492,-0.492 -0.492,-1.29 -0,-1.782" style="fill:#ffd350;fill-rule:nonzero;"/><path d="M95.405,182.614c0.492,-0.492 1.29,-0.492 1.782,-0c0.491,0.491 0.491,1.29 0,1.781c-0.492,0.492 -1.29,0.492 -1.782,-0c-0.492,-0.491 -0.492,-1.29 0,-1.781" style="fill:#ffd350;fill-rule:nonzero;"/><path d="M89.737,176.946c0.492,-0.492 1.29,-0.492 1.782,-0c0.491,0.492 0.491,1.289 0,1.781c-0.492,0.492 -1.29,0.492 -1.782,-0c-0.492,-0.492 -0.492,-1.289 0,-1.781" style="fill:#ffd350;fill-rule:nonzero;"/><path d="M156.055,235.328c0.492,-0.491 1.29,-0.491 1.781,-0c0.492,0.492 0.492,1.29 0,1.782c-0.491,0.491 -1.289,0.491 -1.781,-0c-0.492,-0.492 -0.492,-1.29 0,-1.782" style="fill:#ffd350;fill-rule:nonzero;"/><path d="M150.387,229.66c0.492,-0.492 1.29,-0.492 1.781,-0c0.492,0.492 0.492,1.29 0,1.782c-0.491,0.491 -1.289,0.491 -1.781,-0c-0.492,-0.492 -0.492,-1.29 0,-1.782" style="fill:#ffd350;fill-rule:nonzero;"/><path d="M144.719,223.992c0.492,-0.492 1.29,-0.492 1.781,-0c0.492,0.491 0.492,1.29 -0,1.781c-0.491,0.492 -1.289,0.492 -1.781,-0c-0.492,-0.491 -0.492,-1.29 -0,-1.781" style="fill:#ffd350;fill-rule:nonzero;"/><path d="M139.051,218.323c0.492,-0.491 1.29,-0.491 1.781,-0c0.492,0.493 0.492,1.29 -0,1.782c-0.491,0.491 -1.289,0.491 -1.781,-0c-0.492,-0.492 -0.492,-1.289 -0,-1.782" style="fill:#ffd350;fill-rule:nonzero;"/><path d="M133.382,212.655c0.492,-0.491 1.29,-0.491 1.781,-0c0.492,0.492 0.492,1.29 0,1.782c-0.491,0.491 -1.289,0.491 -1.781,-0c-0.492,-0.492 -0.492,-1.29 0,-1.782" style="fill:#ffd350;fill-rule:nonzero;"/><path d="M127.714,206.987c0.492,-0.492 1.29,-0.492 1.781,-0c0.492,0.492 0.492,1.29 0,1.782c-0.491,0.491 -1.289,0.491 -1.781,-0c-0.492,-0.492 -0.492,-1.29 0,-1.782" style="fill:#ffd350;fill-rule:nonzero;"/><path d="M122.046,201.319c0.492,-0.492 1.29,-0.492 1.781,-0c0.492,0.492 0.492,1.289 -0,1.782c-0.491,0.491 -1.289,0.491 -1.781,-0c-0.492,-0.493 -0.492,-1.29 -0,-1.782" style="fill:#ffd350;fill-rule:nonzero;"/><path d="M116.378,195.651c0.492,-0.492 1.29,-0.492 1.781,0c0.492,0.491 0.492,1.29 -0,1.781c-0.491,0.492 -1.289,0.492 -1.781,0c-0.492,-0.491 -0.492,-1.29 -0,-1.781" style="fill:#ffd350;fill-rule:nonzero;"/><path d="M110.71,189.983c0.492,-0.492 1.289,-0.492 1.781,0c0.492,0.491 0.492,1.289 -0,1.781c-0.492,0.492 -1.289,0.492 -1.781,0c-0.492,-0.492 -0.492,-1.29 -0,-1.781" style="fill:#ffd350;fill-rule:nonzero;"/><path d="M105.042,184.314c0.492,-0.491 1.29,-0.491 1.782,0c0.491,0.492 0.491,1.29 -0,1.782c-0.492,0.492 -1.29,0.492 -1.782,0c-0.492,-0.492 -0.492,-1.29 -0.001,-1.782" style="fill:#ffd350;fill-rule:nonzero;"/><path d="M99.374,178.646c0.492,-0.491 1.288,-0.491 1.781,0c0.492,0.491 0.492,1.29 -0.001,1.781c-0.492,0.493 -1.288,0.493 -1.781,0c-0.491,-0.491 -0.491,-1.29 0.001,-1.781" style="fill:#ffd350;fill-rule:nonzero;"/><path d="M93.705,172.978c0.492,-0.491 1.29,-0.491 1.782,0c0.491,0.492 0.491,1.289 0,1.782c-0.492,0.491 -1.29,0.491 -1.782,0c-0.492,-0.493 -0.492,-1.29 0,-1.782" style="fill:#ffd350;fill-rule:nonzero;"/><path d="M160.022,231.36c0.492,-0.491 1.29,-0.491 1.782,0c0.492,0.492 0.492,1.29 0,1.782c-0.492,0.491 -1.29,0.491 -1.782,0c-0.49,-0.492 -0.491,-1.29 0,-1.782" style="fill:#ffd350;fill-rule:nonzero;"/><path d="M154.355,225.692c0.492,-0.492 1.29,-0.492 1.782,-0c0.492,0.492 0.492,1.29 -0,1.782c-0.492,0.491 -1.29,0.491 -1.782,-0c-0.492,-0.492 -0.492,-1.29 -0,-1.782" style="fill:#ffd350;fill-rule:nonzero;"/><path d="M148.687,220.024c0.491,-0.492 1.288,-0.492 1.78,0c0.492,0.491 0.492,1.29 0,1.781c-0.492,0.492 -1.289,0.492 -1.781,0c-0.492,-0.491 -0.492,-1.29 0,-1.781" style="fill:#ffd350;fill-rule:nonzero;"/><path d="M143.019,214.356c0.492,-0.492 1.289,-0.492 1.781,0c0.492,0.491 0.492,1.289 -0,1.781c-0.492,0.492 -1.289,0.492 -1.781,0c-0.492,-0.492 -0.492,-1.29 -0,-1.781" style="fill:#ffd350;fill-rule:nonzero;"/><path d="M137.35,208.688c0.492,-0.492 1.29,-0.492 1.781,0c0.492,0.491 0.492,1.289 0,1.781c-0.491,0.492 -1.289,0.492 -1.781,0c-0.492,-0.492 -0.492,-1.29 0,-1.781" style="fill:#ffd350;fill-rule:nonzero;"/><path d="M131.682,203.019c0.492,-0.491 1.29,-0.491 1.781,0c0.492,0.492 0.492,1.29 0,1.781c-0.491,0.493 -1.289,0.493 -1.781,0c-0.492,-0.491 -0.492,-1.289 0,-1.781" style="fill:#ffd350;fill-rule:nonzero;"/><path d="M126.014,197.351c0.492,-0.491 1.29,-0.491 1.781,0c0.492,0.492 0.492,1.289 -0,1.782c-0.491,0.491 -1.289,0.491 -1.781,0c-0.492,-0.493 -0.492,-1.29 -0,-1.782" style="fill:#ffd350;fill-rule:nonzero;"/><path d="M120.346,191.683c0.492,-0.492 1.29,-0.492 1.781,0c0.492,0.491 0.492,1.29 -0,1.781c-0.491,0.492 -1.289,0.492 -1.781,0c-0.492,-0.491 -0.492,-1.29 -0,-1.781" style="fill:#ffd350;fill-rule:nonzero;"/><path d="M114.678,186.015c0.491,-0.491 1.289,-0.491 1.781,0c0.492,0.491 0.492,1.289 -0,1.781c-0.492,0.492 -1.29,0.492 -1.781,0c-0.492,-0.492 -0.492,-1.29 -0,-1.781" style="fill:#ffd350;fill-rule:nonzero;"/><path d="M109.009,180.346c0.492,-0.491 1.29,-0.491 1.781,0c0.492,0.492 0.492,1.29 0,1.782c-0.491,0.491 -1.289,0.491 -1.781,0c-0.492,-0.492 -0.492,-1.29 0,-1.782" style="fill:#ffd350;fill-rule:nonzero;"/><path d="M103.341,174.678c0.492,-0.491 1.29,-0.491 1.781,0c0.492,0.492 0.492,1.29 0,1.781c-0.491,0.493 -1.289,0.493 -1.781,0c-0.492,-0.491 -0.492,-1.289 0,-1.781" style="fill:#ffd350;fill-rule:nonzero;"/><path d="M97.673,169.01c0.492,-0.491 1.29,-0.491 1.781,0c0.492,0.492 0.492,1.289 -0,1.781c-0.491,0.492 -1.289,0.492 -1.781,0c-0.492,-0.492 -0.492,-1.289 -0,-1.781" style="fill:#ffd350;fill-rule:nonzero;"/><path d="M163.991,227.393c0.491,-0.492 1.289,-0.492 1.781,0c0.491,0.491 0.491,1.289 -0,1.781c-0.492,0.492 -1.29,0.492 -1.781,0c-0.492,-0.492 -0.492,-1.29 -0,-1.781" style="fill:#ffd350;fill-rule:nonzero;"/><path d="M158.322,221.724c0.492,-0.491 1.29,-0.491 1.782,0c0.491,0.492 0.491,1.29 0,1.782c-0.492,0.491 -1.29,0.491 -1.782,0c-0.492,-0.492 -0.492,-1.29 0,-1.782" style="fill:#ffd350;fill-rule:nonzero;"/><path d="M152.654,216.056c0.492,-0.492 1.29,-0.492 1.781,0c0.492,0.491 0.492,1.29 0,1.781c-0.491,0.493 -1.289,0.493 -1.781,0c-0.492,-0.491 -0.492,-1.29 0,-1.781" style="fill:#ffd350;fill-rule:nonzero;"/><path d="M146.986,210.388c0.492,-0.491 1.29,-0.491 1.782,0c0.492,0.491 0.492,1.289 -0,1.781c-0.492,0.492 -1.29,0.492 -1.782,0c-0.492,-0.492 -0.492,-1.29 -0,-1.781" style="fill:#ffd350;fill-rule:nonzero;"/><path d="M141.318,204.72c0.492,-0.492 1.29,-0.492 1.781,0c0.492,0.491 0.492,1.289 -0,1.781c-0.491,0.492 -1.289,0.492 -1.781,0c-0.492,-0.492 -0.492,-1.29 -0,-1.781" style="fill:#ffd350;fill-rule:nonzero;"/><path d="M135.649,199.051c0.492,-0.491 1.29,-0.491 1.782,0c0.492,0.492 0.492,1.29 0,1.781c-0.492,0.493 -1.29,0.493 -1.782,0c-0.492,-0.491 -0.492,-1.289 0,-1.781" style="fill:#ffd350;fill-rule:nonzero;"/><path d="M129.981,193.383c0.492,-0.491 1.29,-0.491 1.782,0c0.491,0.492 0.491,1.289 0,1.782c-0.492,0.491 -1.29,0.491 -1.782,0c-0.492,-0.493 -0.492,-1.29 0,-1.782" style="fill:#ffd350;fill-rule:nonzero;"/><path d="M124.313,187.715c0.492,-0.492 1.289,-0.492 1.781,0c0.492,0.492 0.492,1.29 0,1.781c-0.492,0.492 -1.289,0.492 -1.781,0c-0.492,-0.491 -0.492,-1.289 0,-1.781" style="fill:#ffd350;fill-rule:nonzero;"/><path d="M118.645,182.048c0.492,-0.492 1.29,-0.492 1.781,-0c0.492,0.492 0.492,1.289 0,1.781c-0.491,0.492 -1.289,0.492 -1.781,-0c-0.492,-0.492 -0.492,-1.289 0,-1.781" style="fill:#ffd350;fill-rule:nonzero;"/><path d="M112.977,176.38c0.492,-0.492 1.29,-0.492 1.781,-0c0.492,0.491 0.492,1.289 0,1.781c-0.491,0.491 -1.289,0.491 -1.781,-0c-0.492,-0.492 -0.492,-1.29 0,-1.781" style="fill:#ffd350;fill-rule:nonzero;"/><path d="M107.309,170.712c0.492,-0.493 1.29,-0.493 1.781,-0c0.492,0.491 0.492,1.289 -0,1.78c-0.491,0.493 -1.289,0.493 -1.781,-0c-0.492,-0.491 -0.492,-1.289 -0,-1.78" style="fill:#ffd350;fill-rule:nonzero;"/><path d="M101.641,165.043c0.492,-0.491 1.29,-0.491 1.781,-0c0.492,0.492 0.492,1.289 -0,1.781c-0.491,0.492 -1.289,0.492 -1.781,-0c-0.492,-0.492 -0.492,-1.289 -0,-1.781" style="fill:#ffd350;fill-rule:nonzero;"/><path d="M167.958,223.425c0.491,-0.492 1.289,-0.492 1.781,0c0.491,0.491 0.491,1.289 0,1.781c-0.492,0.492 -1.29,0.492 -1.781,0c-0.492,-0.492 -0.492,-1.29 0,-1.781" style="fill:#ffd350;fill-rule:nonzero;"/><path d="M162.29,217.756c0.492,-0.491 1.29,-0.491 1.782,0c0.491,0.492 0.491,1.289 -0,1.782c-0.492,0.491 -1.29,0.491 -1.782,0c-0.491,-0.493 -0.491,-1.29 -0,-1.782" style="fill:#ffd350;fill-rule:nonzero;"/><path d="M156.622,212.089c0.492,-0.492 1.29,-0.492 1.781,-0c0.492,0.492 0.492,1.29 0,1.781c-0.491,0.492 -1.289,0.492 -1.781,-0c-0.492,-0.491 -0.492,-1.289 0,-1.781" style="fill:#ffd350;fill-rule:nonzero;"/><path d="M150.954,206.421c0.492,-0.491 1.29,-0.491 1.782,-0c0.491,0.492 0.491,1.289 -0,1.781c-0.492,0.492 -1.29,0.492 -1.782,-0c-0.492,-0.492 -0.492,-1.289 -0,-1.781" style="fill:#ffd350;fill-rule:nonzero;"/><path d="M145.286,200.753c0.492,-0.492 1.29,-0.492 1.781,-0c0.492,0.492 0.492,1.289 -0,1.781c-0.491,0.491 -1.289,0.491 -1.781,-0c-0.492,-0.492 -0.492,-1.289 -0,-1.781" style="fill:#ffd350;fill-rule:nonzero;"/><path d="M139.617,195.085c0.492,-0.492 1.29,-0.492 1.782,-0c0.491,0.491 0.491,1.289 0,1.78c-0.492,0.493 -1.29,0.493 -1.782,-0c-0.492,-0.491 -0.492,-1.289 0,-1.78" style="fill:#ffd350;fill-rule:nonzero;"/><path d="M133.949,189.416c0.492,-0.491 1.29,-0.491 1.782,-0c0.491,0.492 0.491,1.289 0,1.782c-0.492,0.491 -1.29,0.491 -1.782,-0c-0.492,-0.493 -0.492,-1.29 0,-1.782" style="fill:#ffd350;fill-rule:nonzero;"/><path d="M128.281,183.748c0.492,-0.492 1.29,-0.492 1.782,-0c0.492,0.492 0.492,1.29 -0,1.781c-0.492,0.492 -1.29,0.492 -1.782,-0c-0.492,-0.491 -0.492,-1.289 -0,-1.781" style="fill:#ffd350;fill-rule:nonzero;"/><path d="M122.613,178.08c0.492,-0.492 1.29,-0.492 1.782,-0c0.491,0.492 0.491,1.289 -0,1.781c-0.492,0.492 -1.29,0.492 -1.782,-0c-0.492,-0.492 -0.492,-1.289 -0,-1.781" style="fill:#ffd350;fill-rule:nonzero;"/><path d="M116.945,172.412c0.492,-0.492 1.289,-0.492 1.781,-0c0.492,0.491 0.492,1.288 -0,1.781c-0.492,0.491 -1.289,0.491 -1.781,-0c-0.492,-0.493 -0.492,-1.29 -0,-1.781" style="fill:#ffd350;fill-rule:nonzero;"/><path d="M111.276,166.744c0.492,-0.493 1.29,-0.493 1.782,-0c0.491,0.491 0.491,1.289 0,1.78c-0.492,0.493 -1.29,0.493 -1.782,-0c-0.492,-0.491 -0.492,-1.289 0,-1.78" style="fill:#ffd350;fill-rule:nonzero;"/><path d="M105.608,161.075c0.492,-0.491 1.29,-0.491 1.782,-0c0.492,0.492 0.492,1.289 -0,1.781c-0.492,0.492 -1.29,0.492 -1.782,-0c-0.491,-0.492 -0.491,-1.289 -0,-1.781" style="fill:#ffd350;fill-rule:nonzero;"/><path d="M-2.264,268.948c0.492,-0.492 1.29,-0.492 1.782,-0c0.491,0.491 0.491,1.289 -0,1.781c-0.492,0.492 -1.29,0.492 -1.782,-0c-0.492,-0.492 -0.492,-1.29 -0,-1.781" style="fill:#ffd350;fill-rule:nonzero;"/><path d="M7.372,270.648c0.492,-0.491 1.29,-0.491 1.782,0c0.491,0.491 0.491,1.289 -0,1.781c-0.492,0.492 -1.29,0.492 -1.782,0c-0.492,-0.492 -0.492,-1.29 -0,-1.781" style="fill:#ffd350;fill-rule:nonzero;"/><path d="M1.704,264.98c0.492,-0.492 1.29,-0.492 1.781,0c0.492,0.491 0.492,1.289 -0,1.781c-0.491,0.492 -1.289,0.492 -1.781,0c-0.492,-0.492 -0.492,-1.29 -0,-1.781" style="fill:#ffd350;fill-rule:nonzero;"/><path d="M17.008,272.348c0.491,-0.492 1.29,-0.492 1.781,0c0.492,0.492 0.492,1.29 -0,1.781c-0.491,0.492 -1.29,0.492 -1.781,0c-0.492,-0.491 -0.492,-1.289 -0,-1.781" style="fill:#ffd350;fill-rule:nonzero;"/><path d="M11.339,266.68c0.492,-0.491 1.29,-0.491 1.781,0c0.492,0.492 0.492,1.289 0,1.781c-0.491,0.492 -1.289,0.492 -1.781,0c-0.492,-0.492 -0.492,-1.289 0,-1.781" style="fill:#ffd350;fill-rule:nonzero;"/><path d="M5.671,261.012c0.492,-0.492 1.29,-0.492 1.781,0c0.492,0.492 0.492,1.289 0,1.781c-0.491,0.491 -1.289,0.491 -1.781,0c-0.492,-0.492 -0.492,-1.289 0,-1.781" style="fill:#ffd350;fill-rule:nonzero;"/><path d="M20.976,268.381c0.491,-0.493 1.29,-0.493 1.781,0c0.492,0.491 0.492,1.289 -0,1.78c-0.491,0.492 -1.29,0.492 -1.781,0c-0.492,-0.491 -0.492,-1.289 -0,-1.78" style="fill:#ffd350;fill-rule:nonzero;"/><path d="M15.307,262.713c0.492,-0.492 1.29,-0.492 1.781,-0c0.492,0.492 0.492,1.289 0,1.781c-0.491,0.492 -1.289,0.492 -1.781,-0c-0.492,-0.492 -0.492,-1.289 0,-1.781" style="fill:#ffd350;fill-rule:nonzero;"/><path d="M9.639,257.045c0.492,-0.492 1.29,-0.492 1.782,-0c0.492,0.492 0.492,1.289 -0,1.781c-0.492,0.491 -1.29,0.491 -1.782,-0c-0.492,-0.492 -0.492,-1.289 -0,-1.781" style="fill:#ffd350;fill-rule:nonzero;"/><path d="M30.611,270.081c0.492,-0.491 1.29,-0.491 1.782,-0c0.491,0.492 0.491,1.289 0,1.782c-0.492,0.491 -1.29,0.491 -1.782,-0c-0.492,-0.493 -0.492,-1.29 0,-1.782" style="fill:#ffd350;fill-rule:nonzero;"/><path d="M24.943,264.414c0.492,-0.493 1.29,-0.493 1.781,-0c0.492,0.491 0.492,1.289 0,1.78c-0.491,0.492 -1.289,0.492 -1.781,-0c-0.492,-0.491 -0.492,-1.289 0,-1.78" style="fill:#ffd350;fill-rule:nonzero;"/><path d="M19.274,258.745c0.492,-0.492 1.29,-0.492 1.782,-0c0.492,0.492 0.492,1.289 0,1.781c-0.492,0.492 -1.29,0.492 -1.782,-0c-0.491,-0.492 -0.491,-1.289 0,-1.781" style="fill:#ffd350;fill-rule:nonzero;"/><path d="M13.606,253.077c0.492,-0.492 1.29,-0.492 1.782,-0c0.491,0.492 0.491,1.289 0,1.781c-0.492,0.491 -1.29,0.491 -1.782,-0c-0.492,-0.492 -0.492,-1.289 0,-1.781" style="fill:#ffd350;fill-rule:nonzero;"/><path d="M40.247,271.782c0.492,-0.492 1.29,-0.492 1.781,-0c0.492,0.491 0.492,1.289 0,1.78c-0.491,0.493 -1.289,0.493 -1.781,-0c-0.492,-0.491 -0.492,-1.289 0,-1.78" style="fill:#ffd350;fill-rule:nonzero;"/><path d="M34.579,266.113c0.492,-0.491 1.29,-0.491 1.781,-0c0.492,0.493 0.492,1.29 0,1.782c-0.491,0.491 -1.289,0.491 -1.781,-0c-0.492,-0.492 -0.492,-1.289 0,-1.782" style="fill:#ffd350;fill-rule:nonzero;"/><path d="M28.911,260.446c0.492,-0.493 1.29,-0.493 1.781,-0c0.492,0.491 0.492,1.289 0,1.78c-0.491,0.492 -1.289,0.492 -1.781,-0c-0.492,-0.491 -0.492,-1.289 0,-1.78" style="fill:#ffd350;fill-rule:nonzero;"/><path d="M23.243,254.777c0.491,-0.492 1.289,-0.492 1.781,0c0.491,0.492 0.491,1.29 0,1.781c-0.492,0.492 -1.29,0.492 -1.781,0c-0.492,-0.491 -0.492,-1.289 0,-1.781" style="fill:#ffd350;fill-rule:nonzero;"/><path d="M17.574,249.109c0.492,-0.492 1.29,-0.492 1.782,0c0.491,0.492 0.491,1.289 0,1.781c-0.492,0.491 -1.29,0.491 -1.782,0c-0.492,-0.492 -0.492,-1.289 0,-1.781" style="fill:#ffd350;fill-rule:nonzero;"/><path d="M44.215,267.814c0.492,-0.492 1.29,-0.492 1.781,0c0.492,0.491 0.492,1.289 -0,1.78c-0.491,0.493 -1.289,0.493 -1.781,0c-0.492,-0.491 -0.492,-1.289 -0,-1.78" style="fill:#ffd350;fill-rule:nonzero;"/><path d="M38.547,262.145c0.492,-0.491 1.29,-0.491 1.781,0c0.492,0.493 0.492,1.29 -0,1.782c-0.491,0.491 -1.289,0.491 -1.781,0c-0.492,-0.492 -0.492,-1.289 -0,-1.782" style="fill:#ffd350;fill-rule:nonzero;"/><path d="M32.879,256.477c0.492,-0.492 1.289,-0.492 1.781,0c0.492,0.492 0.492,1.29 -0,1.781c-0.492,0.492 -1.289,0.492 -1.781,0c-0.492,-0.491 -0.492,-1.289 -0,-1.781" style="fill:#ffd350;fill-rule:nonzero;"/><path d="M27.21,250.809c0.492,-0.492 1.289,-0.492 1.781,0c0.492,0.492 0.492,1.29 0,1.781c-0.492,0.492 -1.289,0.492 -1.781,0c-0.492,-0.491 -0.492,-1.289 0,-1.781" style="fill:#ffd350;fill-rule:nonzero;"/><path d="M21.542,245.14c0.492,-0.491 1.29,-0.491 1.781,0c0.492,0.493 0.492,1.29 0,1.782c-0.491,0.491 -1.289,0.491 -1.781,0c-0.492,-0.492 -0.492,-1.289 0,-1.782" style="fill:#ffd350;fill-rule:nonzero;"/><path d="M53.851,269.514c0.492,-0.492 1.29,-0.492 1.781,0c0.492,0.492 0.492,1.29 0,1.781c-0.491,0.492 -1.289,0.492 -1.781,0c-0.492,-0.491 -0.492,-1.289 0,-1.781" style="fill:#ffd350;fill-rule:nonzero;"/><path d="M48.183,263.846c0.492,-0.492 1.289,-0.492 1.781,0c0.492,0.491 0.492,1.289 -0,1.781c-0.492,0.492 -1.289,0.492 -1.781,0c-0.492,-0.492 -0.492,-1.29 -0,-1.781" style="fill:#ffd350;fill-rule:nonzero;"/><path d="M42.514,258.177c0.492,-0.491 1.29,-0.491 1.782,0c0.492,0.492 0.492,1.29 0,1.782c-0.492,0.491 -1.29,0.491 -1.782,0c-0.492,-0.492 -0.492,-1.29 0,-1.782" style="fill:#ffd350;fill-rule:nonzero;"/><path d="M36.846,252.509c0.492,-0.492 1.29,-0.492 1.782,0c0.492,0.492 0.492,1.29 0,1.782c-0.492,0.491 -1.29,0.491 -1.782,0c-0.492,-0.492 -0.492,-1.29 0,-1.782" style="fill:#ffd350;fill-rule:nonzero;"/><path d="M31.178,246.841c0.492,-0.492 1.29,-0.492 1.782,0c0.491,0.492 0.491,1.29 0,1.781c-0.492,0.492 -1.29,0.492 -1.782,0c-0.492,-0.491 -0.492,-1.289 0,-1.781" style="fill:#ffd350;fill-rule:nonzero;"/><path d="M25.51,241.173c0.492,-0.491 1.29,-0.491 1.781,-0c0.492,0.493 0.492,1.29 -0,1.782c-0.491,0.491 -1.289,0.491 -1.781,-0c-0.492,-0.492 -0.492,-1.289 -0,-1.782" style="fill:#ffd350;fill-rule:nonzero;"/><path d="M63.487,271.215c0.492,-0.493 1.29,-0.493 1.782,-0c0.491,0.491 0.491,1.289 -0,1.781c-0.492,0.491 -1.29,0.491 -1.782,0c-0.492,-0.492 -0.492,-1.29 -0,-1.781" style="fill:#ffd350;fill-rule:nonzero;"/><path d="M57.819,265.547c0.492,-0.492 1.29,-0.492 1.781,-0c0.492,0.492 0.492,1.289 -0,1.782c-0.491,0.491 -1.289,0.491 -1.781,-0c-0.492,-0.493 -0.492,-1.29 -0,-1.782" style="fill:#ffd350;fill-rule:nonzero;"/><path d="M52.15,259.879c0.492,-0.492 1.29,-0.492 1.782,-0c0.492,0.491 0.492,1.29 -0,1.781c-0.492,0.492 -1.29,0.492 -1.782,-0c-0.491,-0.491 -0.491,-1.29 -0,-1.781" style="fill:#ffd350;fill-rule:nonzero;"/><path d="M46.482,254.21c0.492,-0.491 1.29,-0.491 1.782,-0c0.491,0.492 0.491,1.29 -0,1.782c-0.492,0.491 -1.29,0.491 -1.782,-0c-0.492,-0.492 -0.492,-1.29 -0,-1.782" style="fill:#ffd350;fill-rule:nonzero;"/><path d="M40.814,248.542c0.492,-0.492 1.29,-0.492 1.782,-0c0.491,0.492 0.491,1.29 0,1.782c-0.492,0.491 -1.29,0.491 -1.782,-0c-0.492,-0.492 -0.492,-1.29 0,-1.782" style="fill:#ffd350;fill-rule:nonzero;"/><path d="M35.146,242.874c0.492,-0.492 1.29,-0.492 1.782,-0c0.491,0.491 0.491,1.29 0,1.781c-0.492,0.492 -1.29,0.492 -1.782,-0c-0.492,-0.491 -0.492,-1.29 0,-1.781" style="fill:#ffd350;fill-rule:nonzero;"/><path d="M29.478,237.206c0.491,-0.492 1.289,-0.492 1.781,-0c0.492,0.492 0.492,1.289 -0,1.781c-0.492,0.492 -1.29,0.492 -1.781,-0c-0.492,-0.492 -0.492,-1.289 -0,-1.781" style="fill:#ffd350;fill-rule:nonzero;"/><path d="M73.123,272.915c0.492,-0.491 1.29,-0.491 1.781,-0c0.492,0.492 0.492,1.29 -0,1.782c-0.491,0.491 -1.289,0.491 -1.781,-0c-0.492,-0.492 -0.492,-1.29 -0,-1.782" style="fill:#ffd350;fill-rule:nonzero;"/><path d="M67.455,267.247c0.492,-0.492 1.29,-0.492 1.781,-0c0.492,0.492 0.492,1.29 -0,1.782c-0.491,0.491 -1.289,0.491 -1.781,-0c-0.492,-0.492 -0.492,-1.29 -0,-1.782" style="fill:#ffd350;fill-rule:nonzero;"/><path d="M61.787,261.579c0.492,-0.492 1.29,-0.492 1.781,-0c0.491,0.492 0.491,1.289 -0,1.782c-0.491,0.491 -1.289,0.491 -1.781,-0c-0.492,-0.493 -0.492,-1.29 -0,-1.782" style="fill:#ffd350;fill-rule:nonzero;"/><path d="M56.118,255.911c0.492,-0.492 1.29,-0.492 1.782,-0c0.491,0.491 0.491,1.29 -0,1.781c-0.492,0.492 -1.29,0.492 -1.782,-0c-0.491,-0.491 -0.491,-1.29 -0,-1.781" style="fill:#ffd350;fill-rule:nonzero;"/><path d="M50.45,250.243c0.492,-0.492 1.29,-0.492 1.782,-0c0.491,0.491 0.491,1.289 -0,1.781c-0.492,0.492 -1.29,0.492 -1.782,-0c-0.492,-0.492 -0.492,-1.29 -0,-1.781" style="fill:#ffd350;fill-rule:nonzero;"/><path d="M44.782,244.574c0.492,-0.491 1.29,-0.491 1.782,-0c0.491,0.492 0.491,1.29 -0,1.782c-0.492,0.491 -1.29,0.491 -1.782,-0c-0.492,-0.492 -0.492,-1.29 -0,-1.782" style="fill:#ffd350;fill-rule:nonzero;"/><path d="M39.114,238.906c0.492,-0.491 1.29,-0.491 1.781,-0c0.492,0.491 0.492,1.29 -0,1.781c-0.491,0.493 -1.289,0.493 -1.781,-0c-0.492,-0.491 -0.492,-1.29 -0,-1.781" style="fill:#ffd350;fill-rule:nonzero;"/><path d="M33.446,233.238c0.491,-0.491 1.289,-0.491 1.781,-0c0.492,0.492 0.492,1.289 -0,1.782c-0.492,0.491 -1.29,0.491 -1.781,-0c-0.492,-0.493 -0.492,-1.29 -0,-1.782" style="fill:#ffd350;fill-rule:nonzero;"/><path d="M67.855,68.484c-3.865,3.864 -8.122,3.601 -11.543,3.387c-3.048,-0.19 -5.456,-0.34 -7.748,1.952c-2.292,2.292 -2.142,4.699 -1.951,7.748c0.213,3.42 0.478,7.677 -3.388,11.542c-3.865,3.866 -8.121,3.6 -11.541,3.387c-3.049,-0.19 -5.456,-0.34 -7.747,1.952c-2.291,2.29 -2.142,4.697 -1.952,7.746c0.214,3.42 0.479,7.676 -3.385,11.541c-3.866,3.865 -8.122,3.599 -11.542,3.386c-3.048,-0.19 -5.455,-0.34 -7.746,1.952c-0.963,0.962 -2.525,0.962 -3.488,0c-0.963,-0.964 -0.963,-2.526 0,-3.489c3.865,-3.865 8.121,-3.599 11.541,-3.386c3.049,0.19 5.456,0.341 7.747,-1.951c2.291,-2.291 2.141,-4.699 1.951,-7.746c-0.214,-3.421 -0.479,-7.676 3.386,-11.542c3.865,-3.865 8.121,-3.599 11.541,-3.385c3.049,0.189 5.456,0.34 7.747,-1.952c2.293,-2.293 2.143,-4.701 1.952,-7.748c-0.212,-3.42 -0.478,-7.677 3.387,-11.542c3.866,-3.866 8.123,-3.601 11.543,-3.388c3.048,0.19 5.456,0.34 7.748,-1.952c0.963,-0.963 2.525,-0.963 3.488,0c0.963,0.963 0.963,2.525 0,3.488" style="fill:#68eddf;fill-rule:nonzero;"/><path d="M276.389,115.129c-3.865,3.865 -8.122,3.601 -11.543,3.388c-3.047,-0.191 -5.455,-0.341 -7.748,1.952c-2.291,2.291 -2.142,4.699 -1.951,7.747c0.213,3.421 0.478,7.677 -3.388,11.543c-3.865,3.865 -8.12,3.599 -11.541,3.386c-3.048,-0.19 -5.455,-0.34 -7.747,1.952c-2.291,2.291 -2.141,4.698 -1.951,7.746c0.214,3.42 0.479,7.677 -3.385,11.541c-3.866,3.865 -8.122,3.599 -11.542,3.386c-3.048,-0.19 -5.455,-0.34 -7.747,1.952c-0.963,0.963 -2.524,0.963 -3.488,-0c-0.963,-0.964 -0.963,-2.526 -0,-3.489c3.865,-3.865 8.121,-3.599 11.541,-3.386c3.049,0.191 5.455,0.341 7.747,-1.95c2.292,-2.291 2.142,-4.699 1.951,-7.747c-0.213,-3.419 -0.479,-7.676 3.386,-11.541c3.865,-3.866 8.121,-3.6 11.542,-3.387c3.048,0.19 5.455,0.34 7.747,-1.951c2.292,-2.291 2.141,-4.701 1.952,-7.749c-0.214,-3.419 -0.479,-7.677 3.387,-11.54c3.865,-3.867 8.122,-3.602 11.542,-3.389c3.048,0.19 5.457,0.34 7.748,-1.951c0.963,-0.965 2.525,-0.965 3.488,-0.001c0.963,0.964 0.963,2.524 -0,3.488" style="fill:#fff;fill-rule:nonzero;"/><path d="M164.213,69.042l27.74,27.738l10.153,-37.891l-37.893,10.153Zm28.466,30.451l-31.178,-31.178l42.59,-11.413l-11.412,42.591Z" style="fill:#68eddf;fill-rule:nonzero;"/><path d="M160.549,57.61l27.74,27.74l10.153,-37.892l-37.893,10.152Zm28.466,30.453l-31.178,-31.18l42.591,-11.412l-11.413,42.592Z" style="fill:#fff;fill-rule:nonzero;"/><path d="M165.457,246.175l18.468,18.467l6.76,-25.227l-25.228,6.76Zm18.952,20.273l-20.758,-20.757l28.356,-7.598l-7.598,28.355Z" style="fill:#68eddf;fill-rule:nonzero;"/><path d="M163.019,238.565l18.467,18.468l6.76,-25.227l-25.227,6.759Zm18.951,20.273l-20.758,-20.757l28.356,-7.598l-7.598,28.355Z" style="fill:#fff;fill-rule:nonzero;"/><path d="M107.095,146.827l30.686,30.685l11.232,-41.916l-41.918,11.231Zm31.49,33.687l-34.491,-34.492l47.116,-12.624l-12.625,47.116Z" style="fill:#68eddf;fill-rule:nonzero;"/><path d="M103.043,134.181l30.685,30.687l11.232,-41.916l-41.917,11.229Zm31.489,33.687l-34.491,-34.492l47.115,-12.624l-12.624,47.116Z" style="fill:#fff;fill-rule:nonzero;"/><path d="M205.753,304.443l-3.592,-3.592l88.306,-88.306l3.592,3.592l-88.306,88.306Z" style="fill:#fff;"/><path d="M198.018,296.707l-3.558,-3.554l88.271,-88.344l3.557,3.554l-88.27,88.344Z" style="fill:#fff;"/><path d="M190.281,288.971l-3.604,-3.605l88.319,-88.294l3.604,3.605l-88.319,88.294Z" style="fill:#fff;"/></g></g></g></svg>