<?xml version="1.0" encoding="UTF-8" standalone="no"?><!DOCTYPE svg PUBLIC "-//W3C//DTD SVG 1.1//EN" "http://www.w3.org/Graphics/SVG/1.1/DTD/svg11.dtd"><svg width="100%" height="100%" viewBox="0 0 272 272" version="1.1" xmlns="http://www.w3.org/2000/svg" xmlns:xlink="http://www.w3.org/1999/xlink" xml:space="preserve" xmlns:serif="http://www.serif.com/" style="fill-rule:evenodd;clip-rule:evenodd;stroke-miterlimit:10;"><g id="Layer1"><rect x="-50" y="-933" width="1251.32" height="1272.9" style="fill:#222;"/></g><g id="Layer-1" serif:id="Layer 1"><g><clipPath id="_clip1"><rect x="-0.487" y="-0.952" width="273.263" height="273.263" clip-rule="nonzero"/></clipPath><g clip-path="url(#_clip1)"><rect x="-0.487" y="-0.952" width="273.263" height="273.263" style="fill:url(#_Linear2);"/><path d="M33.189,210.604c-33.252,-15.148 -21.038,-44.719 -15.975,-75.202c5.062,-30.484 -30.344,-45.669 -57.13,-23.243c-4.168,3.49 -8.133,5.565 -11.859,6.585l35.795,193.673l159.673,-29.51c-0.926,-7.687 -1.506,-16.071 -1.597,-25.264c-0.781,-78.496 -75.655,-31.891 -108.907,-47.039" style="fill:#fd4c8e;fill-rule:nonzero;"/><path d="M367.477,-17.29l-58.547,-0c18.289,79.436 -61.165,45.891 -94.153,46.778c-27.727,0.746 -52.092,27.557 -38.595,60.336c13.497,32.78 44.003,24.19 17.771,90.591c-24.375,61.702 7.343,108.234 7.343,108.234l166.181,-0l0,-305.939Z" style="fill:#0db2f3;fill-rule:nonzero;"/><path d="M0.531,57.943c-24.065,43.829 50.742,73.961 61.166,21.915c10.422,-52.047 28.584,-52.047 60.656,-46.567c28.98,4.948 80.644,3.965 65.604,-41.433l-203.571,0c-0,0 40.21,22.257 16.145,66.085" style="fill:#fff;fill-rule:nonzero;"/><path d="M0.531,57.943c-24.065,43.829 50.742,73.961 61.166,21.915c10.422,-52.047 28.584,-52.047 60.656,-46.567c28.98,4.948 80.644,3.965 65.604,-41.433l-203.571,0c-0,0 40.21,22.257 16.145,66.085Z" style="fill:none;fill-rule:nonzero;stroke:#fff;stroke-width:0.5px;"/><path d="M10.989,-14.264l28.461,66.104l33.052,-37.643l-48.66,-22.034l-12.853,-6.427Z" style="fill:#f7f5f7;fill-rule:nonzero;"/><path d="M289.677,211.165c-42.961,-0.962 -77.376,-36.445 -76.896,-79.525c0.48,-43.079 35.677,-77.787 78.649,-77.791l0.028,-2.552c-44.378,-0.011 -80.733,35.83 -81.229,80.314c-0.495,44.487 35.052,81.127 79.42,82.106l0.028,-2.552Z" style="fill:#7947ee;fill-rule:nonzero;"/><path d="M289.819,198.396c-35.925,-0.884 -64.683,-30.57 -64.281,-66.614c0.402,-36.044 29.813,-65.082 65.749,-65.165l0.029,-2.552c-37.343,0.068 -67.913,30.238 -68.33,67.688c-0.417,37.451 29.473,68.294 66.805,69.195l0.028,-2.552Z" style="fill:#7947ee;fill-rule:nonzero;"/><path d="M289.933,188.191c-30.297,-0.82 -54.528,-25.879 -54.189,-56.295c0.338,-30.417 25.122,-54.929 55.43,-55.074l0.029,-2.551c-31.715,0.129 -57.656,25.773 -58.011,57.597c-0.354,31.823 25.009,58.039 56.713,58.874l0.028,-2.551Z" style="fill:#7947ee;fill-rule:nonzero;"/><path d="M290.033,179.261c-25.374,-0.765 -45.644,-21.773 -45.36,-47.266c0.284,-25.493 21.018,-46.046 46.402,-46.244l0.028,-2.552c-26.791,0.184 -48.681,21.869 -48.981,48.768c-0.299,26.898 21.102,49.065 47.883,49.846l0.028,-2.552Z" style="fill:#7947ee;fill-rule:nonzero;"/><path d="M290.144,169.34c-19.903,-0.701 -35.771,-17.212 -35.549,-37.233c0.223,-20.023 16.456,-36.175 36.369,-36.433l0.029,-2.552c-21.32,0.242 -38.711,17.528 -38.95,38.956c-0.238,21.429 16.764,39.096 38.072,39.814l0.029,-2.552Z" style="fill:#7947ee;fill-rule:nonzero;"/><path d="M290.246,160.127c-14.822,-0.642 -26.605,-12.977 -26.438,-27.918c0.166,-14.942 12.221,-27.011 27.053,-27.322l0.029,-2.551c-16.24,0.296 -29.452,13.496 -29.634,29.845c-0.182,16.348 12.733,29.84 28.962,30.498l0.028,-2.552Z" style="fill:#7947ee;fill-rule:nonzero;"/><path d="M290.347,151.054c-9.819,-0.578 -17.578,-8.806 -17.467,-18.745c0.111,-9.939 8.051,-17.991 17.88,-18.351l0.028,-2.551c-11.236,0.346 -20.333,9.528 -20.46,20.874c-0.126,11.346 8.764,20.727 19.991,21.325l0.028,-2.552Z" style="fill:#7947ee;fill-rule:nonzero;"/><path d="M99.608,207.048c0,23.07 -18.704,41.772 -41.774,41.772c-23.07,0 -41.773,-18.702 -41.773,-41.772c0,-23.072 18.703,-41.773 41.773,-41.773c23.07,0 41.774,18.701 41.774,41.773" style="fill:#f7f5f7;fill-rule:nonzero;"/><path d="M45.358,79.78c-11.068,-0 -20.074,9.006 -20.074,20.075c-0,11.067 9.006,20.071 20.074,20.071c11.068,-0 20.073,-9.004 20.073,-20.071c-0,-11.069 -9.005,-20.075 -20.073,-20.075m-0,45.383c-13.957,-0 -25.311,-11.352 -25.311,-25.308c-0,-13.957 11.354,-25.311 25.311,-25.311c13.957,-0 25.311,11.354 25.311,25.311c-0,13.956 -11.354,25.308 -25.311,25.308" style="fill:#ff9cc0;fill-rule:nonzero;"/><path d="M235.842,39.351c0,6.337 -5.137,11.474 -11.473,11.474c-6.337,0 -11.473,-5.137 -11.473,-11.474c0,-6.336 5.136,-11.472 11.473,-11.472c6.336,0 11.473,5.136 11.473,11.472" style="fill:#ffc000;fill-rule:nonzero;"/><path d="M90.069,202.017c-0,10.145 -8.223,18.367 -18.365,18.367c-10.145,0 -18.367,-8.222 -18.367,-18.367c-0,-10.143 8.222,-18.363 18.367,-18.363c10.142,0 18.365,8.22 18.365,18.363" style="fill:#ffc000;fill-rule:nonzero;"/><path d="M141.462,72.436l-61.372,15.492l53.031,53.626l8.341,-69.118Z" style="fill:#48d6fc;fill-rule:nonzero;"/><rect x="2.905" y="254.154" width="6.389" height="65.365" style="fill:#ffc000;"/><rect x="16.666" y="254.154" width="6.39" height="65.365" style="fill:#ffc000;"/><rect x="30.427" y="254.154" width="6.39" height="65.365" style="fill:#ffc000;"/><rect x="44.188" y="254.154" width="6.39" height="65.365" style="fill:#ffc000;"/><rect x="57.949" y="254.154" width="6.39" height="65.365" style="fill:#ffc000;"/><rect x="71.71" y="254.154" width="6.39" height="65.365" style="fill:#ffc000;"/><rect x="85.471" y="254.154" width="6.39" height="65.365" style="fill:#ffc000;"/><rect x="99.233" y="254.154" width="6.39" height="65.365" style="fill:#ffc000;"/><rect x="112.994" y="254.154" width="6.39" height="65.365" style="fill:#ffc000;"/><rect x="126.755" y="254.154" width="6.389" height="65.365" style="fill:#ffc000;"/><rect x="38.477" y="-51.179" width="6.389" height="65.365" style="fill:#ffc000;"/><rect x="52.238" y="-51.179" width="6.389" height="65.365" style="fill:#ffc000;"/><rect x="65.999" y="-51.179" width="6.39" height="65.365" style="fill:#ffc000;"/><rect x="79.76" y="-51.179" width="6.39" height="65.365" style="fill:#ffc000;"/><rect x="93.521" y="-51.179" width="6.39" height="65.365" style="fill:#ffc000;"/><rect x="107.282" y="-51.179" width="6.39" height="65.365" style="fill:#ffc000;"/><rect x="121.043" y="-51.179" width="6.39" height="65.365" style="fill:#ffc000;"/><rect x="134.804" y="-51.179" width="6.39" height="65.365" style="fill:#ffc000;"/><rect x="148.566" y="-51.179" width="6.39" height="65.365" style="fill:#ffc000;"/><rect x="162.327" y="-51.179" width="6.39" height="65.365" style="fill:#ffc000;"/><rect x="176.088" y="-51.179" width="6.389" height="65.365" style="fill:#ffc000;"/><path d="M272.252,37.035l-168.483,168.482l-1.394,-1.394l168.483,-168.483l1.394,1.395Z" style="fill:#ff6;"/><path d="M323.499,-103.202l-245.61,245.612l-2.033,-2.033l245.611,-245.611l2.032,2.032Z"/><path d="M261.132,194.116l-95.635,95.636l-2.381,-2.382l95.634,-95.635l2.382,2.381Z"/><path d="M158.323,49.173c0,4.562 -3.699,8.262 -8.263,8.262c-4.564,-0 -8.263,-3.7 -8.263,-8.262c0,-4.564 3.699,-8.264 8.263,-8.264c4.564,-0 8.263,3.7 8.263,8.264" style="fill:#f7f5f7;fill-rule:nonzero;"/><path d="M260.55,110.679c-0,10.452 -8.473,18.927 -18.93,18.927c-10.455,0 -18.929,-8.475 -18.929,-18.927c-0,-10.456 8.474,-18.931 18.929,-18.931c10.457,0 18.93,8.475 18.93,18.931" style="fill:#f7f5f7;fill-rule:nonzero;"/><path d="M181.56,217.058c0,7.695 -6.237,13.933 -13.931,13.933c-7.693,0 -13.928,-6.238 -13.928,-13.933c0,-7.692 6.235,-13.927 13.928,-13.927c7.694,0 13.931,6.235 13.931,13.927" style="fill:#ffc000;fill-rule:nonzero;"/><path d="M159.891,179.916c0,2.564 -2.078,4.643 -4.642,4.643c-2.565,-0 -4.643,-2.079 -4.643,-4.643c0,-2.565 2.078,-4.643 4.643,-4.643c2.564,-0 4.642,2.078 4.642,4.643" style="fill:#ffc000;fill-rule:nonzero;"/><path d="M160.639,27.968c0,3.043 -2.466,5.509 -5.509,5.509c-3.042,0 -5.509,-2.466 -5.509,-5.509c0,-3.043 2.467,-5.51 5.509,-5.51c3.043,0 5.509,2.467 5.509,5.51" style="fill:#f7f5f7;fill-rule:nonzero;"/><path d="M38.531,27.968c0,6.084 -4.932,11.017 -11.017,11.017c-6.086,0 -11.017,-4.933 -11.017,-11.017c0,-6.085 4.931,-11.018 11.017,-11.018c6.085,0 11.017,4.933 11.017,11.018" style="fill-rule:nonzero;"/><path d="M238.39,228.142l-30.298,30.298l28.461,0l1.837,-30.298Z" style="fill:#f7f5f7;fill-rule:nonzero;"/><path d="M187.056,58.142l-30.298,30.298l28.461,0l1.837,-30.298Z" style="fill:#f7f5f7;fill-rule:nonzero;"/><path d="M95.786,20.89c-11.009,0 -19.967,8.958 -19.967,19.968c0,11.009 8.958,19.965 19.967,19.965c11.01,0 19.967,-8.956 19.967,-19.965c0,-11.01 -8.957,-19.968 -19.967,-19.968m0,42.229c-12.275,0 -22.262,-9.988 -22.262,-22.261c0,-12.276 9.987,-22.263 22.262,-22.263c12.275,0 22.263,9.987 22.263,22.263c0,12.273 -9.988,22.261 -22.263,22.261" style="fill:#000400;fill-rule:nonzero;"/></g></g></g><defs><linearGradient id="_Linear2" x1="0" y1="0" x2="1" y2="0" gradientUnits="userSpaceOnUse" gradientTransform="matrix(273.264,0,0,273.264,-0.487793,135.679)"><stop offset="0" style="stop-color:#00c5e2;stop-opacity:1"/><stop offset="0.01" style="stop-color:#00c5e2;stop-opacity:1"/><stop offset="1" style="stop-color:#6e06ae;stop-opacity:1"/></linearGradient></defs></svg>