<?xml version="1.0" encoding="UTF-8"?>
<!DOCTYPE svg PUBLIC "-//W3C//DTD SVG 1.1//EN" "http://www.w3.org/Graphics/SVG/1.1/DTD/svg11.dtd">
<svg version="1.1" id="Layer_1" xmlns="http://www.w3.org/2000/svg" xmlns:xlink="http://www.w3.org/1999/xlink" x="0px" y="0px" width="24px" height="24px" viewBox="0 0 24 24" enable-background="new 0 0 24 24" xml:space="preserve">
  <g id="icon">
    <path d="M7,3H4v3H2V1h5V3zM22,6V1h-5v2h3v3H22zM7,21H4v-3H2v5h5V21zM20,18v3h-3v2h5v-5H20zM19,18c0,1.1,-0.9,2,-2,2H7c-1.1,0,-2,-0.9,-2,-2V6c0,-1.1,0.9,-2,2,-2h10c1.1,0,2,0.9,2,2V18zM15,8H9v2h6V8zM15,11H9v2h6V11zM15,14H9v2h6V14z" fill="#FF4500"/>
  </g>
</svg>
